<?xml version="1.0" encoding="utf-8"?>
<!-- Generator: Adobe Illustrator 16.0.0, SVG Export Plug-In . SVG Version: 6.00 Build 0)  -->
<!DOCTYPE svg PUBLIC "-//W3C//DTD SVG 1.1//EN" "http://www.w3.org/Graphics/SVG/1.1/DTD/svg11.dtd">
<svg version="1.1" id="Layer_1" xmlns="http://www.w3.org/2000/svg" xmlns:xlink="http://www.w3.org/1999/xlink" x="0px" y="0px"
	 width="150px" height="150px" viewBox="0 0 150 150" enable-background="new 0 0 150 150" xml:space="preserve">
<g display="none">
	<g display="inline">
		<g>
			<path fill-rule="evenodd" clip-rule="evenodd" fill="#FF5103" d="M143.499,37.511c0.22,1.441,0.188,2.942,0.263,4.397
				c0.07,1.785,0.101,3.535,0.133,5.288c0.04,3.286-0.001,6.507,0.039,9.792c-1.325-0.416-2.852-0.262-4.127,0.159
				c-1.923,0.56-3.669,1.795-5.213,3.193c-0.497-1.997,0.354-4.092,0.891-6.046c0.617-2.222,0.533-4.479,0.59-6.823
				c0.063-2.273,0.305-4.601,1.687-6.531C139.01,39.169,141.187,37.488,143.499,37.511L143.499,37.511z M126.948,66.667l0.033-0.04
				l-0.042-0.033L126.948,66.667L126.948,66.667z M132.683,78.771c-0.064,0.08-0.13,0.159-0.202,0.168
				c-0.433,0.445-0.791,0.883-1.221,1.33l-1.061,1.13c0,0-0.091,0.189-0.129,0.159c-0.523,0.637-1.044,1.274-1.528,1.944
				l-0.513,0.71c-0.45,0.629-0.866,1.222-1.276,1.883c-1.754,2.955-3.013,6.115-3.81,9.447c-0.127,0.563-1.021,0.434-0.894-0.126
				c0.868-3.743,2.271-7.249,4.366-10.457c1.551-2.458,3.489-4.664,5.516-6.733c0.032-0.041,0.065-0.08,0.098-0.119
				c0.334-0.324,0.634-0.612,0.936-0.897c2.067-2.036,4.271-3.828,6.296-5.899c2.028-2.066,3.992-4.386,4.993-7.155
				c0.779-2.088,2.004-5.209-0.611-6.409c-2.501-1.171-4.763,0.771-6.854,2.189c-2.703,1.917-4.863,4.475-6.946,7.097
				c-2.003,2.615-4.574,4.773-6.701,7.292c-2.037,2.326-4.948,4.007-7.916,5.109c-0.032,0.04-0.07,0.009-0.104,0.049
				c0,0-0.032,0.039-0.074,0.005l0,0c0,0,0,0-0.032,0.041c-10.117,2.921-16.756,11.593-22.607,20.772
				c-3.916,6.242-8.773,11.85-9.347,19.218c-0.218,3.274,0.071,6.501,0.328,9.763c0.023,0.218,0.037,0.363,0.062,0.581l22.214,2.147
				c0.053-0.954,0.181-1.846,0.31-2.737c0.623-3.277,2.053-6.164,4.181-8.68c2.16-2.558,4.755-4.83,7.41-6.851
				c2.955-2.308,6.038-4.446,9.073-6.691c3.045-2.17,6.047-4.373,8.846-6.81c2.722-2.433,5.417-5.152,7.029-8.421
				c0,0,0.034-0.04,0.066-0.08c0.562-3.857,0.197-7.806-0.158-11.681c-0.229-1.914-0.429-3.869-0.481-5.838
				c-0.043-1.494-0.123-3.021,0.053-4.537c-2.25,2.749-5.062,5.043-7.673,7.497L132.683,78.771z M132.479,42.021
				c-0.541,1.883-0.588,3.968-0.573,5.906c-0.055,1.284-0.033,2.563-0.089,3.847c-0.117,1.364-0.277,2.696-0.469,4.068
				c-0.315,2.665-0.656,5.44-0.095,8.088c-1.077,1.315-2.074,2.695-3.031,4.104c-0.214-2.097-0.063-4.232,0.089-6.367
				c0.119-2.426-0.008-4.788-0.146-7.224c-0.201-2.355-0.227-4.767,0.498-7.031c0.456-1.29,1.136-2.528,2.05-3.645
				C131.235,43.132,131.799,42.528,132.479,42.021L132.479,42.021z M138.293,36.794c0.342,0.476,0.44,1.087,0.606,1.62
				c-0.472,0.413-0.943,0.827-1.335,1.304c-1.752,1.893-2.263,4.467-2.377,6.964c-0.113,2.498,0.03,5.005-0.638,7.448
				c-0.611,2.292-1.446,4.533-0.73,6.908l0,0c-0.462,0.486-0.929,0.972-1.352,1.489c-0.17,0.127-0.333,0.327-0.463,0.486
				c-0.301-2.238-0.053-4.492,0.235-6.715c0.3-2.478,0.534-4.877,0.573-7.368c-0.032-2.482,0.001-5.045,0.825-7.429
				C134.344,39.421,135.938,37.066,138.293,36.794L138.293,36.794z"/>
			<polygon fill-rule="evenodd" clip-rule="evenodd" fill="#FF5103" points="77.477,126.66 76.396,138.064 109.861,141.202 
				110.941,129.797 			"/>
		</g>
		<polygon fill-rule="evenodd" clip-rule="evenodd" fill="#FF5103" points="76.523,136.773 76.396,138.064 109.861,141.202 
			109.987,139.909 		"/>
	</g>
	<g display="inline">
		<g>
			<path fill-rule="evenodd" clip-rule="evenodd" fill="#FF5103" d="M5.185,37.511c2.312-0.023,4.488,1.658,5.738,3.43
				c1.383,1.93,1.623,4.258,1.686,6.531c0.056,2.344-0.026,4.601,0.591,6.823c0.536,1.954,1.388,4.049,0.89,6.046
				c-1.544-1.398-3.29-2.633-5.212-3.193c-1.276-0.421-2.801-0.575-4.127-0.159c0.04-3.285-0.001-6.506,0.039-9.792
				c0.032-1.753,0.062-3.503,0.133-5.288C4.997,40.453,4.965,38.952,5.185,37.511L5.185,37.511z M21.735,66.667l0.009-0.073
				l-0.041,0.033L21.735,66.667L21.735,66.667z M14.364,77.182c-2.612-2.454-5.423-4.749-7.673-7.497
				c0.176,1.516,0.096,3.043,0.053,4.537c-0.052,1.969-0.25,3.924-0.482,5.838c-0.355,3.875-0.719,7.823-0.157,11.681
				c0.032,0.04,0.065,0.08,0.065,0.08c1.612,3.269,4.308,5.988,7.03,8.421c2.798,2.437,5.801,4.64,8.845,6.81
				c3.036,2.245,6.119,4.384,9.072,6.691c2.658,2.021,5.25,4.293,7.412,6.851c2.128,2.516,3.557,5.402,4.18,8.68
				c0.13,0.892,0.258,1.783,0.31,2.737l22.214-2.147c0.023-0.218,0.038-0.363,0.061-0.581c0.257-3.262,0.547-6.488,0.329-9.763
				c-0.573-7.368-5.431-12.976-9.346-19.218c-5.853-9.18-12.491-17.852-22.608-20.772c-0.032-0.041-0.032-0.041-0.032-0.041l0,0
				c-0.041,0.034-0.074-0.005-0.074-0.005c-0.033-0.04-0.072-0.009-0.104-0.049c-2.968-1.103-5.878-2.783-7.916-5.109
				c-2.126-2.519-4.697-4.676-6.702-7.292c-2.083-2.622-4.243-5.18-6.946-7.097c-2.091-1.418-4.353-3.36-6.854-2.189
				c-2.614,1.2-1.39,4.32-0.611,6.409c1.001,2.77,2.965,5.089,4.994,7.155c2.024,2.071,4.228,3.863,6.294,5.899
				c0.302,0.285,0.602,0.573,0.937,0.897c0.032,0.039,0.065,0.078,0.098,0.119c2.025,2.069,3.965,4.275,5.516,6.733
				c2.094,3.208,3.498,6.714,4.365,10.457c0.128,0.56-0.766,0.688-0.892,0.126c-0.798-3.332-2.056-6.492-3.81-9.447
				c-0.41-0.661-0.826-1.254-1.276-1.883l-0.513-0.71c-0.484-0.67-1.005-1.308-1.528-1.944c-0.039,0.03-0.13-0.159-0.13-0.159
				l-1.06-1.13c-0.43-0.447-0.789-0.885-1.221-1.33c-0.072-0.009-0.138-0.088-0.203-0.168L14.364,77.182z M16.204,42.021
				c0.681,0.507,1.244,1.11,1.767,1.748c0.914,1.116,1.593,2.354,2.048,3.645c0.725,2.264,0.7,4.675,0.499,7.031
				c-0.139,2.436-0.265,4.797-0.146,7.224c0.151,2.135,0.302,4.27,0.088,6.367c-0.957-1.409-1.954-2.79-3.032-4.104
				c0.562-2.648,0.22-5.424-0.094-8.088c-0.192-1.373-0.352-2.704-0.468-4.068c-0.056-1.284-0.035-2.563-0.09-3.847
				C16.791,45.99,16.745,43.905,16.204,42.021L16.204,42.021z M10.39,36.794c2.356,0.271,3.95,2.627,4.655,4.708
				c0.823,2.384,0.857,4.947,0.825,7.429c0.04,2.491,0.274,4.89,0.574,7.368c0.288,2.223,0.537,4.477,0.236,6.715
				c-0.131-0.16-0.293-0.359-0.462-0.486c-0.424-0.518-0.89-1.003-1.353-1.489l0,0c0.716-2.375-0.12-4.617-0.73-6.908
				c-0.669-2.443-0.525-4.951-0.639-7.448c-0.113-2.497-0.624-5.071-2.376-6.964c-0.391-0.477-0.863-0.891-1.334-1.304
				C9.95,37.882,10.049,37.271,10.39,36.794L10.39,36.794z"/>
			<polygon fill-rule="evenodd" clip-rule="evenodd" fill="#FF5103" points="71.207,126.66 72.287,138.064 38.823,141.202 
				37.742,129.797 			"/>
		</g>
		<polygon fill-rule="evenodd" clip-rule="evenodd" fill="#FF5103" points="72.16,136.773 72.287,138.064 38.823,141.202 
			38.696,139.909 		"/>
	</g>
	<g display="inline">
		<g>
			<path fill-rule="evenodd" clip-rule="evenodd" fill="#FF5103" d="M77.544,75.666c-0.593-0.673-1.119-1.286-1.661-1.885
				c-4.088-4.52-8.789-8.367-13.49-12.213c-4.949-4.049-9.926-8.068-14.234-12.825c-4.137-4.569-7.425-9.645-9.197-15.593
				c-1.03-3.457-1.791-6.972-1.443-10.619c0.46-4.806,2.613-8.804,6.119-12.046C48.68,5.82,54.684,3.651,61.555,4.311
				c5.42,0.52,9.869,3.121,13.585,7.012c0.848,0.887,1.6,1.863,2.413,2.818c1.573-2.209,3.44-4.124,5.621-5.743
				c13.304-9.883,31.646-1.259,34.068,13.983c0.768,4.826-0.258,9.291-2.495,13.548c-2.397,4.563-5.602,8.545-9.236,12.147
				c-4.958,4.916-10.063,9.684-15.146,14.475c-4.347,4.099-8.684,8.205-12.56,12.762C77.725,75.408,77.658,75.512,77.544,75.666z
				 M80.172,58.034c1.303-0.237,2.534-0.382,3.724-0.69c4.348-1.127,7.117-4.065,7.594-8.072c0.538-4.521-0.89-7.822-5.297-9.735
				c-1.734-0.752-3.571-1.272-5.377-1.849c-0.475-0.152-0.667-0.323-0.657-0.849c0.033-2.094,0.011-4.188,0.017-6.283
				c0-0.207,0.037-0.414,0.062-0.652c1.631,0.267,3.04,0.9,4.42,1.619c0.501,0.261,1.009,0.537,1.546,0.695
				c1.713,0.504,3.391-0.218,4.137-1.728c0.743-1.502,0.316-3.184-1.154-4.246c-1.565-1.131-3.243-2.084-5.127-2.583
				c-1.258-0.333-2.542-0.564-3.887-0.858c0-1.02-0.018-2.076,0.008-3.131c0.013-0.573-0.208-0.788-0.787-0.775
				c-1.284,0.029-2.57,0.034-3.855-0.001c-0.637-0.019-0.814,0.25-0.801,0.835c0.027,1.13,0.009,2.263,0.009,3.424
				c-0.274,0.072-0.509,0.14-0.746,0.196c-2.059,0.492-4.001,1.261-5.725,2.505c-3.155,2.277-4.498,5.341-3.866,9.191
				c0.474,2.883,2.266,4.857,4.774,6.116c1.57,0.788,3.307,1.255,4.991,1.797c0.451,0.145,0.581,0.311,0.577,0.752
				c-0.019,2.168-0.006,4.336-0.012,6.504c0,0.159-0.043,0.318-0.071,0.518c-0.222-0.04-0.401-0.041-0.552-0.103
				c-1.522-0.629-3.042-1.264-4.559-1.908c-0.566-0.241-1.099-0.578-1.682-0.757c-2.199-0.681-4.181,0.551-4.506,2.759
				c-0.276,1.879,0.545,3.484,2.269,4.318c2.249,1.088,4.571,1.978,7.04,2.443c0.671,0.126,1.345,0.244,2.065,0.375
				c0,1.13,0.021,2.212-0.01,3.292c-0.017,0.614,0.223,0.826,0.83,0.811c1.26-0.032,2.521-0.032,3.781,0
				c0.603,0.015,0.852-0.192,0.834-0.809C80.148,60.125,80.172,59.092,80.172,58.034z"/>
		</g>
		<path fill-rule="evenodd" clip-rule="evenodd" fill="#FF5103" d="M80.208,51.19c0-2.294,0-4.499,0-6.793
			c1.556,0.378,2.998,0.875,3.969,2.201c0.608,0.83,0.536,2.081-0.105,2.896C83.112,50.713,81.789,51.118,80.208,51.19z"/>
		<path fill-rule="evenodd" clip-rule="evenodd" fill="#FF5103" d="M74.722,30.196c0,1.969,0,3.88,0,5.792
			c-1.291-0.021-2.657-1.197-2.789-2.381C71.76,32.06,72.938,30.589,74.722,30.196z"/>
	</g>
</g>
<g>
	<g>
		<g>
			<path id="b2fyBf4FfH" fill="#FF5103" d="M47.842,103.883c-1.643,0-2.964,1.365-2.964,3.056c0,1.688,1.321,3.054,2.964,3.054
				c1.626,0,2.948-1.365,2.948-3.054C50.79,105.248,49.469,103.883,47.842,103.883z"/>
		</g>
		<g>
			<g>
				<path id="b2fyBf4FfH_1_" fill-opacity="0" stroke="#000000" stroke-opacity="0" d="M47.842,103.883
					c-1.643,0-2.964,1.365-2.964,3.056c0,1.688,1.321,3.054,2.964,3.054c1.626,0,2.948-1.365,2.948-3.054
					C50.79,105.248,49.469,103.883,47.842,103.883z"/>
			</g>
		</g>
	</g>
	<g>
		<g>
			<path id="iYGpABSGR" fill="#FF5103" d="M42.652,110.285l0.215,0.045l0.199,0.077l1.336,0.522l1.244,0.506l1.014,0.385
				l0.583,0.215l0.246,0.137l0.184,0.2l0.123,0.261l0.016,0.292v0.092v0.093l-0.016,0.076v0.063l-0.568,2.933l-1.09,2.594
				l-1.581,2.243l-2.087,1.825v0.017l0,0h-0.016l-0.015,0.014l-0.016,0.015l-0.199,0.124l-0.215-0.124l-0.015-0.015l-0.016-0.014
				h-0.016l0,0v-0.017l-2.089-1.825l-1.581-2.243l-1.09-2.594l-0.568-2.933v-0.063l-0.015-0.076v-0.093v-0.092l0.015-0.292
				l0.123-0.261l0.185-0.2l0.245-0.137l0.584-0.215l1.013-0.399l1.244-0.491l1.336-0.522l0.199-0.077l0.215-0.045l0.215-0.032
				l0.23-0.014l0.215,0.014L42.652,110.285z M41.378,115.551h-2.181v1.766h2.211v2.348h1.627v-2.379h2.196v-1.734h-2.211v-2.381
				h-1.643V115.551z"/>
		</g>
		<g>
			<g>
				<path id="iYGpABSGR_1_" fill-opacity="0" stroke="#000000" stroke-opacity="0" d="M42.652,110.285l0.215,0.045l0.199,0.077
					l1.336,0.522l1.244,0.506l1.014,0.385l0.583,0.215l0.246,0.137l0.184,0.2l0.123,0.261l0.016,0.292v0.092v0.093l-0.016,0.076
					v0.063l-0.568,2.933l-1.09,2.594l-1.581,2.243l-2.087,1.825v0.017l0,0h-0.016l-0.015,0.014l-0.016,0.015l-0.199,0.124
					l-0.215-0.124l-0.015-0.015l-0.016-0.014h-0.016l0,0v-0.017l-2.089-1.825l-1.581-2.243l-1.09-2.594l-0.568-2.933v-0.063
					l-0.015-0.076v-0.093v-0.092l0.015-0.292l0.123-0.261l0.185-0.2l0.245-0.137l0.584-0.215l1.013-0.399l1.244-0.491l1.336-0.522
					l0.199-0.077l0.215-0.045l0.215-0.032l0.23-0.014l0.215,0.014L42.652,110.285z M41.378,115.551h-2.181v1.766h2.211v2.348h1.627
					v-2.379h2.196v-1.734h-2.211v-2.381h-1.643V115.551z"/>
			</g>
		</g>
	</g>
	<g>
		<g>
			<path id="cyc5G7iUq" fill="#FF5103" d="M0,102.653c0-2.165,0-19.438,0-21.604c0-4.528,3.578-8.214,7.999-8.214
				c2.872,0,25.871,0,28.742,0c4.299,0,8,3.932,8,8.459c0,1.477-1.198,2.703-2.625,2.703c-1.444,0-2.626-1.227-2.626-2.703
				c0-1.58-1.197-2.932-2.625-2.932c-2.871,0-25.87,0-28.742,0c-1.443,0-2.625,1.229-2.625,2.687c0,2.165,0,19.438,0,21.604
				c0,1.229,1.78,2.456,3.455,2.456c1.428,0,2.625,1.229,2.625,2.687c0,1.476-1.197,2.826-2.748,2.826
				C4.529,110.622,0,107.429,0,102.653z"/>
		</g>
		<g>
			<g>
				<path id="cyc5G7iUq_1_" fill-opacity="0" stroke="#000000" stroke-opacity="0" d="M0,102.653c0-2.165,0-19.438,0-21.604
					c0-4.528,3.578-8.214,7.999-8.214c2.872,0,25.871,0,28.742,0c4.299,0,8,3.932,8,8.459c0,1.477-1.198,2.703-2.625,2.703
					c-1.444,0-2.626-1.227-2.626-2.703c0-1.58-1.197-2.932-2.625-2.932c-2.871,0-25.87,0-28.742,0c-1.443,0-2.625,1.229-2.625,2.687
					c0,2.165,0,19.438,0,21.604c0,1.229,1.78,2.456,3.455,2.456c1.428,0,2.625,1.229,2.625,2.687c0,1.476-1.197,2.826-2.748,2.826
					C4.529,110.622,0,107.429,0,102.653z"/>
			</g>
		</g>
	</g>
	<g>
		<g>
			<path id="dQYHGwBOd" fill="#FF5103" d="M7.999,144C3.578,144,0,140.315,0,135.771c0-2.272,0-20.528,0-22.814
				c0-4.792,4.529-7.848,8.828-7.848c1.428,0,2.625,1.229,2.625,2.687c0,1.476-1.197,2.704-2.625,2.704
				c-1.551,0-3.455,0.98-3.455,2.334c0,2.286,0,20.541,0,22.814c0,1.474,1.197,2.702,2.625,2.702c2.872,0,25.871,0,28.742,0
				c1.428,0,2.625-1.229,2.625-2.702c0-1.475,1.197-2.702,2.626-2.702c1.427,0,2.625,1.228,2.625,2.702
				c0.23,4.667-3.455,8.352-7.876,8.352C30.999,144,10.871,144,7.999,144z"/>
		</g>
		<g>
			<g>
				<path id="dQYHGwBOd_1_" fill-opacity="0" stroke="#000000" stroke-opacity="0" d="M7.999,144C3.578,144,0,140.315,0,135.771
					c0-2.272,0-20.528,0-22.814c0-4.792,4.529-7.848,8.828-7.848c1.428,0,2.625,1.229,2.625,2.687c0,1.476-1.197,2.704-2.625,2.704
					c-1.551,0-3.455,0.98-3.455,2.334c0,2.286,0,20.541,0,22.814c0,1.474,1.197,2.702,2.625,2.702c2.872,0,25.871,0,28.742,0
					c1.428,0,2.625-1.229,2.625-2.702c0-1.475,1.197-2.702,2.626-2.702c1.427,0,2.625,1.228,2.625,2.702
					c0.23,4.667-3.455,8.352-7.876,8.352C30.999,144,10.871,144,7.999,144z"/>
			</g>
		</g>
	</g>
	<g>
		<g>
			<path id="e4ldURAQ8Z" fill="#FF5103" d="M74.312,106.938c0-1.461,1.198-2.688,2.626-2.688c1.551,0,2.625-1.105,2.625-2.457
				c0-2.059,0-18.44,0-20.499c0-1.457-1.197-2.686-2.625-2.686c-2.872,0-25.872,0-28.758,0c-1.428,0-2.61,1.352-2.61,2.932
				c0,1.477-1.198,2.702-2.626,2.702c-1.443,0-2.625-1.226-2.625-2.702c0-4.527,3.7-8.459,7.984-8.459c2.871,0,25.871,0,28.758,0
				c4.406,0,7.984,3.686,7.984,8.213c0,2.059,0,18.44,0,20.499c-0.123,4.299-3.578,7.846-8.107,7.846
				C75.51,109.64,74.312,108.41,74.312,106.938z"/>
		</g>
		<g>
			<g>
				<path id="e4ldURAQ8Z_1_" fill-opacity="0" stroke="#000000" stroke-opacity="0" d="M74.312,106.938
					c0-1.461,1.198-2.688,2.626-2.688c1.551,0,2.625-1.105,2.625-2.457c0-2.059,0-18.44,0-20.499c0-1.457-1.197-2.686-2.625-2.686
					c-2.872,0-25.872,0-28.758,0c-1.428,0-2.61,1.352-2.61,2.932c0,1.477-1.198,2.702-2.626,2.702c-1.443,0-2.625-1.226-2.625-2.702
					c0-4.527,3.7-8.459,7.984-8.459c2.871,0,25.871,0,28.758,0c4.406,0,7.984,3.686,7.984,8.213c0,2.059,0,18.44,0,20.499
					c-0.123,4.299-3.578,7.846-8.107,7.846C75.51,109.64,74.312,108.41,74.312,106.938z"/>
			</g>
		</g>
	</g>
	<g>
		<g>
			<path id="cl47MADk" fill="#FF5103" d="M48.18,144c-4.407,0-7.984-3.685-7.984-8.229c0-1.474,1.198-2.702,2.625-2.702
				s2.626,1.229,2.626,2.702s1.182,2.702,2.625,2.702c2.871,0,25.871,0,28.742,0c1.428,0,2.625-1.229,2.625-2.702
				c0-2.38,0-21.419,0-23.799c0-1.597-1.32-2.333-2.625-2.333c-1.428,0-2.626-1.229-2.626-2.701c0-1.461,1.198-2.688,2.626-2.688
				c4.529,0,7.998,3.301,7.998,7.845c0,2.379,0,21.418,0,23.798c0.109,4.422-3.469,8.106-7.875,8.106
				C71.179,144,51.066,144,48.18,144z"/>
		</g>
		<g>
			<g>
				<path id="cl47MADk_1_" fill-opacity="0" stroke="#000000" stroke-opacity="0" d="M48.18,144c-4.407,0-7.984-3.685-7.984-8.229
					c0-1.474,1.198-2.702,2.625-2.702s2.626,1.229,2.626,2.702s1.182,2.702,2.625,2.702c2.871,0,25.871,0,28.742,0
					c1.428,0,2.625-1.229,2.625-2.702c0-2.38,0-21.419,0-23.799c0-1.597-1.32-2.333-2.625-2.333c-1.428,0-2.626-1.229-2.626-2.701
					c0-1.461,1.198-2.688,2.626-2.688c4.529,0,7.998,3.301,7.998,7.845c0,2.379,0,21.418,0,23.798
					c0.109,4.422-3.469,8.106-7.875,8.106C71.179,144,51.066,144,48.18,144z"/>
			</g>
		</g>
	</g>
	<g>
		<g>
			<path id="b1vYneesEP" fill="#FF5103" d="M39.489,135.771c0-5.45,0-49.023,0-54.477c0-1.457,1.183-2.686,2.626-2.686
				c1.427,0,2.625,1.229,2.625,2.686c0,5.453,0,49.026,0,54.477c0.107,1.474-1.198,2.702-2.625,2.702
				C40.671,138.474,39.489,137.245,39.489,135.771z"/>
		</g>
		<g>
			<g>
				<path id="b1vYneesEP_1_" fill-opacity="0" stroke="#000000" stroke-opacity="0" d="M39.489,135.771c0-5.45,0-49.023,0-54.477
					c0-1.457,1.183-2.686,2.626-2.686c1.427,0,2.625,1.229,2.625,2.686c0,5.453,0,49.026,0,54.477
					c0.107,1.474-1.198,2.702-2.625,2.702C40.671,138.474,39.489,137.245,39.489,135.771z"/>
			</g>
		</g>
	</g>
	<g>
		<g>
			<path id="fmFxw9jo6" fill="#FF5103" d="M7.032,107.919c0-1.473,1.197-2.81,2.625-2.81c6.725-0.122,60.555-0.997,67.28-1.104
				c1.428,0,2.732,1.227,2.732,2.688c0,1.473-1.182,2.825-2.609,2.825c-6.741,0.107-60.663,0.997-67.403,1.104c0.123,0,0,0,0,0
				C8.229,110.622,7.032,109.395,7.032,107.919z"/>
		</g>
		<g>
			<g>
				<path id="fmFxw9jo6_1_" fill-opacity="0" stroke="#000000" stroke-opacity="0" d="M7.032,107.919c0-1.473,1.197-2.81,2.625-2.81
					c6.725-0.122,60.555-0.997,67.28-1.104c1.428,0,2.732,1.227,2.732,2.688c0,1.473-1.182,2.825-2.609,2.825
					c-6.741,0.107-60.663,0.997-67.403,1.104c0.123,0,0,0,0,0C8.229,110.622,7.032,109.395,7.032,107.919z"/>
			</g>
		</g>
	</g>
	<g>
		<g>
			<path id="c11zE1LNQt" fill="#FF5103" d="M43.313,105.679l0.415,0.306l0.337,0.369l0.277,0.43l0.184,0.476l0.092,0.507v0.521
				l-0.169,1.459l-0.354,2.271l-0.598,2.766l-0.891,2.948l-1.275,2.809l-1.688,2.348l-2.18,1.599l-0.23,0.154l-0.261,0.122
				l-0.307,0.123l-0.337,0.093l-0.354,0.06l-0.384,0.048l-0.399,0.015l-0.583-0.032l-0.629-0.09l-0.645-0.171l-0.691-0.261
				l-0.722-0.336l-0.737-0.432l-0.768-0.521l-1.274-1.152l-0.998-1.274l-0.691-1.334l-0.368-1.413l-0.077-1.443l0.23-1.475
				l0.554-1.474l1.474-2.147l2.026-1.951l2.395-1.689l2.549-1.335l2.502-0.905l2.273-0.401l1.812,0.215L43.313,105.679z
				 M34.991,113.646l-1.582,1.442l-0.967,1.552l-0.076,0.338l0.045,0.507l0.369,0.644l0.86,0.847l0.414,0.291l0.476,0.29
				l0.492,0.187l0.415-0.048l1.043-1.06l0.952-1.889l0.814-2.471l0.645-2.796l-1.966,0.922L34.991,113.646z"/>
		</g>
		<g>
			<g>
				<path id="c11zE1LNQt_1_" fill-opacity="0" stroke="#000000" stroke-opacity="0" d="M43.313,105.679l0.415,0.306l0.337,0.369
					l0.277,0.43l0.184,0.476l0.092,0.507v0.521l-0.169,1.459l-0.354,2.271l-0.598,2.766l-0.891,2.948l-1.275,2.809l-1.688,2.348
					l-2.18,1.599l-0.23,0.154l-0.261,0.122l-0.307,0.123l-0.337,0.093l-0.354,0.06l-0.384,0.048l-0.399,0.015l-0.583-0.032
					l-0.629-0.09l-0.645-0.171l-0.691-0.261l-0.722-0.336l-0.737-0.432l-0.768-0.521l-1.274-1.152l-0.998-1.274l-0.691-1.334
					l-0.368-1.413l-0.077-1.443l0.23-1.475l0.554-1.474l1.474-2.147l2.026-1.951l2.395-1.689l2.549-1.335l2.502-0.905l2.273-0.401
					l1.812,0.215L43.313,105.679z M34.991,113.646l-1.582,1.442l-0.967,1.552l-0.076,0.338l0.045,0.507l0.369,0.644l0.86,0.847
					l0.414,0.291l0.476,0.29l0.492,0.187l0.415-0.048l1.043-1.06l0.952-1.889l0.814-2.471l0.645-2.796l-1.966,0.922L34.991,113.646z
					"/>
			</g>
		</g>
	</g>
	<g>
		<g>
			<path id="a5J2SeYMrP" fill="#FF5103" d="M53.799,88.283l1.152,0.413l1.244,0.646l1.304,0.92l1.305,1.152l1.059,1.243l0.784,1.319
				l0.538,1.368l0.245,1.428l-0.031,1.459l-0.307,1.474l-0.614,1.476l-1.29,1.902l-1.704,1.797l-2.042,1.675l-2.256,1.457
				l-2.334,1.23l-2.333,0.935l-2.196,0.601l-1.95,0.212h-0.215l-0.23-0.015l-0.215-0.03l-0.199-0.03l-0.2-0.031l-0.184-0.046
				l-0.154-0.045l-0.153-0.046l-0.415-0.17l-0.384-0.246l-0.322-0.306l-0.262-0.369l-0.199-0.398l-0.138-0.431l-0.078-0.445
				l0.016-0.462l0.154-1.473l0.322-2.243l0.538-2.747l0.768-3.026l1.075-3.038l1.397-2.811l1.782-2.319l2.195-1.595l0.721-0.292
				l0.814-0.216l0.906-0.107l0.999,0.031L53.799,88.283z M51.711,93.701l-0.138,0.047l-0.154,0.062l-1.52,1.49l-1.305,2.688
				l-1.059,3.423l-0.768,3.699l2.549-1.136l2.687-1.611l2.334-1.966l1.489-2.165l0.184-0.553l-0.016-0.769l-0.491-0.982
				l-1.228-1.257L53.6,94.208l-0.584-0.306l-0.537-0.154l-0.476-0.062l-0.153,0.015H51.711z"/>
		</g>
		<g>
			<g>
				<path id="a5J2SeYMrP_1_" fill-opacity="0" stroke="#000000" stroke-opacity="0" d="M53.799,88.283l1.152,0.413l1.244,0.646
					l1.304,0.92l1.305,1.152l1.059,1.243l0.784,1.319l0.538,1.368l0.245,1.428l-0.031,1.459l-0.307,1.474l-0.614,1.476l-1.29,1.902
					l-1.704,1.797l-2.042,1.675l-2.256,1.457l-2.334,1.23l-2.333,0.935l-2.196,0.601l-1.95,0.212h-0.215l-0.23-0.015l-0.215-0.03
					l-0.199-0.03l-0.2-0.031l-0.184-0.046l-0.154-0.045l-0.153-0.046l-0.415-0.17l-0.384-0.246l-0.322-0.306l-0.262-0.369
					l-0.199-0.398l-0.138-0.431l-0.078-0.445l0.016-0.462l0.154-1.473l0.322-2.243l0.538-2.747l0.768-3.026l1.075-3.038l1.397-2.811
					l1.782-2.319l2.195-1.595l0.721-0.292l0.814-0.216l0.906-0.107l0.999,0.031L53.799,88.283z M51.711,93.701l-0.138,0.047
					l-0.154,0.062l-1.52,1.49l-1.305,2.688l-1.059,3.423l-0.768,3.699l2.549-1.136l2.687-1.611l2.334-1.966l1.489-2.165l0.184-0.553
					l-0.016-0.769l-0.491-0.982l-1.228-1.257L53.6,94.208l-0.584-0.306l-0.537-0.154l-0.476-0.062l-0.153,0.015H51.711z"/>
			</g>
		</g>
	</g>
	<g>
		<g>
			<path id="eBOnP9MM4" fill="#FF5103" d="M45.094,114.675c-1.674-3.194-3.7-3.929-3.823-3.929c-1.428-0.493-2.15-1.966-1.782-3.44
				c0.354-1.459,1.905-2.196,3.225-1.828c0.476,0.124,4.284,1.338,7.032,6.618c1.305,2.579,4.299,1.965,4.299,1.965
				c1.428-0.244,2.856,0.737,3.101,2.212c0.231,1.474-0.721,2.933-2.149,3.179c-0.368,0.122-0.952,0.244-1.551,0.244
				C50.821,119.695,47.12,118.606,45.094,114.675z"/>
		</g>
		<g>
			<g>
				<path id="eBOnP9MM4_1_" fill-opacity="0" stroke="#000000" stroke-opacity="0" d="M45.094,114.675
					c-1.674-3.194-3.7-3.929-3.823-3.929c-1.428-0.493-2.15-1.966-1.782-3.44c0.354-1.459,1.905-2.196,3.225-1.828
					c0.476,0.124,4.284,1.338,7.032,6.618c1.305,2.579,4.299,1.965,4.299,1.965c1.428-0.244,2.856,0.737,3.101,2.212
					c0.231,1.474-0.721,2.933-2.149,3.179c-0.368,0.122-0.952,0.244-1.551,0.244C50.821,119.695,47.12,118.606,45.094,114.675z"/>
			</g>
		</g>
	</g>
	<g>
		<g>
			<path id="l5gqszRUwS" fill="#FF5103" d="M39.244,107.919c-0.476-0.244-4.176-2.072-6.203-7.6
				c-0.952-2.824-4.284-2.824-4.284-2.824c-1.443,0-2.625-1.229-2.625-2.702c0-1.46,1.182-2.687,2.625-2.687
				c2.611,0,7.508,1.349,9.412,6.371c1.198,3.439,3.347,4.544,3.47,4.544c1.304,0.737,1.903,2.334,1.182,3.671
				c-0.476,0.859-1.428,1.473-2.503,1.473C39.965,108.165,39.612,108.041,39.244,107.919z"/>
		</g>
		<g>
			<g>
				<path id="l5gqszRUwS_1_" fill-opacity="0" stroke="#000000" stroke-opacity="0" d="M39.244,107.919
					c-0.476-0.244-4.176-2.072-6.203-7.6c-0.952-2.824-4.284-2.824-4.284-2.824c-1.443,0-2.625-1.229-2.625-2.702
					c0-1.46,1.182-2.687,2.625-2.687c2.611,0,7.508,1.349,9.412,6.371c1.198,3.439,3.347,4.544,3.47,4.544
					c1.304,0.737,1.903,2.334,1.182,3.671c-0.476,0.859-1.428,1.473-2.503,1.473C39.965,108.165,39.612,108.041,39.244,107.919z"/>
			</g>
		</g>
	</g>
</g>
<g>
	<g>
		<g>
			<path id="i33qxxZESb" fill="#FF5103" d="M112.643,34.063l0.159,0.013h0.174l0.159,0.026l0.161,0.013l0.159,0.026l0.159,0.027
				l0.148,0.027l0.159,0.039l0.161,0.027l0.159,0.054l0.161,0.039l0.146,0.055l0.159,0.052l0.148,0.055l0.158,0.052l0.975,0.388
				l1.001,0.386l0.987,0.388l0.987,0.386l0.984,0.387l0.962,0.374l0.936,0.359l0.906,0.347l0.853,0.333l0.828,0.32l0.761,0.281
				l0.706,0.266l0.628,0.24l0.561,0.213l0.479,0.175l0.385,0.133l0.282,0.094l0.2,0.08l0.186,0.079l0.188,0.107l0.174,0.12
				l0.159,0.12l0.146,0.148l0.136,0.146l0.12,0.16l0.12,0.173l0.094,0.188l0.078,0.185l0.08,0.201l0.056,0.201l0.039,0.213
				l0.025,0.214l0.014,0.213l-0.014,0.227v0.065l-0.013,0.068v0.066v0.066l-0.013,0.068l-0.014,0.186v0.12l-0.013,0.053v0.053v0.054
				v0.053l-0.013,0.054v0.039V43.4l-0.269,2.241l-0.373,2.173l-0.453,2.135l-0.547,2.067l-0.642,2.014l-0.734,1.962l-0.826,1.907
				l-0.906,1.828l-1.001,1.787l-1.081,1.708l-1.172,1.642l-1.27,1.587l-1.347,1.507l-1.428,1.44l-1.52,1.375l-1.589,1.308
				l-1.693,1.228v0.013h-0.014l-0.013,0.013l-0.013,0.014l-0.014,0.013h-0.016h-0.013l-0.013,0.013l0,0l-0.014,0.015h-0.013
				l-0.013,0.013v0.015l-0.667,0.398l-0.681-0.398V73.4l-0.013-0.013h-0.016l-0.013-0.015l0,0l-0.014-0.013h-0.013h-0.013
				l-0.014-0.013l-0.013-0.014l-0.026-0.013v-0.013l-1.696-1.228l-1.586-1.308l-1.521-1.375l-1.429-1.44l-1.347-1.507l-1.267-1.587
				l-1.175-1.642l-1.078-1.708l-1.001-1.787l-0.906-1.828l-0.829-1.907l-0.719-1.962l-0.641-2.014l-0.548-2.067l-0.466-2.135
				l-0.362-2.173L94.673,43.4v-0.042l-0.014-0.039v-0.054v-0.053l-0.013-0.054v-0.053l-0.013-0.053v-0.054v-0.066l-0.014-0.053
				v-0.068v-0.065l-0.016-0.068v-0.066l-0.013-0.066v-0.068v-0.065l-0.013-0.227l0.013-0.213l0.028-0.214l0.039-0.213l0.053-0.201
				l0.081-0.201l0.08-0.185l0.107-0.188l0.106-0.173l0.12-0.16l0.146-0.146l0.148-0.148l0.159-0.12l0.159-0.12l0.188-0.107
				l0.188-0.079l0.2-0.08l0.279-0.094l0.388-0.133l0.479-0.175l0.561-0.213l0.628-0.24l0.706-0.266l0.761-0.281l0.813-0.32
				l0.868-0.333l0.906-0.347l0.933-0.359l0.962-0.374l0.987-0.387l0.987-0.386l0.987-0.388l1.001-0.386l0.972-0.388l0.161-0.052
				l0.146-0.055l0.161-0.052l0.146-0.055l0.158-0.039l0.162-0.054l0.159-0.027l0.161-0.039l0.159-0.027l0.161-0.027l0.159-0.026
				l0.161-0.013l0.159-0.026h0.159l0.161-0.013l0.172-0.014h0.162h0.158L112.643,34.063z M109.654,50.603h-6.871v5.47h6.965v7.337
				h5.148v-7.431h6.964v-5.417h-6.99v-7.376h-5.216V50.603z"/>
		</g>
		<g>
			<g>
				<path id="i33qxxZESb_1_" fill-opacity="0" stroke="#000000" stroke-opacity="0" d="M112.643,34.063l0.159,0.013h0.174
					l0.159,0.026l0.161,0.013l0.159,0.026l0.159,0.027l0.148,0.027l0.159,0.039l0.161,0.027l0.159,0.054l0.161,0.039l0.146,0.055
					l0.159,0.052l0.148,0.055l0.158,0.052l0.975,0.388l1.001,0.386l0.987,0.388l0.987,0.386l0.984,0.387l0.962,0.374l0.936,0.359
					l0.906,0.347l0.853,0.333l0.828,0.32l0.761,0.281l0.706,0.266l0.628,0.24l0.561,0.213l0.479,0.175l0.385,0.133l0.282,0.094
					l0.2,0.08l0.186,0.079l0.188,0.107l0.174,0.12l0.159,0.12l0.146,0.148l0.136,0.146l0.12,0.16l0.12,0.173l0.094,0.188
					l0.078,0.185l0.08,0.201l0.056,0.201l0.039,0.213l0.025,0.214l0.014,0.213l-0.014,0.227v0.065l-0.013,0.068v0.066v0.066
					l-0.013,0.068l-0.014,0.186v0.12l-0.013,0.053v0.053v0.054v0.053l-0.013,0.054v0.039V43.4l-0.269,2.241l-0.373,2.173
					l-0.453,2.135l-0.547,2.067l-0.642,2.014l-0.734,1.962l-0.826,1.907l-0.906,1.828l-1.001,1.787l-1.081,1.708l-1.172,1.642
					l-1.27,1.587l-1.347,1.507l-1.428,1.44l-1.52,1.375l-1.589,1.308l-1.693,1.228v0.013h-0.014l-0.013,0.013l-0.013,0.014
					l-0.014,0.013h-0.016h-0.013l-0.013,0.013l0,0l-0.014,0.015h-0.013l-0.013,0.013v0.015l-0.667,0.398l-0.681-0.398V73.4
					l-0.013-0.013h-0.016l-0.013-0.015l0,0l-0.014-0.013h-0.013h-0.013l-0.014-0.013l-0.013-0.014l-0.026-0.013v-0.013l-1.696-1.228
					l-1.586-1.308l-1.521-1.375l-1.429-1.44l-1.347-1.507l-1.267-1.587l-1.175-1.642l-1.078-1.708l-1.001-1.787l-0.906-1.828
					l-0.829-1.907l-0.719-1.962l-0.641-2.014l-0.548-2.067l-0.466-2.135l-0.362-2.173L94.673,43.4v-0.042l-0.014-0.039v-0.054
					v-0.053l-0.013-0.054v-0.053l-0.013-0.053v-0.054v-0.066l-0.014-0.053v-0.068v-0.065l-0.016-0.068v-0.066l-0.013-0.066v-0.068
					v-0.065l-0.013-0.227l0.013-0.213l0.028-0.214l0.039-0.213l0.053-0.201l0.081-0.201l0.08-0.185l0.107-0.188l0.106-0.173
					l0.12-0.16l0.146-0.146l0.148-0.148l0.159-0.12l0.159-0.12l0.188-0.107l0.188-0.079l0.2-0.08l0.279-0.094l0.388-0.133
					l0.479-0.175l0.561-0.213l0.628-0.24l0.706-0.266l0.761-0.281l0.813-0.32l0.868-0.333l0.906-0.347l0.933-0.359l0.962-0.374
					l0.987-0.387l0.987-0.386l0.987-0.388l1.001-0.386l0.972-0.388l0.161-0.052l0.146-0.055l0.161-0.052l0.146-0.055l0.158-0.039
					l0.162-0.054l0.159-0.027l0.161-0.039l0.159-0.027l0.161-0.027l0.159-0.026l0.161-0.013l0.159-0.026h0.159l0.161-0.013
					l0.172-0.014h0.162h0.158L112.643,34.063z M109.654,50.603h-6.871v5.47h6.965v7.337h5.148v-7.431h6.964v-5.417h-6.99v-7.376
					h-5.216V50.603z"/>
			</g>
		</g>
	</g>
	<g>
		<g>
			<path id="c3SZSjRRKV" fill="#FF5103" d="M135.945,76.161c-6.242,5.137-14.26,8.179-22.85,8.179c-0.026,0-0.188,0-0.2,0
				c-18.809-0.107-34.283-14.567-35.604-33.084c-7.498-1.76-9.152-11.485-9.232-11.912c-0.094-0.52-0.041-1.08,0.159-1.587
				c-1.826-5.362-3.694-11.018-5.575-16.794c-0.987-3.108-0.667-6.537,0.907-9.378c1.36-2.455,3.509-4.189,6.057-4.842
				c0.398-0.094,0.813-0.254,1.24-0.427c0.733-0.293,1.493-0.6,2.361-0.667c0.12-0.013,0.213-0.013,0.32-0.013
				c0.88,0,1.681,0.32,2.267,0.907c0.603,0.587,0.923,1.428,0.907,2.348c0,2.082-1.934,3.334-3.828,3.334c-0.013,0-0.12,0-0.133,0
				c-0.693-0.026-1.214-0.266-1.628-0.453c-0.227-0.107-0.413-0.187-0.6-0.227c-0.508-0.12-0.987,0.28-1.481,0.721
				c-2.108,1.881-2.788,4.295-1.948,6.963c1.907,5.951,4.07,11.847,5.737,16.354c0.065,0.107,0.653,0.921,0.719,1.028
				c0.466,0.455,0.761,1.041,0.867,1.667c0,0.014,0.014,0.041,0.014,0.041c0.213,1.026,0.56,2.16,0.988,3.108
				c0.025,0.066,0.094,0.201,0.146,0.321c0.039,0.092,0.094,0.199,0.146,0.306c1.017,2.001,2.309,3.042,3.791,3.108
				c0.014,0,0.065,0,0.172,0l0.055,0.013c0.065,0,0.107,0,0.12,0c0.933,0,4.108-0.507,5.136-6.843c0.172-1.013,0.8-1.855,1.68-2.308
				c0.053-0.146,0.479-1.267,0.534-1.399c0.988-2.588,1.96-5.19,2.935-7.805c0.268-0.733,0.572-1.494,0.894-2.268
				c1.375-3.322,2.801-6.736,1.495-9.71c-0.936-2.107-1.988-3.322-2.91-3.322c-0.292,0.013-0.651,0.146-1.026,0.279
				c-0.519,0.201-1.079,0.414-1.762,0.414c-0.479,0-0.933-0.106-1.359-0.32c-1.655-0.813-1.976-1.974-2.027-2.614
				c-0.107-1.188,0.56-2.375,1.813-3.269c0.481-0.36,1.042-0.521,1.642-0.521c1.175,0,2.282,0.64,3.176,1.161
				c0.172,0.094,0.333,0.2,0.492,0.28c1.401,0.747,3.002,1.641,4.43,2.868c1.975,1.735,2.959,4.429,2.826,7.605
				c-0.052,1.426-0.32,2.881-0.745,4.188c-0.894,2.602-1.815,5.215-2.709,7.737c-0.826,2.322-1.668,4.656-2.468,7.003
				c-0.214,0.586-0.401,1.188-0.586,1.774c0.094,0.4,0.106,0.813,0.052,1.227c-1.292,7.738-5.375,10.539-7.962,11.553
				c0,0.787,0.026,1.441,0.091,2.082c0.894,6.295,3.788,12.071,8.393,16.675c3.749,3.748,8.431,6.443,13.54,7.777
				c2.48,0.667,5.055,1.001,7.684,1.001c16.514,0,29.947-13.314,29.947-29.696c0-5.817-1.827-11.553-5.148-16.461
				c1.787-1.041,3.28-2.521,4.349-4.269c0.56,0.748,1.081,1.535,1.573,2.322c2.254,3.708,3.802,7.751,4.588,12.006
				c0.815,4.348,0.79,8.765-0.052,13.113C146.725,63.809,142.217,71.025,135.945,76.161z"/>
		</g>
		<g>
			<g>
				<path id="c3SZSjRRKV_1_" fill-opacity="0" stroke="#000000" stroke-opacity="0" d="M135.945,76.161
					c-6.242,5.137-14.26,8.179-22.85,8.179c-0.026,0-0.188,0-0.2,0c-18.809-0.107-34.283-14.567-35.604-33.084
					c-7.498-1.76-9.152-11.485-9.232-11.912c-0.094-0.52-0.041-1.08,0.159-1.587c-1.826-5.362-3.694-11.018-5.575-16.794
					c-0.987-3.108-0.667-6.537,0.907-9.378c1.36-2.455,3.509-4.189,6.057-4.842c0.398-0.094,0.813-0.254,1.24-0.427
					c0.733-0.293,1.493-0.6,2.361-0.667c0.12-0.013,0.213-0.013,0.32-0.013c0.88,0,1.681,0.32,2.267,0.907
					c0.603,0.587,0.923,1.428,0.907,2.348c0,2.082-1.934,3.334-3.828,3.334c-0.013,0-0.12,0-0.133,0
					c-0.693-0.026-1.214-0.266-1.628-0.453c-0.227-0.107-0.413-0.187-0.6-0.227c-0.508-0.12-0.987,0.28-1.481,0.721
					c-2.108,1.881-2.788,4.295-1.948,6.963c1.907,5.951,4.07,11.847,5.737,16.354c0.065,0.107,0.653,0.921,0.719,1.028
					c0.466,0.455,0.761,1.041,0.867,1.667c0,0.014,0.014,0.041,0.014,0.041c0.213,1.026,0.56,2.16,0.988,3.108
					c0.025,0.066,0.094,0.201,0.146,0.321c0.039,0.092,0.094,0.199,0.146,0.306c1.017,2.001,2.309,3.042,3.791,3.108
					c0.014,0,0.065,0,0.172,0l0.055,0.013c0.065,0,0.107,0,0.12,0c0.933,0,4.108-0.507,5.136-6.843
					c0.172-1.013,0.8-1.855,1.68-2.308c0.053-0.146,0.479-1.267,0.534-1.399c0.988-2.588,1.96-5.19,2.935-7.805
					c0.268-0.733,0.572-1.494,0.894-2.268c1.375-3.322,2.801-6.736,1.495-9.71c-0.936-2.107-1.988-3.322-2.91-3.322
					c-0.292,0.013-0.651,0.146-1.026,0.279c-0.519,0.201-1.079,0.414-1.762,0.414c-0.479,0-0.933-0.106-1.359-0.32
					c-1.655-0.813-1.976-1.974-2.027-2.614c-0.107-1.188,0.56-2.375,1.813-3.269c0.481-0.36,1.042-0.521,1.642-0.521
					c1.175,0,2.282,0.64,3.176,1.161c0.172,0.094,0.333,0.2,0.492,0.28c1.401,0.747,3.002,1.641,4.43,2.868
					c1.975,1.735,2.959,4.429,2.826,7.605c-0.052,1.426-0.32,2.881-0.745,4.188c-0.894,2.602-1.815,5.215-2.709,7.737
					c-0.826,2.322-1.668,4.656-2.468,7.003c-0.214,0.586-0.401,1.188-0.586,1.774c0.094,0.4,0.106,0.813,0.052,1.227
					c-1.292,7.738-5.375,10.539-7.962,11.553c0,0.787,0.026,1.441,0.091,2.082c0.894,6.295,3.788,12.071,8.393,16.675
					c3.749,3.748,8.431,6.443,13.54,7.777c2.48,0.667,5.055,1.001,7.684,1.001c16.514,0,29.947-13.314,29.947-29.696
					c0-5.817-1.827-11.553-5.148-16.461c1.787-1.041,3.28-2.521,4.349-4.269c0.56,0.748,1.081,1.535,1.573,2.322
					c2.254,3.708,3.802,7.751,4.588,12.006c0.815,4.348,0.79,8.765-0.052,13.113C146.725,63.809,142.217,71.025,135.945,76.161z"/>
			</g>
		</g>
	</g>
	<g>
		<g>
			<path id="b3N0Z2g9Q1" fill="#FF5103" d="M128.783,12.544c-5.058,0-9.166,4.349-9.166,9.725c0,5.363,4.108,9.712,9.166,9.712
				c5.055,0,9.163-4.349,9.163-9.712C137.946,16.893,133.838,12.544,128.783,12.544z"/>
		</g>
		<g>
			<g>
				<path id="b3N0Z2g9Q1_1_" fill-opacity="0" stroke="#000000" stroke-opacity="0" d="M128.783,12.544
					c-5.058,0-9.166,4.349-9.166,9.725c0,5.363,4.108,9.712,9.166,9.712c5.055,0,9.163-4.349,9.163-9.712
					C137.946,16.893,133.838,12.544,128.783,12.544z"/>
			</g>
		</g>
	</g>
</g>
</svg>
