<?xml version="1.0" encoding="utf-8"?>
<!-- Generator: Adobe Illustrator 16.0.0, SVG Export Plug-In . SVG Version: 6.00 Build 0)  -->
<!DOCTYPE svg PUBLIC "-//W3C//DTD SVG 1.1//EN" "http://www.w3.org/Graphics/SVG/1.1/DTD/svg11.dtd">
<svg version="1.1" id="Layer_1" xmlns="http://www.w3.org/2000/svg" xmlns:xlink="http://www.w3.org/1999/xlink" x="0px" y="0px"
	 width="150px" height="150px" viewBox="0 0 150 150" enable-background="new 0 0 150 150" xml:space="preserve">
<g>
	<g>
		<path fill-rule="evenodd" clip-rule="evenodd" fill="#FF5103" d="M143.499,37.511c0.22,1.441,0.188,2.942,0.263,4.397
			c0.07,1.785,0.101,3.535,0.133,5.288c0.04,3.286-0.001,6.507,0.039,9.792c-1.325-0.416-2.852-0.262-4.127,0.159
			c-1.923,0.56-3.669,1.795-5.213,3.193c-0.497-1.997,0.354-4.092,0.891-6.046c0.617-2.222,0.533-4.479,0.59-6.823
			c0.063-2.273,0.305-4.601,1.687-6.531C139.01,39.169,141.187,37.488,143.499,37.511L143.499,37.511z M126.948,66.667l0.033-0.04
			l-0.042-0.033L126.948,66.667L126.948,66.667z M132.683,78.771c-0.064,0.08-0.13,0.159-0.202,0.168
			c-0.433,0.445-0.791,0.883-1.221,1.33l-1.061,1.13c0,0-0.091,0.189-0.129,0.159c-0.523,0.637-1.044,1.274-1.528,1.944l-0.513,0.71
			c-0.45,0.629-0.866,1.222-1.276,1.883c-1.754,2.955-3.013,6.115-3.81,9.447c-0.127,0.563-1.021,0.434-0.894-0.126
			c0.868-3.743,2.271-7.249,4.366-10.457c1.551-2.458,3.489-4.664,5.516-6.733c0.032-0.041,0.065-0.08,0.098-0.119
			c0.334-0.324,0.634-0.612,0.936-0.897c2.067-2.036,4.271-3.828,6.296-5.899c2.028-2.066,3.992-4.386,4.993-7.155
			c0.779-2.088,2.004-5.209-0.611-6.409c-2.501-1.171-4.763,0.771-6.854,2.189c-2.703,1.917-4.863,4.475-6.946,7.097
			c-2.003,2.615-4.574,4.773-6.701,7.292c-2.037,2.326-4.948,4.007-7.916,5.109c-0.032,0.04-0.07,0.009-0.104,0.049
			c0,0-0.032,0.039-0.074,0.005l0,0c0,0,0,0-0.032,0.041c-10.117,2.921-16.756,11.593-22.607,20.772
			c-3.916,6.242-8.773,11.85-9.347,19.218c-0.218,3.274,0.071,6.501,0.328,9.763c0.023,0.218,0.037,0.363,0.062,0.581l22.214,2.147
			c0.053-0.954,0.181-1.846,0.31-2.737c0.623-3.277,2.053-6.164,4.181-8.68c2.16-2.558,4.755-4.83,7.41-6.851
			c2.955-2.308,6.038-4.446,9.073-6.691c3.045-2.17,6.047-4.373,8.846-6.81c2.722-2.433,5.417-5.152,7.029-8.421
			c0,0,0.034-0.04,0.066-0.08c0.562-3.857,0.197-7.806-0.158-11.681c-0.229-1.914-0.429-3.869-0.481-5.838
			c-0.043-1.494-0.123-3.021,0.053-4.537c-2.25,2.749-5.062,5.043-7.673,7.497L132.683,78.771z M132.479,42.021
			c-0.541,1.883-0.588,3.968-0.573,5.906c-0.055,1.284-0.033,2.563-0.089,3.847c-0.117,1.364-0.277,2.696-0.469,4.068
			c-0.315,2.665-0.656,5.44-0.095,8.088c-1.077,1.315-2.074,2.695-3.031,4.104c-0.214-2.097-0.063-4.232,0.089-6.367
			c0.119-2.426-0.008-4.788-0.146-7.224c-0.201-2.355-0.227-4.767,0.498-7.031c0.456-1.29,1.136-2.528,2.05-3.645
			C131.235,43.132,131.799,42.528,132.479,42.021L132.479,42.021z M138.293,36.794c0.342,0.476,0.44,1.087,0.606,1.62
			c-0.472,0.413-0.943,0.827-1.335,1.304c-1.752,1.893-2.263,4.467-2.377,6.964c-0.113,2.498,0.03,5.005-0.638,7.448
			c-0.611,2.292-1.446,4.533-0.73,6.908l0,0c-0.462,0.486-0.929,0.972-1.352,1.489c-0.17,0.127-0.333,0.327-0.463,0.486
			c-0.301-2.238-0.053-4.492,0.235-6.715c0.3-2.478,0.534-4.877,0.573-7.368c-0.032-2.482,0.001-5.045,0.825-7.429
			C134.344,39.421,135.938,37.066,138.293,36.794L138.293,36.794z"/>
		<polygon fill-rule="evenodd" clip-rule="evenodd" fill="#FF5103" points="77.477,126.66 76.396,138.064 109.861,141.202 
			110.941,129.797 		"/>
	</g>
	<polygon fill-rule="evenodd" clip-rule="evenodd" fill="#FF5103" points="76.523,136.773 76.396,138.064 109.861,141.202 
		109.987,139.909 	"/>
</g>
<g>
	<g>
		<path fill-rule="evenodd" clip-rule="evenodd" fill="#FF5103" d="M5.185,37.511c2.312-0.023,4.488,1.658,5.738,3.43
			c1.383,1.93,1.623,4.258,1.686,6.531c0.056,2.344-0.026,4.601,0.591,6.823c0.536,1.954,1.388,4.049,0.89,6.046
			c-1.544-1.398-3.29-2.633-5.212-3.193c-1.276-0.421-2.801-0.575-4.127-0.159c0.04-3.285-0.001-6.506,0.039-9.792
			c0.032-1.753,0.062-3.503,0.133-5.288C4.997,40.453,4.965,38.952,5.185,37.511L5.185,37.511z M21.735,66.667l0.009-0.073
			l-0.041,0.033L21.735,66.667L21.735,66.667z M14.364,77.182c-2.612-2.454-5.423-4.749-7.673-7.497
			c0.176,1.516,0.096,3.043,0.053,4.537c-0.052,1.969-0.25,3.924-0.482,5.838c-0.355,3.875-0.719,7.823-0.157,11.681
			c0.032,0.04,0.065,0.08,0.065,0.08c1.612,3.269,4.308,5.988,7.03,8.421c2.798,2.437,5.801,4.64,8.845,6.81
			c3.036,2.245,6.119,4.384,9.072,6.691c2.658,2.021,5.25,4.293,7.412,6.851c2.128,2.516,3.557,5.402,4.18,8.68
			c0.13,0.892,0.258,1.783,0.31,2.737l22.214-2.147c0.023-0.218,0.038-0.363,0.061-0.581c0.257-3.262,0.547-6.488,0.329-9.763
			c-0.573-7.368-5.431-12.976-9.346-19.218c-5.853-9.18-12.491-17.852-22.608-20.772c-0.032-0.041-0.032-0.041-0.032-0.041l0,0
			c-0.041,0.034-0.074-0.005-0.074-0.005c-0.033-0.04-0.072-0.009-0.104-0.049c-2.968-1.103-5.878-2.783-7.916-5.109
			c-2.126-2.519-4.697-4.676-6.702-7.292c-2.083-2.622-4.243-5.18-6.946-7.097c-2.091-1.418-4.353-3.36-6.854-2.189
			c-2.614,1.2-1.39,4.32-0.611,6.409c1.001,2.77,2.965,5.089,4.994,7.155c2.024,2.071,4.228,3.863,6.294,5.899
			c0.302,0.285,0.602,0.573,0.937,0.897c0.032,0.039,0.065,0.078,0.098,0.119c2.025,2.069,3.965,4.275,5.516,6.733
			c2.094,3.208,3.498,6.714,4.365,10.457c0.128,0.56-0.766,0.688-0.892,0.126c-0.798-3.332-2.056-6.492-3.81-9.447
			c-0.41-0.661-0.826-1.254-1.276-1.883l-0.513-0.71c-0.484-0.67-1.005-1.308-1.528-1.944c-0.039,0.03-0.13-0.159-0.13-0.159
			l-1.06-1.13c-0.43-0.447-0.789-0.885-1.221-1.33c-0.072-0.009-0.138-0.088-0.203-0.168L14.364,77.182z M16.204,42.021
			c0.681,0.507,1.244,1.11,1.767,1.748c0.914,1.116,1.593,2.354,2.048,3.645c0.725,2.264,0.7,4.675,0.499,7.031
			c-0.139,2.436-0.265,4.797-0.146,7.224c0.151,2.135,0.302,4.27,0.088,6.367c-0.957-1.409-1.954-2.79-3.032-4.104
			c0.562-2.648,0.22-5.424-0.094-8.088c-0.192-1.373-0.352-2.704-0.468-4.068c-0.056-1.284-0.035-2.563-0.09-3.847
			C16.791,45.99,16.745,43.905,16.204,42.021L16.204,42.021z M10.39,36.794c2.356,0.271,3.95,2.627,4.655,4.708
			c0.823,2.384,0.857,4.947,0.825,7.429c0.04,2.491,0.274,4.89,0.574,7.368c0.288,2.223,0.537,4.477,0.236,6.715
			c-0.131-0.16-0.293-0.359-0.462-0.486c-0.424-0.518-0.89-1.003-1.353-1.489l0,0c0.716-2.375-0.12-4.617-0.73-6.908
			c-0.669-2.443-0.525-4.951-0.639-7.448c-0.113-2.497-0.624-5.071-2.376-6.964c-0.391-0.477-0.863-0.891-1.334-1.304
			C9.95,37.882,10.049,37.271,10.39,36.794L10.39,36.794z"/>
		<polygon fill-rule="evenodd" clip-rule="evenodd" fill="#FF5103" points="71.207,126.66 72.287,138.064 38.823,141.202 
			37.742,129.797 		"/>
	</g>
	<polygon fill-rule="evenodd" clip-rule="evenodd" fill="#FF5103" points="72.16,136.773 72.287,138.064 38.823,141.202 
		38.696,139.909 	"/>
</g>
<g>
	<g>
		<path fill-rule="evenodd" clip-rule="evenodd" fill="#FF5103" d="M77.544,75.666c-0.593-0.673-1.119-1.286-1.661-1.885
			c-4.088-4.52-8.789-8.367-13.49-12.213c-4.949-4.049-9.926-8.068-14.234-12.825c-4.137-4.569-7.425-9.645-9.197-15.593
			c-1.03-3.457-1.791-6.972-1.443-10.619c0.46-4.806,2.613-8.804,6.119-12.046C48.68,5.82,54.684,3.651,61.555,4.311
			c5.42,0.52,9.869,3.121,13.585,7.012c0.848,0.887,1.6,1.863,2.413,2.818c1.573-2.209,3.44-4.124,5.621-5.743
			c13.304-9.883,31.646-1.259,34.068,13.983c0.768,4.826-0.258,9.291-2.495,13.548c-2.397,4.563-5.602,8.545-9.236,12.147
			c-4.958,4.916-10.063,9.684-15.146,14.475c-4.347,4.099-8.684,8.205-12.56,12.762C77.725,75.408,77.658,75.512,77.544,75.666z
			 M80.172,58.034c1.303-0.237,2.534-0.382,3.724-0.69c4.348-1.127,7.117-4.065,7.594-8.072c0.538-4.521-0.89-7.822-5.297-9.735
			c-1.734-0.752-3.571-1.272-5.377-1.849c-0.475-0.152-0.667-0.323-0.657-0.849c0.033-2.094,0.011-4.188,0.017-6.283
			c0-0.207,0.037-0.414,0.062-0.652c1.631,0.267,3.04,0.9,4.42,1.619c0.501,0.261,1.009,0.537,1.546,0.695
			c1.713,0.504,3.391-0.218,4.137-1.728c0.743-1.502,0.316-3.184-1.154-4.246c-1.565-1.131-3.243-2.084-5.127-2.583
			c-1.258-0.333-2.542-0.564-3.887-0.858c0-1.02-0.018-2.076,0.008-3.131c0.013-0.573-0.208-0.788-0.787-0.775
			c-1.284,0.029-2.57,0.034-3.855-0.001c-0.637-0.019-0.814,0.25-0.801,0.835c0.027,1.13,0.009,2.263,0.009,3.424
			c-0.274,0.072-0.509,0.14-0.746,0.196c-2.059,0.492-4.001,1.261-5.725,2.505c-3.155,2.277-4.498,5.341-3.866,9.191
			c0.474,2.883,2.266,4.857,4.774,6.116c1.57,0.788,3.307,1.255,4.991,1.797c0.451,0.145,0.581,0.311,0.577,0.752
			c-0.019,2.168-0.006,4.336-0.012,6.504c0,0.159-0.043,0.318-0.071,0.518c-0.222-0.04-0.401-0.041-0.552-0.103
			c-1.522-0.629-3.042-1.264-4.559-1.908c-0.566-0.241-1.099-0.578-1.682-0.757c-2.199-0.681-4.181,0.551-4.506,2.759
			c-0.276,1.879,0.545,3.484,2.269,4.318c2.249,1.088,4.571,1.978,7.04,2.443c0.671,0.126,1.345,0.244,2.065,0.375
			c0,1.13,0.021,2.212-0.01,3.292c-0.017,0.614,0.223,0.826,0.83,0.811c1.26-0.032,2.521-0.032,3.781,0
			c0.603,0.015,0.852-0.192,0.834-0.809C80.148,60.125,80.172,59.092,80.172,58.034z"/>
	</g>
	<path fill-rule="evenodd" clip-rule="evenodd" fill="#FF5103" d="M80.208,51.19c0-2.294,0-4.499,0-6.793
		c1.556,0.378,2.998,0.875,3.969,2.201c0.608,0.83,0.536,2.081-0.105,2.896C83.112,50.713,81.789,51.118,80.208,51.19z"/>
	<path fill-rule="evenodd" clip-rule="evenodd" fill="#FF5103" d="M74.722,30.196c0,1.969,0,3.88,0,5.792
		c-1.291-0.021-2.657-1.197-2.789-2.381C71.76,32.06,72.938,30.589,74.722,30.196z"/>
</g>
</svg>
