<?xml version="1.0" encoding="UTF-8" standalone="no"?>
<!DOCTYPE svg PUBLIC "-//W3C//DTD SVG 1.1//EN" "http://www.w3.org/Graphics/SVG/1.1/DTD/svg11.dtd">
<svg version="1.1" xmlns="http://www.w3.org/2000/svg" xmlns:xlink="http://www.w3.org/1999/xlink" preserveAspectRatio="xMidYMid meet" viewBox="159.18000000000004 168.595379056154 121.800803642408 106.11462094384632" width="117.8" height="102.11"><defs><path d="M198.46 208.04C198.51 208 198.51 207.95 198.46 207.91C198.46 207.95 198.46 208.1 198.46 208.12C198.46 208.11 198.46 208.08 198.46 208.04Z" id="fI7gLsjxx"></path><path d="M198.46 208.04C198.51 208 198.51 207.95 198.46 207.91C198.46 207.95 198.46 208.1 198.46 208.12C198.46 208.11 198.46 208.08 198.46 208.04Z" id="dzs8sYyJx"></path><path d="M222.63 195.43L222.7 195.45L222.77 195.47L222.82 195.49L222.87 195.52L222.91 195.54L222.95 195.57L223.02 195.63L223.05 195.67L223.08 195.7L223.1 195.74L223.12 195.78L223.13 195.82L223.14 195.85L223.15 195.9L223.15 195.98L223.14 196.02L223.11 196.11L223.09 196.15L222.77 197.24L223.23 197.42L223.67 197.63L224.07 197.86L224.44 198.11L224.78 198.37L225.09 198.65L225.36 198.94L225.61 199.24L225.82 199.55L226.01 199.87L226.16 200.19L226.28 200.51L226.37 200.83L226.44 201.16L226.47 201.48L226.47 201.79L226.44 202.11L226.39 202.4L226.3 202.69L226.13 203.11L225.93 203.5L225.7 203.84L225.43 204.14L225.15 204.4L224.84 204.64L224.51 204.83L224.16 205L223.8 205.14L223.42 205.26L223.03 205.36L222.63 205.44L222.21 205.5L221.8 205.54L221.38 205.59L220.96 205.62L220.55 205.64L220.12 205.66L219.72 205.68L217.47 211.95L217.84 212.04L218.2 212.1L218.55 212.14L218.87 212.17L219.19 212.17L219.48 212.16L219.77 212.13L220.04 212.1L220.29 212.05L220.55 212L220.78 211.95L221.01 211.9L221.22 211.86L221.42 211.82L221.61 211.79L221.79 211.77L221.97 211.76L222.13 211.78L222.29 211.81L222.38 211.83L222.47 211.86L222.63 211.95L222.7 212L222.75 212.05L222.81 212.1L222.89 212.23L222.92 212.3L222.95 212.37L222.98 212.53L222.99 212.61L222.99 212.69L222.98 212.78L222.93 213.03L222.86 213.18L222.75 213.32L222.59 213.44L222.41 213.56L222.19 213.67L221.95 213.76L221.66 213.84L221.36 213.91L221.03 213.96L220.68 214.01L220.32 214.03L219.94 214.05L219.54 214.05L219.13 214.03L218.71 214.01L218.29 213.96L217.86 213.89L217.42 213.81L216.99 213.72L216.67 214.8L216.62 214.89L216.6 214.92L216.56 214.96L216.54 214.99L216.47 215.04L216.41 215.09L216.33 215.11L216.29 215.12L216.24 215.13L216.13 215.13L216.07 215.12L216.01 215.11L215.94 215.09L215.87 215.07L215.77 215.03L215.65 214.94L215.58 214.87L215.54 214.8L215.5 214.73L215.49 214.65L215.49 214.57L215.5 214.48L215.53 214.44L215.54 214.4L216.03 213.17L215.51 212.96L215.04 212.73L214.6 212.49L214.2 212.22L213.83 211.92L213.5 211.62L213.21 211.29L212.95 210.96L212.74 210.61L212.55 210.25L212.4 209.88L212.29 209.5L212.22 209.12L212.18 208.73L212.17 208.34L212.2 207.95L212.27 207.55L212.36 207.16L212.5 206.77L212.67 206.32L212.87 205.91L213.1 205.55L213.36 205.23L213.65 204.95L213.96 204.7L214.29 204.48L214.65 204.29L215.02 204.14L215.4 204L215.8 203.89L216.22 203.8L216.64 203.72L217.07 203.66L217.49 203.61L217.93 203.58L218.37 203.55L218.81 203.53L219.23 203.51L221.01 198.47L220.71 198.43L220.43 198.41L220.18 198.41L219.95 198.42L219.72 198.44L219.51 198.46L219.32 198.5L218.96 198.58L218.64 198.67L218.49 198.7L218.34 198.74L218.2 198.77L218.05 198.79L217.92 198.8L217.77 198.79L217.62 198.77L217.47 198.74L217.37 198.71L217.28 198.68L217.2 198.65L217.13 198.6L217 198.5L216.9 198.39L216.84 198.26L216.81 198.2L216.79 198.13L216.78 198.06L216.77 197.99L216.77 197.92L216.79 197.78L216.81 197.72L216.83 197.65L216.9 197.5L216.99 197.37L217.12 197.25L217.27 197.14L217.45 197.04L217.65 196.95L217.87 196.87L218.12 196.81L218.38 196.75L218.66 196.71L218.95 196.68L219.26 196.66L219.57 196.65L219.91 196.65L220.25 196.66L220.59 196.69L220.94 196.73L221.29 196.77L221.65 196.83L221.97 195.74L221.99 195.7L222.07 195.59L222.1 195.56L222.16 195.51L222.2 195.48L222.23 195.46L222.35 195.42L222.5 195.42L222.56 195.43L222.63 195.43ZM216.25 205.99L215.37 206.54L214.74 207.45L214.5 208.66L214.73 209.78L215.4 210.72L216.51 211.4L218.59 205.54L217.34 205.69L216.25 205.99ZM221.82 203.36L222.79 203.09L223.55 202.62L224.05 201.87L224.18 200.96L223.89 200.12L223.24 199.4L222.29 198.87L220.68 203.51L221.82 203.36Z" id="hmujsZeP3"></path><path d="M222.63 195.43L222.7 195.45L222.77 195.47L222.82 195.49L222.87 195.52L222.91 195.54L222.95 195.57L223.02 195.63L223.05 195.67L223.08 195.7L223.1 195.74L223.12 195.78L223.13 195.82L223.14 195.85L223.15 195.9L223.15 195.98L223.14 196.02L223.11 196.11L223.09 196.15L222.77 197.24L223.23 197.42L223.67 197.63L224.07 197.86L224.44 198.11L224.78 198.37L225.09 198.65L225.36 198.94L225.61 199.24L225.82 199.55L226.01 199.87L226.16 200.19L226.28 200.51L226.37 200.83L226.44 201.16L226.47 201.48L226.47 201.79L226.44 202.11L226.39 202.4L226.3 202.69L226.13 203.11L225.93 203.5L225.7 203.84L225.43 204.14L225.15 204.4L224.84 204.64L224.51 204.83L224.16 205L223.8 205.14L223.42 205.26L223.03 205.36L222.63 205.44L222.21 205.5L221.8 205.54L221.38 205.59L220.96 205.62L220.55 205.64L220.12 205.66L219.72 205.68L217.47 211.95L217.84 212.04L218.2 212.1L218.55 212.14L218.87 212.17L219.19 212.17L219.48 212.16L219.77 212.13L220.04 212.1L220.29 212.05L220.55 212L220.78 211.95L221.01 211.9L221.22 211.86L221.42 211.82L221.61 211.79L221.79 211.77L221.97 211.76L222.13 211.78L222.29 211.81L222.38 211.83L222.47 211.86L222.63 211.95L222.7 212L222.75 212.05L222.81 212.1L222.89 212.23L222.92 212.3L222.95 212.37L222.98 212.53L222.99 212.61L222.99 212.69L222.98 212.78L222.93 213.03L222.86 213.18L222.75 213.32L222.59 213.44L222.41 213.56L222.19 213.67L221.95 213.76L221.66 213.84L221.36 213.91L221.03 213.96L220.68 214.01L220.32 214.03L219.94 214.05L219.54 214.05L219.13 214.03L218.71 214.01L218.29 213.96L217.86 213.89L217.42 213.81L216.99 213.72L216.67 214.8L216.62 214.89L216.6 214.92L216.56 214.96L216.54 214.99L216.47 215.04L216.41 215.09L216.33 215.11L216.29 215.12L216.24 215.13L216.13 215.13L216.07 215.12L216.01 215.11L215.94 215.09L215.87 215.07L215.77 215.03L215.65 214.94L215.58 214.87L215.54 214.8L215.5 214.73L215.49 214.65L215.49 214.57L215.5 214.48L215.53 214.44L215.54 214.4L216.03 213.17L215.51 212.96L215.04 212.73L214.6 212.49L214.2 212.22L213.83 211.92L213.5 211.62L213.21 211.29L212.95 210.96L212.74 210.61L212.55 210.25L212.4 209.88L212.29 209.5L212.22 209.12L212.18 208.73L212.17 208.34L212.2 207.95L212.27 207.55L212.36 207.16L212.5 206.77L212.67 206.32L212.87 205.91L213.1 205.55L213.36 205.23L213.65 204.95L213.96 204.7L214.29 204.48L214.65 204.29L215.02 204.14L215.4 204L215.8 203.89L216.22 203.8L216.64 203.72L217.07 203.66L217.49 203.61L217.93 203.58L218.37 203.55L218.81 203.53L219.23 203.51L221.01 198.47L220.71 198.43L220.43 198.41L220.18 198.41L219.95 198.42L219.72 198.44L219.51 198.46L219.32 198.5L218.96 198.58L218.64 198.67L218.49 198.7L218.34 198.74L218.2 198.77L218.05 198.79L217.92 198.8L217.77 198.79L217.62 198.77L217.47 198.74L217.37 198.71L217.28 198.68L217.2 198.65L217.13 198.6L217 198.5L216.9 198.39L216.84 198.26L216.81 198.2L216.79 198.13L216.78 198.06L216.77 197.99L216.77 197.92L216.79 197.78L216.81 197.72L216.83 197.65L216.9 197.5L216.99 197.37L217.12 197.25L217.27 197.14L217.45 197.04L217.65 196.95L217.87 196.87L218.12 196.81L218.38 196.75L218.66 196.71L218.95 196.68L219.26 196.66L219.57 196.65L219.91 196.65L220.25 196.66L220.59 196.69L220.94 196.73L221.29 196.77L221.65 196.83L221.97 195.74L221.99 195.7L222.07 195.59L222.1 195.56L222.16 195.51L222.2 195.48L222.23 195.46L222.35 195.42L222.5 195.42L222.56 195.43L222.63 195.43ZM216.25 205.99L215.37 206.54L214.74 207.45L214.5 208.66L214.73 209.78L215.4 210.72L216.51 211.4L218.59 205.54L217.34 205.69L216.25 205.99ZM221.82 203.36L222.79 203.09L223.55 202.62L224.05 201.87L224.18 200.96L223.89 200.12L223.24 199.4L222.29 198.87L220.68 203.51L221.82 203.36Z" id="ayh1yFSNv"></path><path d="M237.98 251.47L238.03 251.49L238.07 251.52L238.1 251.55L238.12 251.59L238.14 251.63L238.16 251.67L238.17 251.75L238.17 251.86L237.86 252.54L238.34 252.75L238.78 252.98L239.16 253.25L239.49 253.52L239.77 253.82L240 254.13L240.19 254.46L240.32 254.79L240.42 255.11L240.48 255.44L240.49 255.76L240.48 256.07L240.42 256.36L240.24 256.79L240.02 257.16L239.77 257.47L239.47 257.72L239.13 257.92L238.76 258.08L238.37 258.2L237.97 258.28L237.54 258.34L237.1 258.37L236.66 258.39L236.21 258.4L235.77 258.4L234.17 262.75L234.52 262.83L234.87 262.87L235.19 262.89L235.51 262.88L235.8 262.85L236.08 262.81L236.33 262.77L236.58 262.72L236.8 262.67L237.01 262.63L237.2 262.61L237.38 262.6L237.53 262.62L237.64 262.65L237.72 262.7L237.79 262.75L237.86 262.81L237.9 262.87L237.97 263.01L238 263.16L238.01 263.23L238.01 263.43L237.91 263.58L237.76 263.72L237.56 263.84L237.31 263.94L237.02 264.02L236.7 264.08L236.35 264.12L235.97 264.13L235.57 264.13L235.15 264.09L234.72 264.04L234.29 263.95L233.84 263.85L233.52 264.53L233.52 264.56L233.5 264.58L233.48 264.62L233.45 264.65L233.4 264.68L233.36 264.7L233.32 264.73L233.27 264.74L233.22 264.76L233.12 264.79L233.08 264.8L233.04 264.8L232.97 264.79L232.91 264.78L232.86 264.75L232.82 264.73L232.79 264.7L232.77 264.66L232.75 264.63L232.73 264.58L232.73 264.54L232.73 264.5L232.72 264.46L232.72 264.39L233.04 263.57L232.55 263.36L232.1 263.12L231.71 262.84L231.37 262.55L231.09 262.22L230.85 261.86L230.67 261.49L230.53 261.11L230.45 260.71L230.42 260.31L230.43 259.9L230.51 259.49L230.63 259.08L230.84 258.62L231.1 258.22L231.4 257.89L231.73 257.62L232.09 257.4L232.49 257.22L232.91 257.1L233.34 256.99L233.79 256.92L234.25 256.86L234.7 256.83L235.15 256.8L235.61 256.76L236.89 253.22L236.61 253.2L236.35 253.2L236.12 253.22L235.91 253.25L235.71 253.28L235.53 253.32L235.36 253.37L235.06 253.42L234.91 253.44L234.77 253.44L234.63 253.41L234.48 253.36L234.38 253.32L234.29 253.29L234.2 253.25L234.07 253.15L234.02 253.08L233.99 253.02L233.96 252.95L233.95 252.88L233.94 252.8L233.95 252.72L233.97 252.63L234 252.54L234.03 252.48L234.11 252.43L234.24 252.38L234.41 252.34L234.61 252.31L234.85 252.28L235.12 252.26L235.41 252.26L235.72 252.26L236.04 252.28L236.38 252.31L236.71 252.35L237.05 252.41L237.37 251.72L237.38 251.7L237.39 251.67L237.42 251.63L237.48 251.58L237.53 251.55L237.57 251.53L237.62 251.5L237.77 251.46L237.82 251.45L237.86 251.45L237.92 251.46L237.98 251.47ZM233.22 258.81L232.61 259.22L232.24 259.9L232.05 260.7L232.2 261.46L232.64 262.12L233.36 262.62L234.8 258.53L233.97 258.59L233.22 258.81ZM237.18 256.87L237.9 256.63L238.38 256.32L238.66 255.94L238.75 255.34L238.55 254.77L238.09 254.28L237.37 253.91L236.25 257.04L237.18 256.87Z" id="a56HQbxuh3"></path><path d="M237.98 251.47L238.03 251.49L238.07 251.52L238.1 251.55L238.12 251.59L238.14 251.63L238.16 251.67L238.17 251.75L238.17 251.86L237.86 252.54L238.34 252.75L238.78 252.98L239.16 253.25L239.49 253.52L239.77 253.82L240 254.13L240.19 254.46L240.32 254.79L240.42 255.11L240.48 255.44L240.49 255.76L240.48 256.07L240.42 256.36L240.24 256.79L240.02 257.16L239.77 257.47L239.47 257.72L239.13 257.92L238.76 258.08L238.37 258.2L237.97 258.28L237.54 258.34L237.1 258.37L236.66 258.39L236.21 258.4L235.77 258.4L234.17 262.75L234.52 262.83L234.87 262.87L235.19 262.89L235.51 262.88L235.8 262.85L236.08 262.81L236.33 262.77L236.58 262.72L236.8 262.67L237.01 262.63L237.2 262.61L237.38 262.6L237.53 262.62L237.64 262.65L237.72 262.7L237.79 262.75L237.86 262.81L237.9 262.87L237.97 263.01L238 263.16L238.01 263.23L238.01 263.43L237.91 263.58L237.76 263.72L237.56 263.84L237.31 263.94L237.02 264.02L236.7 264.08L236.35 264.12L235.97 264.13L235.57 264.13L235.15 264.09L234.72 264.04L234.29 263.95L233.84 263.85L233.52 264.53L233.52 264.56L233.5 264.58L233.48 264.62L233.45 264.65L233.4 264.68L233.36 264.7L233.32 264.73L233.27 264.74L233.22 264.76L233.12 264.79L233.08 264.8L233.04 264.8L232.97 264.79L232.91 264.78L232.86 264.75L232.82 264.73L232.79 264.7L232.77 264.66L232.75 264.63L232.73 264.58L232.73 264.54L232.73 264.5L232.72 264.46L232.72 264.39L233.04 263.57L232.55 263.36L232.1 263.12L231.71 262.84L231.37 262.55L231.09 262.22L230.85 261.86L230.67 261.49L230.53 261.11L230.45 260.71L230.42 260.31L230.43 259.9L230.51 259.49L230.63 259.08L230.84 258.62L231.1 258.22L231.4 257.89L231.73 257.62L232.09 257.4L232.49 257.22L232.91 257.1L233.34 256.99L233.79 256.92L234.25 256.86L234.7 256.83L235.15 256.8L235.61 256.76L236.89 253.22L236.61 253.2L236.35 253.2L236.12 253.22L235.91 253.25L235.71 253.28L235.53 253.32L235.36 253.37L235.06 253.42L234.91 253.44L234.77 253.44L234.63 253.41L234.48 253.36L234.38 253.32L234.29 253.29L234.2 253.25L234.07 253.15L234.02 253.08L233.99 253.02L233.96 252.95L233.95 252.88L233.94 252.8L233.95 252.72L233.97 252.63L234 252.54L234.03 252.48L234.11 252.43L234.24 252.38L234.41 252.34L234.61 252.31L234.85 252.28L235.12 252.26L235.41 252.26L235.72 252.26L236.04 252.28L236.38 252.31L236.71 252.35L237.05 252.41L237.37 251.72L237.38 251.7L237.39 251.67L237.42 251.63L237.48 251.58L237.53 251.55L237.57 251.53L237.62 251.5L237.77 251.46L237.82 251.45L237.86 251.45L237.92 251.46L237.98 251.47ZM233.22 258.81L232.61 259.22L232.24 259.9L232.05 260.7L232.2 261.46L232.64 262.12L233.36 262.62L234.8 258.53L233.97 258.59L233.22 258.81ZM237.18 256.87L237.9 256.63L238.38 256.32L238.66 255.94L238.75 255.34L238.55 254.77L238.09 254.28L237.37 253.91L236.25 257.04L237.18 256.87Z" id="f9btTVFXJl"></path><path d="M194.53 236.02L194.61 236.06L194.64 236.09L194.66 236.12L194.68 236.14L194.69 236.18L195.17 236.85L195.68 236.7L196.18 236.59L196.66 236.54L197.12 236.54L197.57 236.57L197.99 236.65L198.39 236.77L198.76 236.92L199.11 237.1L199.41 237.32L199.7 237.55L199.94 237.81L200.14 238.08L200.35 238.51L200.49 238.92L200.54 239.3L200.53 239.67L200.45 240.01L200.32 240.34L200.15 240.66L199.93 240.95L199.69 241.25L199.41 241.52L199.13 241.79L198.54 242.3L201.11 246.39L201.45 246.23L201.74 246.05L201.99 245.86L202.2 245.68L202.37 245.49L202.52 245.3L202.65 245.12L202.77 244.95L202.88 244.79L202.98 244.65L203.09 244.53L203.21 244.42L203.35 244.34L203.51 244.3L203.59 244.29L203.77 244.31L203.85 244.33L204.01 244.4L204.09 244.46L204.16 244.51L204.22 244.58L204.27 244.66L204.31 244.76L204.4 244.89L204.42 245.06L204.4 245.25L204.33 245.45L204.21 245.66L204.05 245.9L203.85 246.13L203.61 246.37L203.32 246.61L203.02 246.84L202.68 247.06L202.3 247.28L201.91 247.48L202.23 248.16L202.28 248.23L202.29 248.26L202.3 248.31L202.28 248.39L202.26 248.44L202.23 248.47L202.21 248.5L202.17 248.53L202.14 248.55L202.1 248.56L202.07 248.56L202.03 248.59L201.98 248.61L201.94 248.62L201.83 248.62L201.79 248.61L201.75 248.59L201.66 248.55L201.63 248.52L201.61 248.49L201.59 248.46L201.58 248.43L201.11 247.61L200.56 247.77L200.02 247.87L199.5 247.91L198.99 247.9L198.52 247.84L198.05 247.73L197.62 247.58L197.21 247.4L196.83 247.17L196.48 246.91L196.17 246.62L195.89 246.31L195.65 245.98L195.4 245.52L195.25 245.08L195.18 244.67L195.19 244.27L195.26 243.9L195.4 243.55L195.59 243.21L195.81 242.89L196.07 242.58L196.36 242.29L196.65 242.01L196.95 241.74L197.25 241.49L195.17 238.22L194.93 238.38L194.73 238.53L194.57 238.69L194.44 238.84L194.32 238.98L194.23 239.12L194.15 239.26L194.07 239.38L193.98 239.5L193.9 239.6L193.81 239.7L193.7 239.78L193.56 239.85L193.48 239.88L193.4 239.9L193.32 239.9L193.23 239.9L193.15 239.9L193.06 239.88L192.98 239.86L192.9 239.82L192.83 239.79L192.75 239.75L192.7 239.7L192.64 239.64L192.6 239.58L192.54 239.42L192.53 239.25L192.55 239.07L192.61 238.89L192.7 238.69L192.83 238.5L192.98 238.31L193.17 238.11L193.39 237.91L193.64 237.71L193.9 237.52L194.2 237.32L194.53 237.13L194.04 236.45L194.01 236.41L193.99 236.38L193.98 236.34L193.98 236.29L193.98 236.26L193.99 236.22L194.02 236.17L194.04 236.14L194.07 236.11L194.1 236.08L194.13 236.06L194.17 236.04L194.2 236.04L194.24 236.02L194.29 236L194.33 235.99L194.38 235.98L194.43 235.99L194.53 236.02ZM197.13 244.31L197.06 244.92L197.25 245.44L197.82 246.13L198.54 246.56L199.37 246.74L200.3 246.66L198.05 242.85L197.46 243.63L197.13 244.31ZM197.89 241.07L198.33 240.49L198.64 239.92L198.73 239.36L198.54 238.77L198.07 238.25L197.43 237.96L196.71 237.9L195.97 238.08L197.89 241.07Z" id="a1X6Deunls"></path><path d="M194.53 236.02L194.61 236.06L194.64 236.09L194.66 236.12L194.68 236.14L194.69 236.18L195.17 236.85L195.68 236.7L196.18 236.59L196.66 236.54L197.12 236.54L197.57 236.57L197.99 236.65L198.39 236.77L198.76 236.92L199.11 237.1L199.41 237.32L199.7 237.55L199.94 237.81L200.14 238.08L200.35 238.51L200.49 238.92L200.54 239.3L200.53 239.67L200.45 240.01L200.32 240.34L200.15 240.66L199.93 240.95L199.69 241.25L199.41 241.52L199.13 241.79L198.54 242.3L201.11 246.39L201.45 246.23L201.74 246.05L201.99 245.86L202.2 245.68L202.37 245.49L202.52 245.3L202.65 245.12L202.77 244.95L202.88 244.79L202.98 244.65L203.09 244.53L203.21 244.42L203.35 244.34L203.51 244.3L203.59 244.29L203.77 244.31L203.85 244.33L204.01 244.4L204.09 244.46L204.16 244.51L204.22 244.58L204.27 244.66L204.31 244.76L204.4 244.89L204.42 245.06L204.4 245.25L204.33 245.45L204.21 245.66L204.05 245.9L203.85 246.13L203.61 246.37L203.32 246.61L203.02 246.84L202.68 247.06L202.3 247.28L201.91 247.48L202.23 248.16L202.28 248.23L202.29 248.26L202.3 248.31L202.28 248.39L202.26 248.44L202.23 248.47L202.21 248.5L202.17 248.53L202.14 248.55L202.1 248.56L202.07 248.56L202.03 248.59L201.98 248.61L201.94 248.62L201.83 248.62L201.79 248.61L201.75 248.59L201.66 248.55L201.63 248.52L201.61 248.49L201.59 248.46L201.58 248.43L201.11 247.61L200.56 247.77L200.02 247.87L199.5 247.91L198.99 247.9L198.52 247.84L198.05 247.73L197.62 247.58L197.21 247.4L196.83 247.17L196.48 246.91L196.17 246.62L195.89 246.31L195.65 245.98L195.4 245.52L195.25 245.08L195.18 244.67L195.19 244.27L195.26 243.9L195.4 243.55L195.59 243.21L195.81 242.89L196.07 242.58L196.36 242.29L196.65 242.01L196.95 241.74L197.25 241.49L195.17 238.22L194.93 238.38L194.73 238.53L194.57 238.69L194.44 238.84L194.32 238.98L194.23 239.12L194.15 239.26L194.07 239.38L193.98 239.5L193.9 239.6L193.81 239.7L193.7 239.78L193.56 239.85L193.48 239.88L193.4 239.9L193.32 239.9L193.23 239.9L193.15 239.9L193.06 239.88L192.98 239.86L192.9 239.82L192.83 239.79L192.75 239.75L192.7 239.7L192.64 239.64L192.6 239.58L192.54 239.42L192.53 239.25L192.55 239.07L192.61 238.89L192.7 238.69L192.83 238.5L192.98 238.31L193.17 238.11L193.39 237.91L193.64 237.71L193.9 237.52L194.2 237.32L194.53 237.13L194.04 236.45L194.01 236.41L193.99 236.38L193.98 236.34L193.98 236.29L193.98 236.26L193.99 236.22L194.02 236.17L194.04 236.14L194.07 236.11L194.1 236.08L194.13 236.06L194.17 236.04L194.2 236.04L194.24 236.02L194.29 236L194.33 235.99L194.38 235.98L194.43 235.99L194.53 236.02ZM197.13 244.31L197.06 244.92L197.25 245.44L197.82 246.13L198.54 246.56L199.37 246.74L200.3 246.66L198.05 242.85L197.46 243.63L197.13 244.31ZM197.89 241.07L198.33 240.49L198.64 239.92L198.73 239.36L198.54 238.77L198.07 238.25L197.43 237.96L196.71 237.9L195.97 238.08L197.89 241.07Z" id="e1piRjVl4y"></path><path d="M176 244.93L176.05 244.94L176.09 244.96L176.13 244.99L176.16 245.01L176.19 245.04L176.2 245.07L176.22 245.1L176.23 245.13L176.23 245.98L176.77 246.03L177.27 246.13L177.74 246.28L178.16 246.45L178.55 246.65L178.9 246.89L179.21 247.15L179.47 247.43L179.68 247.72L179.85 248.03L179.98 248.34L180.06 248.66L180.08 248.98L180.05 249.42L179.97 249.83L179.82 250.18L179.64 250.51L179.4 250.79L179.13 251.05L178.83 251.28L178.49 251.48L178.13 251.67L177.75 251.82L177.36 251.97L176.96 252.12L176.55 252.24L176.71 256.87L177.1 256.85L177.45 256.81L177.77 256.74L178.06 256.66L178.32 256.56L178.57 256.45L178.79 256.34L179 256.23L179.19 256.13L179.38 256.04L179.55 255.98L179.74 255.93L179.92 255.92L180.02 255.92L180.12 255.94L180.2 255.96L180.28 255.99L180.35 256.03L180.44 256.13L180.49 256.19L180.52 256.26L180.53 256.34L180.55 256.42L180.56 256.51L180.57 256.6L180.53 256.75L180.44 256.92L180.3 257.08L180.1 257.24L179.86 257.39L179.58 257.54L179.26 257.66L178.9 257.78L178.5 257.89L178.09 257.98L177.64 258.04L177.19 258.08L176.71 258.1L176.71 258.91L176.71 258.94L176.7 258.99L176.69 259.02L176.67 259.06L176.62 259.15L176.6 259.18L176.54 259.26L176.5 259.28L176.46 259.31L176.43 259.32L176.32 259.32L176.25 259.31L176.14 259.28L176.09 259.27L176.01 259.23L175.98 259.2L175.95 259.17L175.92 259.11L175.91 259.08L175.91 258.23L175.34 258.18L174.8 258.07L174.32 257.91L173.87 257.72L173.46 257.49L173.1 257.22L172.79 256.93L172.52 256.6L172.3 256.25L172.13 255.88L172 255.5L171.92 255.1L171.9 254.69L171.9 254.22L171.97 253.79L172.12 253.4L172.32 253.06L172.57 252.75L172.88 252.48L173.22 252.24L173.59 252.02L173.99 251.82L174.42 251.64L174.86 251.47L175.31 251.31L175.75 251.15L175.59 247.48L175.31 247.52L175.06 247.58L174.84 247.64L174.64 247.72L174.46 247.8L174.3 247.9L174.15 247.98L174.01 248.06L173.88 248.14L173.75 248.2L173.62 248.25L173.48 248.28L173.34 248.29L173.23 248.29L173.13 248.27L173.04 248.25L172.95 248.22L172.87 248.18L172.8 248.13L172.73 248.08L172.68 248.02L172.63 247.95L172.59 247.87L172.56 247.79L172.55 247.7L172.54 247.61L172.56 247.45L172.64 247.3L172.76 247.15L172.91 247L173.1 246.86L173.32 246.72L173.57 246.6L173.84 246.48L174.14 246.38L174.45 246.29L174.76 246.21L175.1 246.15L175.43 246.11L175.43 245.3L175.44 245.27L175.44 245.22L175.45 245.19L175.47 245.15L175.52 245.06L175.54 245.03L175.61 244.95L175.64 244.93L175.68 244.9L175.71 244.9L175.75 244.89L175.82 244.89L175.89 244.9L176 244.93ZM174.22 253.5L173.88 254.02L173.82 254.56L173.97 255.4L174.41 256.07L175.11 256.56L176.07 256.87L175.75 252.51L174.84 253L174.22 253.5ZM177.23 250.43L177.8 250.06L178.18 249.59L178.32 248.98L178.17 248.34L177.77 247.85L177.17 247.52L176.39 247.34L176.55 250.74L177.23 250.43Z" id="a3dLqnqxuA"></path><path d="M176 244.93L176.05 244.94L176.09 244.96L176.13 244.99L176.16 245.01L176.19 245.04L176.2 245.07L176.22 245.1L176.23 245.13L176.23 245.98L176.77 246.03L177.27 246.13L177.74 246.28L178.16 246.45L178.55 246.65L178.9 246.89L179.21 247.15L179.47 247.43L179.68 247.72L179.85 248.03L179.98 248.34L180.06 248.66L180.08 248.98L180.05 249.42L179.97 249.83L179.82 250.18L179.64 250.51L179.4 250.79L179.13 251.05L178.83 251.28L178.49 251.48L178.13 251.67L177.75 251.82L177.36 251.97L176.96 252.12L176.55 252.24L176.71 256.87L177.1 256.85L177.45 256.81L177.77 256.74L178.06 256.66L178.32 256.56L178.57 256.45L178.79 256.34L179 256.23L179.19 256.13L179.38 256.04L179.55 255.98L179.74 255.93L179.92 255.92L180.02 255.92L180.12 255.94L180.2 255.96L180.28 255.99L180.35 256.03L180.44 256.13L180.49 256.19L180.52 256.26L180.53 256.34L180.55 256.42L180.56 256.51L180.57 256.6L180.53 256.75L180.44 256.92L180.3 257.08L180.1 257.24L179.86 257.39L179.58 257.54L179.26 257.66L178.9 257.78L178.5 257.89L178.09 257.98L177.64 258.04L177.19 258.08L176.71 258.1L176.71 258.91L176.71 258.94L176.7 258.99L176.69 259.02L176.67 259.06L176.62 259.15L176.6 259.18L176.54 259.26L176.5 259.28L176.46 259.31L176.43 259.32L176.32 259.32L176.25 259.31L176.14 259.28L176.09 259.27L176.01 259.23L175.98 259.2L175.95 259.17L175.92 259.11L175.91 259.08L175.91 258.23L175.34 258.18L174.8 258.07L174.32 257.91L173.87 257.72L173.46 257.49L173.1 257.22L172.79 256.93L172.52 256.6L172.3 256.25L172.13 255.88L172 255.5L171.92 255.1L171.9 254.69L171.9 254.22L171.97 253.79L172.12 253.4L172.32 253.06L172.57 252.75L172.88 252.48L173.22 252.24L173.59 252.02L173.99 251.82L174.42 251.64L174.86 251.47L175.31 251.31L175.75 251.15L175.59 247.48L175.31 247.52L175.06 247.58L174.84 247.64L174.64 247.72L174.46 247.8L174.3 247.9L174.15 247.98L174.01 248.06L173.88 248.14L173.75 248.2L173.62 248.25L173.48 248.28L173.34 248.29L173.23 248.29L173.13 248.27L173.04 248.25L172.95 248.22L172.87 248.18L172.8 248.13L172.73 248.08L172.68 248.02L172.63 247.95L172.59 247.87L172.56 247.79L172.55 247.7L172.54 247.61L172.56 247.45L172.64 247.3L172.76 247.15L172.91 247L173.1 246.86L173.32 246.72L173.57 246.6L173.84 246.48L174.14 246.38L174.45 246.29L174.76 246.21L175.1 246.15L175.43 246.11L175.43 245.3L175.44 245.27L175.44 245.22L175.45 245.19L175.47 245.15L175.52 245.06L175.54 245.03L175.61 244.95L175.64 244.93L175.68 244.9L175.71 244.9L175.75 244.89L175.82 244.89L175.89 244.9L176 244.93ZM174.22 253.5L173.88 254.02L173.82 254.56L173.97 255.4L174.41 256.07L175.11 256.56L176.07 256.87L175.75 252.51L174.84 253L174.22 253.5ZM177.23 250.43L177.8 250.06L178.18 249.59L178.32 248.98L178.17 248.34L177.77 247.85L177.17 247.52L176.39 247.34L176.55 250.74L177.23 250.43Z" id="b4e4VUW0yb"></path><path d="M179.8 169.6L179.88 169.61L179.97 169.62L180.05 169.62L180.14 169.63L180.3 169.66L180.39 169.67L180.47 169.69L180.56 169.7L180.64 169.72L180.73 169.74L274.92 194.25L275 194.27L275.09 194.29L275.17 194.31L275.58 194.45L275.65 194.49L275.73 194.53L275.8 194.56L275.88 194.6L275.96 194.63L276.18 194.76L276.24 194.8L276.31 194.85L276.44 194.94L276.52 194.99L276.57 195.04L276.7 195.14L276.76 195.2L276.82 195.26L276.99 195.43L277.04 195.49L277.1 195.55L277.24 195.74L277.28 195.8L277.33 195.88L277.37 195.94L277.45 196.08L277.49 196.15L277.53 196.22L277.66 196.51L277.68 196.58L277.71 196.65L277.81 196.93L277.84 197.01L277.93 197.44L277.97 197.79L277.97 197.86L277.98 197.94L277.98 198.01L277.97 198.08L277.97 198.23L277.95 198.44L277.93 198.51L277.92 198.58L277.88 198.8L277.85 198.87L277.84 198.94L277.81 199.01L263.53 238.35L263.48 238.5L263.45 238.57L263.42 238.64L263.39 238.71L263.35 238.77L263.32 238.84L263.28 238.91L263.24 238.97L263.2 239.04L263.15 239.11L263.11 239.17L263.07 239.23L263.03 239.29L262.98 239.36L262.92 239.41L262.87 239.48L262.81 239.53L262.77 239.59L262.71 239.65L262.64 239.7L262.59 239.76L262.47 239.87L262.27 240.02L262.2 240.07L262.13 240.11L262.06 240.15L261.99 240.2L261.84 240.29L261.76 240.32L261.69 240.36L261.45 240.47L261.37 240.5L261.24 240.56L261.19 240.57L261.13 240.59L261.08 240.61L261.03 240.63L260.99 240.65L260.93 240.66L260.88 240.68L260.83 240.7L260.78 240.71L260.73 240.73L260.61 240.76L260.56 240.77L260.45 240.8L260.4 240.8L260.35 240.82L260.29 240.83L260.24 240.84L260.18 240.85L260.13 240.86L260.08 240.87L259.97 240.88L259.92 240.89L259.86 240.9L259.81 240.9L259.7 240.92L259.65 240.92L259.59 240.93L259.55 240.93L259.44 240.93L259.39 240.94L258.77 240.94L258.74 240.93L258.61 240.93L258.58 240.93L258.56 240.93L258.53 240.92L258.46 240.92L258.44 240.91L258.4 240.91L258.34 240.9L258.31 240.9L258.28 240.89L258.19 240.87L258.15 240.87L258.12 240.85L258.06 240.84L258.02 240.83L257.95 240.82L257.91 240.8L163.72 216.3L163.63 216.27L163.55 216.24L163.38 216.17L163.3 216.14L163.22 216.1L163.06 216.02L162.98 215.98L162.91 215.95L162.83 215.9L162.46 215.69L162.4 215.64L162.32 215.6L162.26 215.55L162.19 215.5L161.99 215.35L161.94 215.3L161.87 215.25L161.81 215.19L161.76 215.14L161.7 215.09L161.64 215.04L161.6 214.98L161.54 214.92L161.35 214.7L161.3 214.63L161.22 214.52L161.18 214.45L161.14 214.4L161.11 214.33L161.08 214.25L160.95 213.96L160.8 213.54L160.79 213.47L160.76 213.4L160.73 213.25L160.72 213.18L160.71 213.11L160.7 213.03L160.68 212.96L160.67 212.89L160.67 212.82L160.66 212.68L160.66 212.46L160.67 212.39L160.67 212.32L160.7 212.04L160.71 211.97L160.73 211.89L160.78 211.68L160.83 211.53L175.11 172.19L175.18 171.98L175.22 171.91L175.28 171.77L175.32 171.71L175.35 171.63L175.48 171.44L175.52 171.38L175.56 171.31L175.66 171.19L175.71 171.13L175.77 171.07L175.82 171.01L175.99 170.84L176.05 170.79L176.11 170.73L176.24 170.63L176.3 170.58L176.37 170.53L176.43 170.48L176.5 170.43L176.87 170.22L177.27 170.04L177.35 170.01L177.44 169.98L177.6 169.92L177.69 169.9L177.77 169.87L177.86 169.84L178.02 169.8L178.11 169.78L178.19 169.76L178.28 169.74L178.36 169.72L178.45 169.7L178.53 169.69L178.62 169.67L178.7 169.66L178.79 169.65L178.87 169.64L179.04 169.62L179.13 169.62L179.21 169.61L179.3 169.6L179.38 169.6L179.46 169.6L179.55 169.6L179.63 169.6L179.8 169.6ZM179.26 172.06L179.19 172.06L179.17 172.07L179.12 172.07L179.1 172.07L179.09 172.07L179.07 172.08L179.04 172.08L179.03 172.09L179.01 172.09L178.98 172.1L178.96 172.1L178.83 172.16L178.83 172.17L178.81 172.18L178.8 172.19L178.78 172.2L178.75 172.21L178.7 172.24L178.69 172.25L178.64 172.27L178.61 172.3L178.58 172.32L178.48 172.41L178.46 172.43L178.43 172.46L178.42 172.48L178.41 172.49L178.37 172.54L178.36 172.55L178.35 172.57L178.33 172.59L178.32 172.61L178.31 172.63L178.28 172.67L178.27 172.69L178.25 172.71L178.24 172.73L178.23 172.75L178.22 172.77L178.2 172.79L178.19 172.81L178.18 172.83L178.17 172.85L178.15 172.87L163.88 212.22L163.86 212.24L163.82 212.34L163.82 212.37L163.81 212.39L163.81 212.41L163.81 212.44L163.81 212.51L163.81 212.54L163.81 212.59L163.82 212.61L163.82 212.63L163.83 212.65L163.84 212.68L163.84 212.7L163.89 212.83L163.9 212.85L163.91 212.87L163.92 212.88L163.93 212.91L163.94 212.92L163.95 212.94L163.97 212.95L163.98 212.98L164 213L164.01 213.01L164.02 213.02L164.03 213.03L164.05 213.05L164.06 213.08L164.07 213.09L164.09 213.11L164.11 213.13L164.12 213.15L164.13 213.16L164.15 213.18L164.17 213.2L164.19 213.21L164.2 213.23L164.23 213.26L164.26 213.27L164.29 213.3L164.32 213.32L164.33 213.33L164.36 213.35L164.37 213.35L164.42 213.38L164.44 213.4L164.46 213.4L164.51 213.43L164.53 213.44L164.55 213.45L164.57 213.46L164.6 213.47L164.62 213.48L164.65 213.49L164.67 213.5L164.7 213.52L164.72 213.52L164.74 213.54L164.77 213.54L164.79 213.56L164.82 213.57L164.83 213.58L259.04 238.08L259.08 238.1L259.11 238.11L259.13 238.11L259.21 238.13L259.25 238.13L259.28 238.14L259.38 238.14L259.4 238.13L259.42 238.13L259.45 238.13L259.47 238.13L259.5 238.12L259.51 238.12L259.73 238.06L259.76 238.04L259.83 238.02L259.85 238.01L259.88 238L259.9 237.98L259.95 237.97L259.97 237.96L260 237.95L260.02 237.93L260.05 237.93L260.07 237.91L260.09 237.9L260.11 237.89L260.14 237.88L260.15 237.86L260.18 237.85L260.21 237.82L260.23 237.81L260.27 237.78L260.28 237.76L260.31 237.73L260.33 237.71L260.35 237.69L260.36 237.67L260.38 237.66L260.39 237.64L260.41 237.62L260.42 237.6L260.44 237.59L260.47 237.54L260.48 237.53L260.51 237.49L260.52 237.47L260.53 237.45L260.54 237.43L260.56 237.41L260.56 237.39L260.58 237.37L260.59 237.34L260.61 237.32L260.61 237.31L260.63 237.29L260.64 237.27L274.92 197.92L274.93 197.9L274.95 197.88L274.96 197.84L274.97 197.82L274.97 197.8L274.99 197.76L274.99 197.62L274.98 197.59L274.98 197.57L274.97 197.55L274.97 197.53L274.96 197.51L274.95 197.5L274.9 197.35L274.89 197.33L274.87 197.31L274.86 197.27L274.84 197.25L274.82 197.2L274.81 197.18L274.8 197.17L274.78 197.15L274.78 197.13L274.76 197.1L274.75 197.08L274.74 197.06L274.72 197.05L274.71 197.03L274.7 197L274.66 196.98L274.65 196.96L274.61 196.93L274.6 196.91L274.58 196.89L274.56 196.88L274.53 196.85L274.5 196.83L274.48 196.82L274.46 196.81L274.44 196.79L274.42 196.78L274.4 196.77L274.38 196.76L274.36 196.74L274.33 196.74L274.31 196.72L274.29 196.71L274.27 196.7L274.24 196.69L274.22 196.68L274.2 196.66L274.18 196.65L274.15 196.64L274.13 196.63L274.08 196.61L274.06 196.6L274.03 196.59L274.01 196.58L273.98 196.57L273.96 196.56L179.76 172.05L179.28 172.05L179.26 172.06Z" id="b2gJt2mdB"></path><path d="M179.8 169.6L179.88 169.61L179.97 169.62L180.05 169.62L180.14 169.63L180.3 169.66L180.39 169.67L180.47 169.69L180.56 169.7L180.64 169.72L180.73 169.74L274.92 194.25L275 194.27L275.09 194.29L275.17 194.31L275.58 194.45L275.65 194.49L275.73 194.53L275.8 194.56L275.88 194.6L275.96 194.63L276.18 194.76L276.24 194.8L276.31 194.85L276.44 194.94L276.52 194.99L276.57 195.04L276.7 195.14L276.76 195.2L276.82 195.26L276.99 195.43L277.04 195.49L277.1 195.55L277.24 195.74L277.28 195.8L277.33 195.88L277.37 195.94L277.45 196.08L277.49 196.15L277.53 196.22L277.66 196.51L277.68 196.58L277.71 196.65L277.81 196.93L277.84 197.01L277.93 197.44L277.97 197.79L277.97 197.86L277.98 197.94L277.98 198.01L277.97 198.08L277.97 198.23L277.95 198.44L277.93 198.51L277.92 198.58L277.88 198.8L277.85 198.87L277.84 198.94L277.81 199.01L263.53 238.35L263.48 238.5L263.45 238.57L263.42 238.64L263.39 238.71L263.35 238.77L263.32 238.84L263.28 238.91L263.24 238.97L263.2 239.04L263.15 239.11L263.11 239.17L263.07 239.23L263.03 239.29L262.98 239.36L262.92 239.41L262.87 239.48L262.81 239.53L262.77 239.59L262.71 239.65L262.64 239.7L262.59 239.76L262.47 239.87L262.27 240.02L262.2 240.07L262.13 240.11L262.06 240.15L261.99 240.2L261.84 240.29L261.76 240.32L261.69 240.36L261.45 240.47L261.37 240.5L261.24 240.56L261.19 240.57L261.13 240.59L261.08 240.61L261.03 240.63L260.99 240.65L260.93 240.66L260.88 240.68L260.83 240.7L260.78 240.71L260.73 240.73L260.61 240.76L260.56 240.77L260.45 240.8L260.4 240.8L260.35 240.82L260.29 240.83L260.24 240.84L260.18 240.85L260.13 240.86L260.08 240.87L259.97 240.88L259.92 240.89L259.86 240.9L259.81 240.9L259.7 240.92L259.65 240.92L259.59 240.93L259.55 240.93L259.44 240.93L259.39 240.94L258.77 240.94L258.74 240.93L258.61 240.93L258.58 240.93L258.56 240.93L258.53 240.92L258.46 240.92L258.44 240.91L258.4 240.91L258.34 240.9L258.31 240.9L258.28 240.89L258.19 240.87L258.15 240.87L258.12 240.85L258.06 240.84L258.02 240.83L257.95 240.82L257.91 240.8L163.72 216.3L163.63 216.27L163.55 216.24L163.38 216.17L163.3 216.14L163.22 216.1L163.06 216.02L162.98 215.98L162.91 215.95L162.83 215.9L162.46 215.69L162.4 215.64L162.32 215.6L162.26 215.55L162.19 215.5L161.99 215.35L161.94 215.3L161.87 215.25L161.81 215.19L161.76 215.14L161.7 215.09L161.64 215.04L161.6 214.98L161.54 214.92L161.35 214.7L161.3 214.63L161.22 214.52L161.18 214.45L161.14 214.4L161.11 214.33L161.08 214.25L160.95 213.96L160.8 213.54L160.79 213.47L160.76 213.4L160.73 213.25L160.72 213.18L160.71 213.11L160.7 213.03L160.68 212.96L160.67 212.89L160.67 212.82L160.66 212.68L160.66 212.46L160.67 212.39L160.67 212.32L160.7 212.04L160.71 211.97L160.73 211.89L160.78 211.68L160.83 211.53L175.11 172.19L175.18 171.98L175.22 171.91L175.28 171.77L175.32 171.71L175.35 171.63L175.48 171.44L175.52 171.38L175.56 171.31L175.66 171.19L175.71 171.13L175.77 171.07L175.82 171.01L175.99 170.84L176.05 170.79L176.11 170.73L176.24 170.63L176.3 170.58L176.37 170.53L176.43 170.48L176.5 170.43L176.87 170.22L177.27 170.04L177.35 170.01L177.44 169.98L177.6 169.92L177.69 169.9L177.77 169.87L177.86 169.84L178.02 169.8L178.11 169.78L178.19 169.76L178.28 169.74L178.36 169.72L178.45 169.7L178.53 169.69L178.62 169.67L178.7 169.66L178.79 169.65L178.87 169.64L179.04 169.62L179.13 169.62L179.21 169.61L179.3 169.6L179.38 169.6L179.46 169.6L179.55 169.6L179.63 169.6L179.8 169.6ZM179.26 172.06L179.19 172.06L179.17 172.07L179.12 172.07L179.1 172.07L179.09 172.07L179.07 172.08L179.04 172.08L179.03 172.09L179.01 172.09L178.98 172.1L178.96 172.1L178.83 172.16L178.83 172.17L178.81 172.18L178.8 172.19L178.78 172.2L178.75 172.21L178.7 172.24L178.69 172.25L178.64 172.27L178.61 172.3L178.58 172.32L178.48 172.41L178.46 172.43L178.43 172.46L178.42 172.48L178.41 172.49L178.37 172.54L178.36 172.55L178.35 172.57L178.33 172.59L178.32 172.61L178.31 172.63L178.28 172.67L178.27 172.69L178.25 172.71L178.24 172.73L178.23 172.75L178.22 172.77L178.2 172.79L178.19 172.81L178.18 172.83L178.17 172.85L178.15 172.87L163.88 212.22L163.86 212.24L163.82 212.34L163.82 212.37L163.81 212.39L163.81 212.41L163.81 212.44L163.81 212.51L163.81 212.54L163.81 212.59L163.82 212.61L163.82 212.63L163.83 212.65L163.84 212.68L163.84 212.7L163.89 212.83L163.9 212.85L163.91 212.87L163.92 212.88L163.93 212.91L163.94 212.92L163.95 212.94L163.97 212.95L163.98 212.98L164 213L164.01 213.01L164.02 213.02L164.03 213.03L164.05 213.05L164.06 213.08L164.07 213.09L164.09 213.11L164.11 213.13L164.12 213.15L164.13 213.16L164.15 213.18L164.17 213.2L164.19 213.21L164.2 213.23L164.23 213.26L164.26 213.27L164.29 213.3L164.32 213.32L164.33 213.33L164.36 213.35L164.37 213.35L164.42 213.38L164.44 213.4L164.46 213.4L164.51 213.43L164.53 213.44L164.55 213.45L164.57 213.46L164.6 213.47L164.62 213.48L164.65 213.49L164.67 213.5L164.7 213.52L164.72 213.52L164.74 213.54L164.77 213.54L164.79 213.56L164.82 213.57L164.83 213.58L259.04 238.08L259.08 238.1L259.11 238.11L259.13 238.11L259.21 238.13L259.25 238.13L259.28 238.14L259.38 238.14L259.4 238.13L259.42 238.13L259.45 238.13L259.47 238.13L259.5 238.12L259.51 238.12L259.73 238.06L259.76 238.04L259.83 238.02L259.85 238.01L259.88 238L259.9 237.98L259.95 237.97L259.97 237.96L260 237.95L260.02 237.93L260.05 237.93L260.07 237.91L260.09 237.9L260.11 237.89L260.14 237.88L260.15 237.86L260.18 237.85L260.21 237.82L260.23 237.81L260.27 237.78L260.28 237.76L260.31 237.73L260.33 237.71L260.35 237.69L260.36 237.67L260.38 237.66L260.39 237.64L260.41 237.62L260.42 237.6L260.44 237.59L260.47 237.54L260.48 237.53L260.51 237.49L260.52 237.47L260.53 237.45L260.54 237.43L260.56 237.41L260.56 237.39L260.58 237.37L260.59 237.34L260.61 237.32L260.61 237.31L260.63 237.29L260.64 237.27L274.92 197.92L274.93 197.9L274.95 197.88L274.96 197.84L274.97 197.82L274.97 197.8L274.99 197.76L274.99 197.62L274.98 197.59L274.98 197.57L274.97 197.55L274.97 197.53L274.96 197.51L274.95 197.5L274.9 197.35L274.89 197.33L274.87 197.31L274.86 197.27L274.84 197.25L274.82 197.2L274.81 197.18L274.8 197.17L274.78 197.15L274.78 197.13L274.76 197.1L274.75 197.08L274.74 197.06L274.72 197.05L274.71 197.03L274.7 197L274.66 196.98L274.65 196.96L274.61 196.93L274.6 196.91L274.58 196.89L274.56 196.88L274.53 196.85L274.5 196.83L274.48 196.82L274.46 196.81L274.44 196.79L274.42 196.78L274.4 196.77L274.38 196.76L274.36 196.74L274.33 196.74L274.31 196.72L274.29 196.71L274.27 196.7L274.24 196.69L274.22 196.68L274.2 196.66L274.18 196.65L274.15 196.64L274.13 196.63L274.08 196.61L274.06 196.6L274.03 196.59L274.01 196.58L273.98 196.57L273.96 196.56L179.76 172.05L179.28 172.05L179.26 172.06Z" id="elxMmsM2H"></path><path d="M188.37 178.04L188.42 178.04L262.4 197.37L262.44 197.39L262.47 197.4L262.51 197.41L262.55 197.42L262.58 197.43L262.71 197.49L262.73 197.5L262.8 197.53L262.82 197.54L262.86 197.57L262.9 197.59L262.94 197.62L262.96 197.63L262.98 197.65L263.01 197.67L263.03 197.69L263.06 197.7L263.07 197.72L263.1 197.74L263.12 197.76L263.14 197.78L263.16 197.79L263.18 197.81L263.2 197.84L263.22 197.86L263.24 197.87L263.32 197.98L263.33 197.99L263.34 198.01L263.36 198.04L263.36 198.06L263.38 198.08L263.39 198.1L263.41 198.12L263.41 198.14L263.43 198.16L263.44 198.19L263.45 198.21L263.46 198.23L263.47 198.26L263.49 198.28L263.49 198.31L263.5 198.33L263.51 198.36L263.53 198.39L263.53 198.41L263.56 198.5L263.56 198.53L263.58 198.61L263.58 198.64L263.59 198.67L263.59 198.9L263.58 198.93L263.58 198.97L263.56 199.05L263.55 199.09L263.54 199.12L263.53 199.14L263.5 199.23L263.49 199.31L263.46 199.39L263.45 199.47L263.42 199.56L263.41 199.63L263.39 199.72L263.38 199.8L263.36 199.88L263.36 199.96L263.34 200.04L263.33 200.12L263.32 200.2L263.32 200.29L263.32 200.37L263.32 200.61L263.32 200.69L263.32 200.76L263.34 200.92L263.36 201L263.36 201.08L263.41 201.31L263.46 201.47L263.49 201.54L263.53 201.69L263.57 201.77L263.6 201.84L263.64 201.91L263.67 201.99L263.71 202.06L263.76 202.13L263.8 202.21L264 202.49L264.05 202.55L264.1 202.62L264.33 202.88L264.39 202.94L264.45 203L264.51 203.07L264.77 203.29L264.84 203.34L264.91 203.4L264.98 203.45L265.06 203.51L265.27 203.65L265.35 203.7L265.43 203.75L265.83 203.96L265.92 204L266 204.04L266.09 204.08L266.36 204.19L266.46 204.22L266.55 204.26L266.64 204.29L266.74 204.32L266.77 204.33L266.81 204.34L266.84 204.35L266.91 204.38L266.94 204.39L267.07 204.44L267.1 204.46L267.13 204.47L267.16 204.49L267.21 204.52L267.24 204.54L267.29 204.57L267.31 204.59L267.34 204.61L267.36 204.63L267.39 204.64L267.41 204.66L267.43 204.69L267.45 204.7L267.48 204.72L267.49 204.74L267.52 204.76L267.58 204.84L267.61 204.86L267.62 204.88L267.63 204.9L267.68 204.96L267.69 204.98L267.7 205L267.71 205.02L267.73 205.04L267.74 205.06L267.75 205.08L267.76 205.11L267.78 205.13L267.78 205.15L267.79 205.18L267.81 205.2L267.82 205.23L267.82 205.25L267.84 205.28L267.85 205.3L267.86 205.36L267.87 205.38L267.91 205.49L267.91 205.52L267.91 205.55L267.91 205.58L267.92 205.61L267.92 205.64L267.93 205.67L267.93 205.79L267.92 205.81L267.92 205.88L267.9 205.96L267.89 206L267.87 206.06L267.86 206.09L260 227.87L259.98 227.9L259.97 227.93L259.94 227.99L259.93 228.02L259.87 228.13L259.85 228.15L259.84 228.18L259.81 228.2L259.8 228.23L259.78 228.25L259.76 228.27L259.74 228.29L259.72 228.32L259.7 228.34L259.67 228.36L259.66 228.39L259.63 228.4L259.62 228.42L259.59 228.44L259.57 228.46L259.5 228.51L259.46 228.54L259.43 228.56L259.38 228.59L259.37 228.61L259.32 228.63L259.29 228.64L259.25 228.67L259.22 228.68L259.2 228.69L259.15 228.71L259.12 228.72L259.09 228.73L259.04 228.74L259.01 228.75L258.99 228.76L258.95 228.76L258.93 228.77L258.9 228.78L258.87 228.78L258.84 228.78L258.81 228.79L258.78 228.79L258.74 228.8L258.71 228.8L258.68 228.81L258.61 228.81L258.58 228.81L258.52 228.81L258.48 228.82L258.31 228.82L258.27 228.83L257.91 228.83L257.72 228.78L257.53 228.73L257.14 228.68L256.95 228.66L256.75 228.64L256.56 228.63L256.37 228.63L256.18 228.64L255.99 228.66L255.62 228.7L255.43 228.73L255.26 228.77L255.08 228.81L254.9 228.86L254.72 228.92L254.55 228.98L254.38 229.04L254.22 229.12L254.06 229.19L253.75 229.36L253.6 229.45L253.46 229.55L253.32 229.65L253.18 229.76L253.05 229.87L252.93 229.98L252.81 230.11L252.7 230.23L252.59 230.36L252.49 230.5L252.31 230.78L252.23 230.92L252.16 231.07L252.08 231.23L252.03 231.38L251.98 231.55L251.96 231.59L251.95 231.63L251.93 231.67L251.91 231.7L251.89 231.75L251.87 231.78L251.8 231.89L251.77 231.92L251.74 231.96L251.71 232L251.68 232.02L251.65 232.06L251.61 232.09L251.57 232.12L251.41 232.23L251.37 232.25L251.32 232.28L251.28 232.3L251.14 232.36L251.09 232.38L251.04 232.4L250.99 232.41L250.93 232.43L250.89 232.44L250.83 232.46L250.72 232.47L250.66 232.49L250.6 232.49L250.55 232.49L250.49 232.5L249.89 232.5L176.23 213.3L176.06 213.24L175.95 213.18L175.9 213.15L175.84 213.13L175.79 213.1L175.74 213.06L175.69 213.03L175.65 213L175.56 212.93L175.52 212.88L175.48 212.85L175.44 212.81L175.4 212.77L175.31 212.64L175.28 212.6L175.25 212.55L175.2 212.46L175.18 212.41L175.16 212.37L175.14 212.32L175.11 212.22L175.08 212.02L175.08 211.83L175.1 211.73L175.11 211.67L175.21 211.34L175.25 211.18L175.28 211.02L175.31 210.85L175.32 210.69L175.33 210.53L175.33 210.36L175.32 210.21L175.31 210.04L175.28 209.89L175.26 209.72L175.22 209.57L175.18 209.42L175.12 209.26L175.06 209.11L175 208.97L174.93 208.82L174.85 208.68L174.76 208.54L174.67 208.4L174.58 208.27L174.48 208.14L174.25 207.9L174.13 207.78L174.01 207.66L173.87 207.55L173.74 207.45L173.6 207.34L173.44 207.25L173.3 207.16L173.14 207.07L172.97 206.99L172.8 206.92L172.64 206.85L172.46 206.79L172.27 206.73L171.9 206.63L171.84 206.61L171.78 206.59L171.72 206.57L171.66 206.54L171.62 206.51L171.56 206.48L171.46 206.43L171.41 206.39L171.36 206.36L171.32 206.33L171.28 206.29L171.23 206.26L171.19 206.21L171.15 206.18L171.11 206.13L171.07 206.1L170.94 205.93L170.92 205.88L170.87 205.79L170.85 205.74L170.83 205.7L170.78 205.55L170.77 205.5L170.76 205.45L170.75 205.4L170.75 205.35L170.74 205.3L170.74 205.25L170.75 205.2L170.75 205.15L170.77 205.05L170.77 205L178.64 182.67L178.7 182.62L178.75 182.57L178.8 182.52L178.92 182.42L178.97 182.38L179.02 182.33L179.08 182.28L179.13 182.24L179.18 182.21L179.23 182.16L179.28 182.13L179.34 182.09L179.38 182.06L179.43 182.03L179.48 182L179.54 181.97L179.64 181.91L179.68 181.89L179.73 181.87L179.77 181.84L179.82 181.82L179.87 181.81L179.92 181.79L179.96 181.77L180.01 181.76L180.06 181.75L180.1 181.74L180.15 181.73L180.23 181.72L180.27 181.71L180.49 181.71L180.57 181.72L180.76 181.77L180.95 181.81L181.14 181.84L181.53 181.89L181.72 181.9L181.92 181.91L182.1 181.91L182.3 181.9L182.67 181.87L183.04 181.82L183.4 181.73L183.75 181.63L183.92 181.57L184.09 181.5L184.26 181.43L184.42 181.35L184.57 181.28L184.73 181.18L185.02 181L185.29 180.79L185.42 180.67L185.54 180.56L185.66 180.44L185.78 180.31L185.88 180.18L185.99 180.05L186.08 179.91L186.17 179.77L186.25 179.62L186.32 179.47L186.39 179.31L186.45 179.16L186.5 178.99L186.52 178.95L186.55 178.9L186.58 178.85L186.61 178.8L186.64 178.75L186.71 178.67L186.79 178.58L186.82 178.54L186.86 178.5L186.91 178.47L186.95 178.43L186.99 178.39L187.04 178.36L187.09 178.33L187.28 178.21L187.33 178.19L187.39 178.16L187.44 178.14L187.49 178.13L187.55 178.11L187.78 178.05L187.83 178.04L187.89 178.03L187.95 178.03L188.01 178.02L188.25 178.02L188.3 178.03L188.37 178.04ZM188.97 181.54L188.85 181.71L188.71 181.88L188.42 182.21L188.26 182.36L187.94 182.66L187.78 182.8L187.61 182.94L187.43 183.07L187.25 183.2L187.06 183.33L186.69 183.56L186.5 183.67L186.3 183.77L186.1 183.88L185.9 183.97L185.7 184.05L185.49 184.14L185.28 184.22L185.06 184.29L184.62 184.42L184.4 184.48L184.18 184.54L183.72 184.62L183.5 184.66L183.03 184.71L182.56 184.74L182.32 184.75L182.09 184.75L181.84 184.74L181.61 184.74L181.37 184.71L174.3 204.18L174.52 204.28L174.73 204.38L174.93 204.48L175.14 204.59L175.33 204.71L175.52 204.82L175.7 204.95L175.88 205.08L176.05 205.2L176.22 205.34L176.54 205.62L176.69 205.76L176.84 205.92L176.98 206.07L177.11 206.23L177.37 206.55L177.48 206.72L177.6 206.89L177.7 207.07L177.8 207.24L177.9 207.41L177.98 207.6L178.06 207.78L178.14 207.96L178.2 208.15L178.27 208.34L178.36 208.72L178.41 208.91L178.45 209.11L178.49 209.51L178.51 209.71L178.52 209.91L178.52 210.11L178.51 210.31L178.49 210.52L178.48 210.72L249.4 229.23L249.52 229.08L249.63 228.91L249.75 228.76L249.87 228.61L250 228.46L250.14 228.31L250.28 228.17L250.42 228.03L250.56 227.9L250.72 227.76L251.02 227.51L251.19 227.38L251.35 227.27L251.69 227.04L251.86 226.94L252.03 226.84L252.21 226.74L252.4 226.65L252.58 226.56L252.77 226.47L252.96 226.39L253.15 226.31L253.54 226.17L253.74 226.11L254.15 225.99L254.55 225.89L254.76 225.85L254.97 225.81L255.39 225.76L255.6 225.74L255.82 225.71L256.03 225.71L256.25 225.69L257.27 225.69L264.33 206.23L264.22 206.18L264.12 206.12L264.01 206.07L263.8 205.96L263.7 205.9L263.6 205.84L263.5 205.79L263.41 205.72L263.31 205.67L263.22 205.6L263.12 205.54L263.03 205.47L262.94 205.41L262.85 205.35L262.77 205.27L262.68 205.21L262.59 205.14L262.26 204.86L262.19 204.78L262.11 204.71L261.89 204.47L261.83 204.39L261.75 204.32L261.69 204.24L261.56 204.07L261.5 203.98L261.44 203.9L261.33 203.73L261.28 203.64L261.22 203.55L261.12 203.36L261.06 203.27L260.95 203.09L260.9 202.99L260.84 202.9L260.79 202.81L260.74 202.71L260.69 202.62L260.65 202.53L260.61 202.43L260.56 202.33L260.53 202.23L260.49 202.14L260.46 202.04L260.42 201.94L260.39 201.85L260.36 201.75L260.33 201.65L260.31 201.56L260.28 201.46L260.26 201.37L260.23 201.27L260.22 201.17L260.2 201.08L260.17 200.88L260.15 200.78L260.14 200.69L260.14 200.59L260.13 200.49L260.12 200.4L260.12 200.02L260.13 199.92L260.13 199.83L260.14 199.65L260.16 199.56L189.23 181.18L189.1 181.36L188.97 181.54Z" id="iGE8kOI3O"></path><path d="M188.37 178.04L188.42 178.04L262.4 197.37L262.44 197.39L262.47 197.4L262.51 197.41L262.55 197.42L262.58 197.43L262.71 197.49L262.73 197.5L262.8 197.53L262.82 197.54L262.86 197.57L262.9 197.59L262.94 197.62L262.96 197.63L262.98 197.65L263.01 197.67L263.03 197.69L263.06 197.7L263.07 197.72L263.1 197.74L263.12 197.76L263.14 197.78L263.16 197.79L263.18 197.81L263.2 197.84L263.22 197.86L263.24 197.87L263.32 197.98L263.33 197.99L263.34 198.01L263.36 198.04L263.36 198.06L263.38 198.08L263.39 198.1L263.41 198.12L263.41 198.14L263.43 198.16L263.44 198.19L263.45 198.21L263.46 198.23L263.47 198.26L263.49 198.28L263.49 198.31L263.5 198.33L263.51 198.36L263.53 198.39L263.53 198.41L263.56 198.5L263.56 198.53L263.58 198.61L263.58 198.64L263.59 198.67L263.59 198.9L263.58 198.93L263.58 198.97L263.56 199.05L263.55 199.09L263.54 199.12L263.53 199.14L263.5 199.23L263.49 199.31L263.46 199.39L263.45 199.47L263.42 199.56L263.41 199.63L263.39 199.72L263.38 199.8L263.36 199.88L263.36 199.96L263.34 200.04L263.33 200.12L263.32 200.2L263.32 200.29L263.32 200.37L263.32 200.61L263.32 200.69L263.32 200.76L263.34 200.92L263.36 201L263.36 201.08L263.41 201.31L263.46 201.47L263.49 201.54L263.53 201.69L263.57 201.77L263.6 201.84L263.64 201.91L263.67 201.99L263.71 202.06L263.76 202.13L263.8 202.21L264 202.49L264.05 202.55L264.1 202.62L264.33 202.88L264.39 202.94L264.45 203L264.51 203.07L264.77 203.29L264.84 203.34L264.91 203.4L264.98 203.45L265.06 203.51L265.27 203.65L265.35 203.7L265.43 203.75L265.83 203.96L265.92 204L266 204.04L266.09 204.08L266.36 204.19L266.46 204.22L266.55 204.26L266.64 204.29L266.74 204.32L266.77 204.33L266.81 204.34L266.84 204.35L266.91 204.38L266.94 204.39L267.07 204.44L267.1 204.46L267.13 204.47L267.16 204.49L267.21 204.52L267.24 204.54L267.29 204.57L267.31 204.59L267.34 204.61L267.36 204.63L267.39 204.64L267.41 204.66L267.43 204.69L267.45 204.7L267.48 204.72L267.49 204.74L267.52 204.76L267.58 204.84L267.61 204.86L267.62 204.88L267.63 204.9L267.68 204.96L267.69 204.98L267.7 205L267.71 205.02L267.73 205.04L267.74 205.06L267.75 205.08L267.76 205.11L267.78 205.13L267.78 205.15L267.79 205.18L267.81 205.2L267.82 205.23L267.82 205.25L267.84 205.28L267.85 205.3L267.86 205.36L267.87 205.38L267.91 205.49L267.91 205.52L267.91 205.55L267.91 205.58L267.92 205.61L267.92 205.64L267.93 205.67L267.93 205.79L267.92 205.81L267.92 205.88L267.9 205.96L267.89 206L267.87 206.06L267.86 206.09L260 227.87L259.98 227.9L259.97 227.93L259.94 227.99L259.93 228.02L259.87 228.13L259.85 228.15L259.84 228.18L259.81 228.2L259.8 228.23L259.78 228.25L259.76 228.27L259.74 228.29L259.72 228.32L259.7 228.34L259.67 228.36L259.66 228.39L259.63 228.4L259.62 228.42L259.59 228.44L259.57 228.46L259.5 228.51L259.46 228.54L259.43 228.56L259.38 228.59L259.37 228.61L259.32 228.63L259.29 228.64L259.25 228.67L259.22 228.68L259.2 228.69L259.15 228.71L259.12 228.72L259.09 228.73L259.04 228.74L259.01 228.75L258.99 228.76L258.95 228.76L258.93 228.77L258.9 228.78L258.87 228.78L258.84 228.78L258.81 228.79L258.78 228.79L258.74 228.8L258.71 228.8L258.68 228.81L258.61 228.81L258.58 228.81L258.52 228.81L258.48 228.82L258.31 228.82L258.27 228.83L257.91 228.83L257.72 228.78L257.53 228.73L257.14 228.68L256.95 228.66L256.75 228.64L256.56 228.63L256.37 228.63L256.18 228.64L255.99 228.66L255.62 228.7L255.43 228.73L255.26 228.77L255.08 228.81L254.9 228.86L254.72 228.92L254.55 228.98L254.38 229.04L254.22 229.12L254.06 229.19L253.75 229.36L253.6 229.45L253.46 229.55L253.32 229.65L253.18 229.76L253.05 229.87L252.93 229.98L252.81 230.11L252.7 230.23L252.59 230.36L252.49 230.5L252.31 230.78L252.23 230.92L252.16 231.07L252.08 231.23L252.03 231.38L251.98 231.55L251.96 231.59L251.95 231.63L251.93 231.67L251.91 231.7L251.89 231.75L251.87 231.78L251.8 231.89L251.77 231.92L251.74 231.96L251.71 232L251.68 232.02L251.65 232.06L251.61 232.09L251.57 232.12L251.41 232.23L251.37 232.25L251.32 232.28L251.28 232.3L251.14 232.36L251.09 232.38L251.04 232.4L250.99 232.41L250.93 232.43L250.89 232.44L250.83 232.46L250.72 232.47L250.66 232.49L250.6 232.49L250.55 232.49L250.49 232.5L249.89 232.5L176.23 213.3L176.06 213.24L175.95 213.18L175.9 213.15L175.84 213.13L175.79 213.1L175.74 213.06L175.69 213.03L175.65 213L175.56 212.93L175.52 212.88L175.48 212.85L175.44 212.81L175.4 212.77L175.31 212.64L175.28 212.6L175.25 212.55L175.2 212.46L175.18 212.41L175.16 212.37L175.14 212.32L175.11 212.22L175.08 212.02L175.08 211.83L175.1 211.73L175.11 211.67L175.21 211.34L175.25 211.18L175.28 211.02L175.31 210.85L175.32 210.69L175.33 210.53L175.33 210.36L175.32 210.21L175.31 210.04L175.28 209.89L175.26 209.72L175.22 209.57L175.18 209.42L175.12 209.26L175.06 209.11L175 208.97L174.93 208.82L174.85 208.68L174.76 208.54L174.67 208.4L174.58 208.27L174.48 208.14L174.25 207.9L174.13 207.78L174.01 207.66L173.87 207.55L173.74 207.45L173.6 207.34L173.44 207.25L173.3 207.16L173.14 207.07L172.97 206.99L172.8 206.92L172.64 206.85L172.46 206.79L172.27 206.73L171.9 206.63L171.84 206.61L171.78 206.59L171.72 206.57L171.66 206.54L171.62 206.51L171.56 206.48L171.46 206.43L171.41 206.39L171.36 206.36L171.32 206.33L171.28 206.29L171.23 206.26L171.19 206.21L171.15 206.18L171.11 206.13L171.07 206.1L170.94 205.93L170.92 205.88L170.87 205.79L170.85 205.74L170.83 205.7L170.78 205.55L170.77 205.5L170.76 205.45L170.75 205.4L170.75 205.35L170.74 205.3L170.74 205.25L170.75 205.2L170.75 205.15L170.77 205.05L170.77 205L178.64 182.67L178.7 182.62L178.75 182.57L178.8 182.52L178.92 182.42L178.97 182.38L179.02 182.33L179.08 182.28L179.13 182.24L179.18 182.21L179.23 182.16L179.28 182.13L179.34 182.09L179.38 182.06L179.43 182.03L179.48 182L179.54 181.97L179.64 181.91L179.68 181.89L179.73 181.87L179.77 181.84L179.82 181.82L179.87 181.81L179.92 181.79L179.96 181.77L180.01 181.76L180.06 181.75L180.1 181.74L180.15 181.73L180.23 181.72L180.27 181.71L180.49 181.71L180.57 181.72L180.76 181.77L180.95 181.81L181.14 181.84L181.53 181.89L181.72 181.9L181.92 181.91L182.1 181.91L182.3 181.9L182.67 181.87L183.04 181.82L183.4 181.73L183.75 181.63L183.92 181.57L184.09 181.5L184.26 181.43L184.42 181.35L184.57 181.28L184.73 181.18L185.02 181L185.29 180.79L185.42 180.67L185.54 180.56L185.66 180.44L185.78 180.31L185.88 180.18L185.99 180.05L186.08 179.91L186.17 179.77L186.25 179.62L186.32 179.47L186.39 179.31L186.45 179.16L186.5 178.99L186.52 178.95L186.55 178.9L186.58 178.85L186.61 178.8L186.64 178.75L186.71 178.67L186.79 178.58L186.82 178.54L186.86 178.5L186.91 178.47L186.95 178.43L186.99 178.39L187.04 178.36L187.09 178.33L187.28 178.21L187.33 178.19L187.39 178.16L187.44 178.14L187.49 178.13L187.55 178.11L187.78 178.05L187.83 178.04L187.89 178.03L187.95 178.03L188.01 178.02L188.25 178.02L188.3 178.03L188.37 178.04ZM188.97 181.54L188.85 181.71L188.71 181.88L188.42 182.21L188.26 182.36L187.94 182.66L187.78 182.8L187.61 182.94L187.43 183.07L187.25 183.2L187.06 183.33L186.69 183.56L186.5 183.67L186.3 183.77L186.1 183.88L185.9 183.97L185.7 184.05L185.49 184.14L185.28 184.22L185.06 184.29L184.62 184.42L184.4 184.48L184.18 184.54L183.72 184.62L183.5 184.66L183.03 184.71L182.56 184.74L182.32 184.75L182.09 184.75L181.84 184.74L181.61 184.74L181.37 184.71L174.3 204.18L174.52 204.28L174.73 204.38L174.93 204.48L175.14 204.59L175.33 204.71L175.52 204.82L175.7 204.95L175.88 205.08L176.05 205.2L176.22 205.34L176.54 205.62L176.69 205.76L176.84 205.92L176.98 206.07L177.11 206.23L177.37 206.55L177.48 206.72L177.6 206.89L177.7 207.07L177.8 207.24L177.9 207.41L177.98 207.6L178.06 207.78L178.14 207.96L178.2 208.15L178.27 208.34L178.36 208.72L178.41 208.91L178.45 209.11L178.49 209.51L178.51 209.71L178.52 209.91L178.52 210.11L178.51 210.31L178.49 210.52L178.48 210.72L249.4 229.23L249.52 229.08L249.63 228.91L249.75 228.76L249.87 228.61L250 228.46L250.14 228.31L250.28 228.17L250.42 228.03L250.56 227.9L250.72 227.76L251.02 227.51L251.19 227.38L251.35 227.27L251.69 227.04L251.86 226.94L252.03 226.84L252.21 226.74L252.4 226.65L252.58 226.56L252.77 226.47L252.96 226.39L253.15 226.31L253.54 226.17L253.74 226.11L254.15 225.99L254.55 225.89L254.76 225.85L254.97 225.81L255.39 225.76L255.6 225.74L255.82 225.71L256.03 225.71L256.25 225.69L257.27 225.69L264.33 206.23L264.22 206.18L264.12 206.12L264.01 206.07L263.8 205.96L263.7 205.9L263.6 205.84L263.5 205.79L263.41 205.72L263.31 205.67L263.22 205.6L263.12 205.54L263.03 205.47L262.94 205.41L262.85 205.35L262.77 205.27L262.68 205.21L262.59 205.14L262.26 204.86L262.19 204.78L262.11 204.71L261.89 204.47L261.83 204.39L261.75 204.32L261.69 204.24L261.56 204.07L261.5 203.98L261.44 203.9L261.33 203.73L261.28 203.64L261.22 203.55L261.12 203.36L261.06 203.27L260.95 203.09L260.9 202.99L260.84 202.9L260.79 202.81L260.74 202.71L260.69 202.62L260.65 202.53L260.61 202.43L260.56 202.33L260.53 202.23L260.49 202.14L260.46 202.04L260.42 201.94L260.39 201.85L260.36 201.75L260.33 201.65L260.31 201.56L260.28 201.46L260.26 201.37L260.23 201.27L260.22 201.17L260.2 201.08L260.17 200.88L260.15 200.78L260.14 200.69L260.14 200.59L260.13 200.49L260.12 200.4L260.12 200.02L260.13 199.92L260.13 199.83L260.14 199.65L260.16 199.56L189.23 181.18L189.1 181.36L188.97 181.54Z" id="b8edkPWLi"></path><path d="M199.67 228.19L200.39 228.26L201.09 228.35L201.79 228.46L202.47 228.61L203.15 228.76L203.81 228.95L204.46 229.15L205.1 229.39L205.71 229.64L206.33 229.91L206.92 230.2L207.5 230.5L208.06 230.84L208.6 231.19L209.13 231.55L209.64 231.93L210.13 232.33L210.6 232.75L211.05 233.18L211.49 233.63L211.89 234.09L212.28 234.57L212.65 235.06L212.99 235.56L213.31 236.08L213.6 236.61L213.88 237.15L214.12 237.7L214.34 238.26L214.52 238.83L214.69 239.41L214.82 240L214.93 240.6L215 241.2L215.05 241.82L215.07 242.44L215.05 243.05L215 243.65L214.93 244.25L214.82 244.84L214.69 245.43L214.52 246.01L214.34 246.57L214.12 247.13L213.88 247.68L213.6 248.22L213.31 248.74L212.99 249.26L212.65 249.76L212.28 250.25L211.89 250.73L211.49 251.19L211.05 251.65L210.6 252.08L210.13 252.5L209.64 252.9L209.13 253.29L208.6 253.66L208.06 254.01L207.5 254.34L206.92 254.65L206.33 254.94L205.71 255.22L205.1 255.48L204.46 255.7L203.81 255.92L203.15 256.1L202.47 256.26L201.79 256.41L201.09 256.52L200.39 256.61L199.67 256.68L198.95 256.72L198.22 256.73L197.93 256.73L197.8 256.73L197.66 256.73L197.38 256.71L197.24 256.71L196.96 256.69L196.82 256.68L196.69 256.67L195.86 256.58L195.72 256.56L195.59 256.55L195.45 256.53L195.32 256.51L195.04 256.46L194.91 256.44L194.78 256.42L194.65 256.39L194.51 256.37L194.38 256.34L194.24 256.32L193.47 256.15L193.34 256.12L193.21 256.09L193.08 256.05L192.89 256.51L192.69 256.96L192.47 257.41L192.24 257.84L191.99 258.28L191.72 258.69L191.43 259.11L191.14 259.51L190.83 259.9L190.5 260.29L190.16 260.66L189.81 261.03L189.44 261.39L189.06 261.73L188.67 262.06L188.26 262.39L187.85 262.69L187.42 263L186.98 263.28L186.53 263.56L186.08 263.82L185.61 264.08L185.13 264.31L184.64 264.54L184.14 264.75L183.64 264.95L183.12 265.13L182.61 265.3L182.07 265.45L181.54 265.59L181 265.71L180.44 265.82L179.89 265.91L179.33 265.99L178.76 266.05L178.19 266.09L177.61 266.12L177.03 266.13L176.3 266.11L175.58 266.08L174.87 266.01L174.16 265.92L173.46 265.81L172.78 265.67L172.11 265.51L171.45 265.32L170.8 265.12L170.16 264.89L169.54 264.64L168.93 264.37L168.33 264.08L167.75 263.77L167.19 263.44L166.65 263.09L166.12 262.72L165.61 262.34L165.12 261.94L164.65 261.52L164.19 261.1L163.77 260.65L163.35 260.18L162.96 259.7L162.6 259.21L162.26 258.71L161.94 258.2L161.64 257.66L161.38 257.12L161.13 256.58L160.92 256.02L160.72 255.44L160.56 254.86L160.43 254.27L160.33 253.67L160.24 253.07L160.2 252.46L160.18 251.83L160.2 251.21L160.24 250.6L160.33 249.99L160.43 249.39L160.56 248.8L160.72 248.22L160.92 247.65L161.13 247.09L161.38 246.54L161.64 246L161.94 245.47L162.26 244.95L162.6 244.45L162.96 243.96L163.35 243.48L163.77 243.02L164.19 242.57L164.65 242.14L165.12 241.72L165.61 241.32L166.12 240.94L166.65 240.58L167.19 240.23L167.75 239.9L168.33 239.59L168.93 239.3L169.54 239.03L170.16 238.78L170.8 238.55L171.45 238.35L172.11 238.16L172.78 238L173.46 237.86L174.16 237.74L174.87 237.66L175.58 237.59L176.3 237.55L177.03 237.54L177.18 237.54L177.31 237.54L177.59 237.54L177.73 237.55L177.85 237.56L178.27 237.58L178.4 237.59L178.53 237.6L178.66 237.61L178.8 237.63L178.93 237.64L179.07 237.66L179.2 237.67L179.34 237.69L179.47 237.71L179.6 237.73L179.73 237.74L179.87 237.76L180 237.79L180.14 237.81L180.27 237.83L180.4 237.86L180.53 237.88L180.67 237.9L180.8 237.93L180.94 237.96L181.08 237.98L181.21 238.01L181.48 238.06L181.62 238.1L181.89 238.15L182.03 238.19L182.17 238.22L182.34 237.76L182.53 237.31L182.74 236.86L182.97 236.43L183.21 236L183.47 235.58L183.74 235.16L184.03 234.77L184.34 234.37L184.66 233.98L184.99 233.61L185.34 233.25L185.71 232.89L186.08 232.54L186.47 232.21L186.87 231.89L187.28 231.58L187.71 231.28L188.15 230.99L188.59 230.71L189.06 230.45L189.52 230.2L190.01 229.96L190.5 229.74L191 229.52L191.51 229.32L192.03 229.14L192.55 228.98L193.09 228.82L193.63 228.68L194.18 228.56L194.74 228.45L195.3 228.36L195.88 228.28L196.45 228.22L197.04 228.18L197.63 228.15L198.22 228.14L198.95 228.16L199.67 228.19ZM175.91 240.17L174.82 240.28L173.75 240.46L172.72 240.71L171.72 241.03L170.76 241.42L169.84 241.86L168.98 242.35L168.15 242.91L167.38 243.51L166.67 244.17L166.02 244.86L165.43 245.6L164.91 246.37L164.46 247.19L164.09 248.04L163.79 248.91L163.57 249.82L163.44 250.74L163.39 251.7L163.44 252.65L163.57 253.58L163.79 254.48L164.09 255.36L164.46 256.21L164.91 257.02L165.43 257.8L166.02 258.54L166.67 259.23L167.38 259.88L168.15 260.48L168.98 261.04L169.84 261.54L170.76 261.98L171.72 262.36L172.72 262.68L173.75 262.94L174.82 263.12L175.91 263.23L177.03 263.27L177.94 263.24L178.83 263.17L179.72 263.05L180.57 262.88L181.41 262.67L182.23 262.4L183.02 262.1L183.78 261.76L184.52 261.39L185.22 260.97L185.88 260.52L186.52 260.04L187.11 259.52L187.67 258.96L188.18 258.39L188.65 257.78L189.07 257.15L189.44 256.48L189.76 255.8L190.03 255.1L189.32 254.74L188.63 254.35L187.98 253.94L187.34 253.51L186.74 253.05L186.16 252.57L185.61 252.07L185.09 251.54L184.6 251L184.14 250.44L183.71 249.86L183.31 249.26L182.95 248.64L182.61 248.01L182.31 247.36L182.06 246.71L181.83 246.03L181.63 245.34L181.48 244.65L181.37 243.94L181.37 241.81L181.38 241.73L181.38 241.65L181.38 241.57L181.38 241.49L181.39 241.4L181.4 241.32L181.41 241.24L181.42 241.16L181.43 241.07L181.45 241L181.46 240.91L181.48 240.83L181.5 240.75L181.53 240.67L181.29 240.61L181.05 240.56L180.58 240.46L180.35 240.41L180.12 240.37L179.67 240.3L179.44 240.27L179.22 240.24L179 240.22L178.56 240.18L178.12 240.15L177.25 240.12L177.03 240.12L175.91 240.17ZM196.37 230.84L195.47 230.97L194.6 231.14L193.74 231.36L192.92 231.63L192.11 231.94L191.35 232.29L190.6 232.68L189.89 233.11L189.22 233.58L188.58 234.08L187.98 234.62L187.42 235.19L186.91 235.78L186.44 236.41L186.02 237.07L185.65 237.74L185.32 238.45L185.06 239.17L184.73 240.12L184.66 240.49L184.64 240.6L184.62 240.72L184.57 240.95L184.56 241.06L184.53 241.17L184.45 241.74L184.43 242.08L184.42 242.2L184.42 243.67L184.57 244.51L184.8 245.34L185.1 246.14L185.46 246.92L185.89 247.68L186.38 248.39L186.93 249.07L187.53 249.73L188.18 250.34L188.89 250.91L189.64 251.44L190.43 251.93L191.27 252.36L192.15 252.75L193.06 253.08L194 253.36L194.98 253.59L195.98 253.74L197 253.84L198.05 253.88L199.17 253.83L200.27 253.72L201.33 253.54L202.37 253.29L203.37 252.97L204.33 252.58L205.24 252.14L206.12 251.65L206.93 251.09L207.7 250.49L208.41 249.83L209.07 249.14L209.65 248.4L210.18 247.63L210.62 246.81L211 245.96L211.3 245.09L211.51 244.18L211.65 243.26L211.7 242.3L211.68 241.35L211.56 240.42L211.36 239.52L211.08 238.65L210.72 237.79L210.28 236.98L209.77 236.2L209.19 235.46L208.55 234.77L207.85 234.12L207.08 233.52L206.26 232.96L205.4 232.46L204.48 232.02L203.53 231.64L202.53 231.32L201.49 231.06L200.43 230.88L199.33 230.77L198.22 230.73L197.29 230.76L196.37 230.84Z" id="fQhzygdtl"></path><path d="M199.67 228.19L200.39 228.26L201.09 228.35L201.79 228.46L202.47 228.61L203.15 228.76L203.81 228.95L204.46 229.15L205.1 229.39L205.71 229.64L206.33 229.91L206.92 230.2L207.5 230.5L208.06 230.84L208.6 231.19L209.13 231.55L209.64 231.93L210.13 232.33L210.6 232.75L211.05 233.18L211.49 233.63L211.89 234.09L212.28 234.57L212.65 235.06L212.99 235.56L213.31 236.08L213.6 236.61L213.88 237.15L214.12 237.7L214.34 238.26L214.52 238.83L214.69 239.41L214.82 240L214.93 240.6L215 241.2L215.05 241.82L215.07 242.44L215.05 243.05L215 243.65L214.93 244.25L214.82 244.84L214.69 245.43L214.52 246.01L214.34 246.57L214.12 247.13L213.88 247.68L213.6 248.22L213.31 248.74L212.99 249.26L212.65 249.76L212.28 250.25L211.89 250.73L211.49 251.19L211.05 251.65L210.6 252.08L210.13 252.5L209.64 252.9L209.13 253.29L208.6 253.66L208.06 254.01L207.5 254.34L206.92 254.65L206.33 254.94L205.71 255.22L205.1 255.48L204.46 255.7L203.81 255.92L203.15 256.1L202.47 256.26L201.79 256.41L201.09 256.52L200.39 256.61L199.67 256.68L198.95 256.72L198.22 256.73L197.93 256.73L197.8 256.73L197.66 256.73L197.38 256.71L197.24 256.71L196.96 256.69L196.82 256.68L196.69 256.67L195.86 256.58L195.72 256.56L195.59 256.55L195.45 256.53L195.32 256.51L195.04 256.46L194.91 256.44L194.78 256.42L194.65 256.39L194.51 256.37L194.38 256.34L194.24 256.32L193.47 256.15L193.34 256.12L193.21 256.09L193.08 256.05L192.89 256.51L192.69 256.96L192.47 257.41L192.24 257.84L191.99 258.28L191.72 258.69L191.43 259.11L191.14 259.51L190.83 259.9L190.5 260.29L190.16 260.66L189.81 261.03L189.44 261.39L189.06 261.73L188.67 262.06L188.26 262.39L187.85 262.69L187.42 263L186.98 263.28L186.53 263.56L186.08 263.82L185.61 264.08L185.13 264.31L184.64 264.54L184.14 264.75L183.64 264.95L183.12 265.13L182.61 265.3L182.07 265.45L181.54 265.59L181 265.71L180.44 265.82L179.89 265.91L179.33 265.99L178.76 266.05L178.19 266.09L177.61 266.12L177.03 266.13L176.3 266.11L175.58 266.08L174.87 266.01L174.16 265.92L173.46 265.81L172.78 265.67L172.11 265.51L171.45 265.32L170.8 265.12L170.16 264.89L169.54 264.64L168.93 264.37L168.33 264.08L167.75 263.77L167.19 263.44L166.65 263.09L166.12 262.72L165.61 262.34L165.12 261.94L164.65 261.52L164.19 261.1L163.77 260.65L163.35 260.18L162.96 259.7L162.6 259.21L162.26 258.71L161.94 258.2L161.64 257.66L161.38 257.12L161.13 256.58L160.92 256.02L160.72 255.44L160.56 254.86L160.43 254.27L160.33 253.67L160.24 253.07L160.2 252.46L160.18 251.83L160.2 251.21L160.24 250.6L160.33 249.99L160.43 249.39L160.56 248.8L160.72 248.22L160.92 247.65L161.13 247.09L161.38 246.54L161.64 246L161.94 245.47L162.26 244.95L162.6 244.45L162.96 243.96L163.35 243.48L163.77 243.02L164.19 242.57L164.65 242.14L165.12 241.72L165.61 241.32L166.12 240.94L166.65 240.58L167.19 240.23L167.75 239.9L168.33 239.59L168.93 239.3L169.54 239.03L170.16 238.78L170.8 238.55L171.45 238.35L172.11 238.16L172.78 238L173.46 237.86L174.16 237.74L174.87 237.66L175.58 237.59L176.3 237.55L177.03 237.54L177.18 237.54L177.31 237.54L177.59 237.54L177.73 237.55L177.85 237.56L178.27 237.58L178.4 237.59L178.53 237.6L178.66 237.61L178.8 237.63L178.93 237.64L179.07 237.66L179.2 237.67L179.34 237.69L179.47 237.71L179.6 237.73L179.73 237.74L179.87 237.76L180 237.79L180.14 237.81L180.27 237.83L180.4 237.86L180.53 237.88L180.67 237.9L180.8 237.93L180.94 237.96L181.08 237.98L181.21 238.01L181.48 238.06L181.62 238.1L181.89 238.15L182.03 238.19L182.17 238.22L182.34 237.76L182.53 237.31L182.74 236.86L182.97 236.43L183.21 236L183.47 235.58L183.74 235.16L184.03 234.77L184.34 234.37L184.66 233.98L184.99 233.61L185.34 233.25L185.71 232.89L186.08 232.54L186.47 232.21L186.87 231.89L187.28 231.58L187.71 231.28L188.15 230.99L188.59 230.71L189.06 230.45L189.52 230.2L190.01 229.96L190.5 229.74L191 229.52L191.51 229.32L192.03 229.14L192.55 228.98L193.09 228.82L193.63 228.68L194.18 228.56L194.74 228.45L195.3 228.36L195.88 228.28L196.45 228.22L197.04 228.18L197.63 228.15L198.22 228.14L198.95 228.16L199.67 228.19ZM175.91 240.17L174.82 240.28L173.75 240.46L172.72 240.71L171.72 241.03L170.76 241.42L169.84 241.86L168.98 242.35L168.15 242.91L167.38 243.51L166.67 244.17L166.02 244.86L165.43 245.6L164.91 246.37L164.46 247.19L164.09 248.04L163.79 248.91L163.57 249.82L163.44 250.74L163.39 251.7L163.44 252.65L163.57 253.58L163.79 254.48L164.09 255.36L164.46 256.21L164.91 257.02L165.43 257.8L166.02 258.54L166.67 259.23L167.38 259.88L168.15 260.48L168.98 261.04L169.84 261.54L170.76 261.98L171.72 262.36L172.72 262.68L173.75 262.94L174.82 263.12L175.91 263.23L177.03 263.27L177.94 263.24L178.83 263.17L179.72 263.05L180.57 262.88L181.41 262.67L182.23 262.4L183.02 262.1L183.78 261.76L184.52 261.39L185.22 260.97L185.88 260.52L186.52 260.04L187.11 259.52L187.67 258.96L188.18 258.39L188.65 257.78L189.07 257.15L189.44 256.48L189.76 255.8L190.03 255.1L189.32 254.74L188.63 254.35L187.98 253.94L187.34 253.51L186.74 253.05L186.16 252.57L185.61 252.07L185.09 251.54L184.6 251L184.14 250.44L183.71 249.86L183.31 249.26L182.95 248.64L182.61 248.01L182.31 247.36L182.06 246.71L181.83 246.03L181.63 245.34L181.48 244.65L181.37 243.94L181.37 241.81L181.38 241.73L181.38 241.65L181.38 241.57L181.38 241.49L181.39 241.4L181.4 241.32L181.41 241.24L181.42 241.16L181.43 241.07L181.45 241L181.46 240.91L181.48 240.83L181.5 240.75L181.53 240.67L181.29 240.61L181.05 240.56L180.58 240.46L180.35 240.41L180.12 240.37L179.67 240.3L179.44 240.27L179.22 240.24L179 240.22L178.56 240.18L178.12 240.15L177.25 240.12L177.03 240.12L175.91 240.17ZM196.37 230.84L195.47 230.97L194.6 231.14L193.74 231.36L192.92 231.63L192.11 231.94L191.35 232.29L190.6 232.68L189.89 233.11L189.22 233.58L188.58 234.08L187.98 234.62L187.42 235.19L186.91 235.78L186.44 236.41L186.02 237.07L185.65 237.74L185.32 238.45L185.06 239.17L184.73 240.12L184.66 240.49L184.64 240.6L184.62 240.72L184.57 240.95L184.56 241.06L184.53 241.17L184.45 241.74L184.43 242.08L184.42 242.2L184.42 243.67L184.57 244.51L184.8 245.34L185.1 246.14L185.46 246.92L185.89 247.68L186.38 248.39L186.93 249.07L187.53 249.73L188.18 250.34L188.89 250.91L189.64 251.44L190.43 251.93L191.27 252.36L192.15 252.75L193.06 253.08L194 253.36L194.98 253.59L195.98 253.74L197 253.84L198.05 253.88L199.17 253.83L200.27 253.72L201.33 253.54L202.37 253.29L203.37 252.97L204.33 252.58L205.24 252.14L206.12 251.65L206.93 251.09L207.7 250.49L208.41 249.83L209.07 249.14L209.65 248.4L210.18 247.63L210.62 246.81L211 245.96L211.3 245.09L211.51 244.18L211.65 243.26L211.7 242.3L211.68 241.35L211.56 240.42L211.36 239.52L211.08 238.65L210.72 237.79L210.28 236.98L209.77 236.2L209.19 235.46L208.55 234.77L207.85 234.12L207.08 233.52L206.26 232.96L205.4 232.46L204.48 232.02L203.53 231.64L202.53 231.32L201.49 231.06L200.43 230.88L199.33 230.77L198.22 230.73L197.29 230.76L196.37 230.84Z" id="h1qSCdkDWt"></path><path d="M237.65 243.24L238.71 243.39L239.76 243.59L240.77 243.85L241.76 244.16L242.72 244.52L243.65 244.93L244.54 245.38L245.4 245.88L246.22 246.42L246.99 247L247.72 247.62L248.41 248.28L249.05 248.98L249.63 249.7L250.17 250.45L250.65 251.24L251.07 252.06L251.44 252.9L251.74 253.76L251.98 254.64L252.16 255.55L252.26 256.48L252.29 257.42L252.26 258.35L252.16 259.28L251.98 260.19L251.74 261.07L251.44 261.93L251.07 262.77L250.65 263.59L250.17 264.38L249.63 265.13L249.05 265.86L248.41 266.55L247.72 267.21L246.99 267.83L246.22 268.41L245.4 268.95L244.54 269.45L243.65 269.91L242.72 270.31L241.76 270.67L240.77 270.98L239.76 271.24L238.71 271.44L237.65 271.59L236.55 271.68L235.44 271.71L234.34 271.68L233.25 271.59L232.18 271.44L231.14 271.24L230.12 270.98L229.13 270.67L228.17 270.31L227.25 269.91L226.35 269.45L225.49 268.95L224.68 268.41L223.9 267.83L223.17 267.21L222.49 266.55L221.85 265.86L221.26 265.13L220.72 264.38L220.25 263.59L219.82 262.77L219.45 261.93L219.15 261.07L218.91 260.19L218.74 259.28L218.64 258.35L218.59 257.42L218.64 256.48L218.74 255.55L218.91 254.64L219.15 253.76L219.45 252.9L219.82 252.06L220.25 251.24L220.72 250.45L221.26 249.7L221.85 248.98L222.49 248.28L223.17 247.62L223.9 247L224.68 246.42L225.49 245.88L226.35 245.38L227.25 244.93L228.17 244.52L229.13 244.16L230.12 243.85L231.14 243.59L232.18 243.39L233.25 243.24L234.34 243.15L235.44 243.12L236.55 243.15L237.65 243.24ZM233.23 245.99L232.17 246.18L231.13 246.43L230.14 246.75L229.17 247.14L228.26 247.58L227.38 248.07L226.57 248.63L225.8 249.23L225.09 249.88L224.44 250.58L223.85 251.31L223.33 252.09L222.88 252.9L222.5 253.76L222.2 254.63L221.99 255.53L221.85 256.46L221.81 257.42L221.85 258.37L221.99 259.29L222.2 260.2L222.5 261.07L222.88 261.92L223.33 262.74L223.85 263.51L224.44 264.25L225.09 264.95L225.8 265.6L226.57 266.2L227.38 266.76L228.26 267.26L229.17 267.7L230.14 268.08L231.13 268.4L232.17 268.65L233.23 268.83L234.33 268.95L235.44 268.99L236.57 268.95L237.66 268.83L238.73 268.65L239.76 268.4L240.76 268.08L241.72 267.7L242.63 267.26L243.5 266.76L244.32 266.2L245.09 265.6L245.8 264.95L246.46 264.25L247.04 263.51L247.57 262.74L248.01 261.92L248.39 261.07L248.69 260.2L248.91 259.29L249.04 258.37L249.09 257.42L249.04 256.46L248.91 255.53L248.69 254.63L248.39 253.76L248.01 252.9L247.57 252.09L247.04 251.31L246.46 250.58L245.8 249.88L245.09 249.23L244.32 248.63L243.5 248.07L242.63 247.58L241.72 247.14L240.76 246.75L239.76 246.43L238.73 246.18L237.66 245.99L236.57 245.88L235.44 245.84L234.33 245.88L233.23 245.99Z" id="a508gaxxZn"></path><path d="M237.65 243.24L238.71 243.39L239.76 243.59L240.77 243.85L241.76 244.16L242.72 244.52L243.65 244.93L244.54 245.38L245.4 245.88L246.22 246.42L246.99 247L247.72 247.62L248.41 248.28L249.05 248.98L249.63 249.7L250.17 250.45L250.65 251.24L251.07 252.06L251.44 252.9L251.74 253.76L251.98 254.64L252.16 255.55L252.26 256.48L252.29 257.42L252.26 258.35L252.16 259.28L251.98 260.19L251.74 261.07L251.44 261.93L251.07 262.77L250.65 263.59L250.17 264.38L249.63 265.13L249.05 265.86L248.41 266.55L247.72 267.21L246.99 267.83L246.22 268.41L245.4 268.95L244.54 269.45L243.65 269.91L242.72 270.31L241.76 270.67L240.77 270.98L239.76 271.24L238.71 271.44L237.65 271.59L236.55 271.68L235.44 271.71L234.34 271.68L233.25 271.59L232.18 271.44L231.14 271.24L230.12 270.98L229.13 270.67L228.17 270.31L227.25 269.91L226.35 269.45L225.49 268.95L224.68 268.41L223.9 267.83L223.17 267.21L222.49 266.55L221.85 265.86L221.26 265.13L220.72 264.38L220.25 263.59L219.82 262.77L219.45 261.93L219.15 261.07L218.91 260.19L218.74 259.28L218.64 258.35L218.59 257.42L218.64 256.48L218.74 255.55L218.91 254.64L219.15 253.76L219.45 252.9L219.82 252.06L220.25 251.24L220.72 250.45L221.26 249.7L221.85 248.98L222.49 248.28L223.17 247.62L223.9 247L224.68 246.42L225.49 245.88L226.35 245.38L227.25 244.93L228.17 244.52L229.13 244.16L230.12 243.85L231.14 243.59L232.18 243.39L233.25 243.24L234.34 243.15L235.44 243.12L236.55 243.15L237.65 243.24ZM233.23 245.99L232.17 246.18L231.13 246.43L230.14 246.75L229.17 247.14L228.26 247.58L227.38 248.07L226.57 248.63L225.8 249.23L225.09 249.88L224.44 250.58L223.85 251.31L223.33 252.09L222.88 252.9L222.5 253.76L222.2 254.63L221.99 255.53L221.85 256.46L221.81 257.42L221.85 258.37L221.99 259.29L222.2 260.2L222.5 261.07L222.88 261.92L223.33 262.74L223.85 263.51L224.44 264.25L225.09 264.95L225.8 265.6L226.57 266.2L227.38 266.76L228.26 267.26L229.17 267.7L230.14 268.08L231.13 268.4L232.17 268.65L233.23 268.83L234.33 268.95L235.44 268.99L236.57 268.95L237.66 268.83L238.73 268.65L239.76 268.4L240.76 268.08L241.72 267.7L242.63 267.26L243.5 266.76L244.32 266.2L245.09 265.6L245.8 264.95L246.46 264.25L247.04 263.51L247.57 262.74L248.01 261.92L248.39 261.07L248.69 260.2L248.91 259.29L249.04 258.37L249.09 257.42L249.04 256.46L248.91 255.53L248.69 254.63L248.39 253.76L248.01 252.9L247.57 252.09L247.04 251.31L246.46 250.58L245.8 249.88L245.09 249.23L244.32 248.63L243.5 248.07L242.63 247.58L241.72 247.14L240.76 246.75L239.76 246.43L238.73 246.18L237.66 245.99L236.57 245.88L235.44 245.84L234.33 245.88L233.23 245.99Z" id="c4DSWI1aaL"></path></defs><g><g><use xlink:href="#fI7gLsjxx" opacity="1" fill="#000000" fill-opacity="1"></use><g><use xlink:href="#fI7gLsjxx" opacity="1" fill-opacity="0" stroke="#000000" stroke-width="1" stroke-opacity="0"></use></g></g><g><use xlink:href="#dzs8sYyJx" opacity="1" fill="#000000" fill-opacity="0"></use><g><use xlink:href="#dzs8sYyJx" opacity="1" fill-opacity="0" stroke="#000000" stroke-width="1" stroke-opacity="0"></use></g></g><g><use xlink:href="#hmujsZeP3" opacity="1" fill="#ff5103" fill-opacity="1"></use><g><use xlink:href="#hmujsZeP3" opacity="1" fill-opacity="0" stroke="#000000" stroke-width="1" stroke-opacity="0"></use></g></g><g><use xlink:href="#ayh1yFSNv" opacity="1" fill="#000000" fill-opacity="0"></use><g><use xlink:href="#ayh1yFSNv" opacity="1" fill-opacity="0" stroke="#000000" stroke-width="1" stroke-opacity="0"></use></g></g><g><use xlink:href="#a56HQbxuh3" opacity="1" fill="#ff5103" fill-opacity="1"></use><g><use xlink:href="#a56HQbxuh3" opacity="1" fill-opacity="0" stroke="#000000" stroke-width="1" stroke-opacity="0"></use></g></g><g><use xlink:href="#f9btTVFXJl" opacity="1" fill="#000000" fill-opacity="0"></use><g><use xlink:href="#f9btTVFXJl" opacity="1" fill-opacity="0" stroke="#000000" stroke-width="1" stroke-opacity="0"></use></g></g><g><use xlink:href="#a1X6Deunls" opacity="1" fill="#ff5103" fill-opacity="1"></use><g><use xlink:href="#a1X6Deunls" opacity="1" fill-opacity="0" stroke="#000000" stroke-width="1" stroke-opacity="0"></use></g></g><g><use xlink:href="#e1piRjVl4y" opacity="1" fill="#000000" fill-opacity="0"></use><g><use xlink:href="#e1piRjVl4y" opacity="1" fill-opacity="0" stroke="#000000" stroke-width="1" stroke-opacity="0"></use></g></g><g><use xlink:href="#a3dLqnqxuA" opacity="1" fill="#ff5103" fill-opacity="1"></use><g><use xlink:href="#a3dLqnqxuA" opacity="1" fill-opacity="0" stroke="#000000" stroke-width="1" stroke-opacity="0"></use></g></g><g><use xlink:href="#b4e4VUW0yb" opacity="1" fill="#000000" fill-opacity="0"></use><g><use xlink:href="#b4e4VUW0yb" opacity="1" fill-opacity="0" stroke="#000000" stroke-width="1" stroke-opacity="0"></use></g></g><g><use xlink:href="#b2gJt2mdB" opacity="1" fill="#ff5103" fill-opacity="1"></use><g><use xlink:href="#b2gJt2mdB" opacity="1" fill-opacity="0" stroke="#000000" stroke-width="1" stroke-opacity="0"></use></g></g><g><use xlink:href="#elxMmsM2H" opacity="1" fill="#000000" fill-opacity="0"></use><g><use xlink:href="#elxMmsM2H" opacity="1" fill-opacity="0" stroke="#000000" stroke-width="1" stroke-opacity="0"></use></g></g><g><use xlink:href="#iGE8kOI3O" opacity="1" fill="#ff5103" fill-opacity="1"></use><g><use xlink:href="#iGE8kOI3O" opacity="1" fill-opacity="0" stroke="#000000" stroke-width="1" stroke-opacity="0"></use></g></g><g><use xlink:href="#b8edkPWLi" opacity="1" fill="#000000" fill-opacity="0"></use><g><use xlink:href="#b8edkPWLi" opacity="1" fill-opacity="0" stroke="#000000" stroke-width="1" stroke-opacity="0"></use></g></g><g><use xlink:href="#fQhzygdtl" opacity="1" fill="#ff5103" fill-opacity="1"></use><g><use xlink:href="#fQhzygdtl" opacity="1" fill-opacity="0" stroke="#000000" stroke-width="1" stroke-opacity="0"></use></g></g><g><use xlink:href="#h1qSCdkDWt" opacity="1" fill="#000000" fill-opacity="0"></use><g><use xlink:href="#h1qSCdkDWt" opacity="1" fill-opacity="0" stroke="#000000" stroke-width="1" stroke-opacity="0"></use></g></g><g><use xlink:href="#a508gaxxZn" opacity="1" fill="#ff5103" fill-opacity="1"></use><g><use xlink:href="#a508gaxxZn" opacity="1" fill-opacity="0" stroke="#000000" stroke-width="1" stroke-opacity="0"></use></g></g><g><use xlink:href="#c4DSWI1aaL" opacity="1" fill="#000000" fill-opacity="0"></use><g><use xlink:href="#c4DSWI1aaL" opacity="1" fill-opacity="0" stroke="#000000" stroke-width="1" stroke-opacity="0"></use></g></g></g></svg>