<?xml version="1.0" encoding="UTF-8" standalone="no"?>
<!DOCTYPE svg PUBLIC "-//W3C//DTD SVG 1.1//EN" "http://www.w3.org/Graphics/SVG/1.1/DTD/svg11.dtd">
<svg version="1.1" xmlns="http://www.w3.org/2000/svg" xmlns:xlink="http://www.w3.org/1999/xlink" preserveAspectRatio="xMidYMid meet" viewBox="91.16006255728607 72.26009455728601 468.5907659745368 376.229660485428" width="150" height="150"><defs><path d="M338.83 300.55L339.81 300.64L340.78 300.77L341.75 300.94L342.71 301.15L343.67 301.39L344.61 301.67L345.55 301.99L346.48 302.34L347.39 302.74L348.29 303.17L349.18 303.64L350.06 304.14L350.91 304.68L351.75 305.26L352.57 305.88L353.38 306.53L354.16 307.23L354.92 307.95L359.09 312.13L359.16 312.21L359.23 312.28L359.3 312.37L359.36 312.45L359.42 312.53L359.47 312.62L359.52 312.71L359.57 312.79L359.61 312.89L359.65 312.98L359.69 313.07L359.72 313.16L359.75 313.26L359.77 313.35L359.79 313.45L359.81 313.55L359.82 313.65L359.83 313.74L359.84 313.84L359.84 313.94L359.84 314.04L359.83 314.14L359.82 314.23L359.81 314.33L359.79 314.43L359.77 314.53L359.75 314.62L359.72 314.72L359.69 314.81L359.65 314.9L359.61 314.99L359.57 315.09L359.52 315.17L359.47 315.26L359.42 315.35L359.36 315.43L359.3 315.51L359.23 315.6L359.16 315.67L359.09 315.75L281.64 393.2L281.4 393.44L281.15 393.67L280.9 393.89L280.65 394.11L280.39 394.32L280.13 394.53L279.86 394.74L279.59 394.93L279.32 395.13L279.04 395.31L278.77 395.49L278.48 395.67L278.2 395.84L277.91 396.01L277.62 396.16L277.32 396.32L277.02 396.46L276.72 396.61L276.42 396.74L276.12 396.87L275.81 397L275.5 397.11L275.19 397.23L274.87 397.33L274.56 397.43L274.24 397.53L273.92 397.61L273.59 397.7L273.27 397.77L272.94 397.84L272.62 397.9L272.29 397.96L271.96 398.01L271.63 398.05L271.29 398.09L270.96 398.12L270.63 398.15L270.29 398.16L269.95 398.18L269.62 398.18L190.41 398.18L143.86 444.74L143.79 444.81L143.71 444.88L143.63 444.95L143.55 445.01L143.46 445.07L143.38 445.12L143.29 445.17L143.2 445.22L143.11 445.26L143.02 445.3L142.92 445.34L142.83 445.37L142.74 445.4L142.64 445.42L142.54 445.44L142.45 445.46L142.35 445.47L142.25 445.48L142.15 445.49L142.05 445.49L141.96 445.49L141.86 445.48L141.76 445.47L141.66 445.46L141.57 445.44L141.47 445.42L141.37 445.4L141.28 445.37L141.18 445.34L141.09 445.3L141 445.26L140.91 445.22L140.82 445.17L140.73 445.12L140.65 445.07L140.56 445.01L140.48 444.95L140.4 444.88L140.32 444.81L140.24 444.74L92.91 397.4L92.84 397.32L92.77 397.24L92.7 397.16L92.64 397.08L92.58 397L92.53 396.91L92.48 396.82L92.43 396.73L92.39 396.64L92.35 396.55L92.31 396.46L92.28 396.37L92.25 396.27L92.23 396.17L92.21 396.08L92.19 395.98L92.18 395.88L92.17 395.79L92.16 395.69L92.16 395.59L92.16 395.49L92.17 395.39L92.18 395.3L92.19 395.2L92.21 395.1L92.23 395L92.25 394.91L92.28 394.81L92.31 394.72L92.35 394.63L92.39 394.53L92.43 394.44L92.48 394.35L92.53 394.27L92.58 394.18L92.64 394.1L92.7 394.01L92.77 393.93L92.84 393.86L92.91 393.78L158.35 328.34L158.68 328.02L159.01 327.71L159.35 327.4L159.69 327.1L160.04 326.8L160.39 326.51L160.75 326.23L161.11 325.95L161.48 325.69L161.85 325.42L162.22 325.17L162.6 324.92L162.99 324.68L163.37 324.44L163.76 324.21L164.16 323.99L164.56 323.78L164.96 323.57L165.36 323.37L165.77 323.17L166.18 322.99L166.6 322.81L167.02 322.64L167.44 322.47L167.86 322.31L168.29 322.16L168.72 322.02L169.15 321.89L169.59 321.76L170.02 321.64L170.46 321.52L170.9 321.42L171.35 321.32L171.79 321.23L172.24 321.15L172.69 321.07L173.14 321.01L173.6 320.95L174.05 320.9L174.51 320.86L203.39 320.86L203.91 320.86L204.42 320.88L204.93 320.92L205.44 320.98L205.94 321.04L206.44 321.13L206.94 321.22L207.43 321.34L207.92 321.46L208.4 321.6L208.87 321.76L209.34 321.92L209.81 322.11L210.27 322.3L210.72 322.51L211.17 322.73L211.6 322.96L212.03 323.21L212.46 323.47L212.87 323.74L213.28 324.02L213.68 324.31L214.07 324.62L214.45 324.94L214.83 325.26L215.19 325.6L215.54 325.95L215.89 326.32L216.22 326.69L216.55 327.07L216.86 327.46L217.16 327.86L217.45 328.28L217.73 328.7L217.99 329.13L218.25 329.57L218.49 330.02L218.72 330.48L218.93 330.94L219.14 331.42L219.2 331.59L219.28 331.76L219.36 331.93L219.44 332.09L219.53 332.25L219.62 332.4L219.72 332.56L219.82 332.71L219.93 332.85L220.04 332.99L220.15 333.13L220.27 333.27L220.39 333.4L220.52 333.53L220.64 333.65L220.78 333.77L220.91 333.89L221.05 334L221.19 334.11L221.34 334.21L221.48 334.31L221.63 334.4L221.79 334.5L221.94 334.58L222.1 334.66L222.26 334.74L222.43 334.81L222.59 334.88L222.76 334.94L222.93 335L223.1 335.05L223.27 335.1L223.45 335.14L223.63 335.18L223.81 335.21L223.99 335.24L224.17 335.26L224.35 335.28L224.53 335.29L224.72 335.3L260.68 335.3L261.29 335.3L261.9 335.33L262.5 335.38L263.1 335.45L263.69 335.54L264.28 335.65L264.86 335.78L265.44 335.93L266 336.1L266.56 336.28L267.11 336.49L267.66 336.71L268.19 336.95L268.71 337.21L269.23 337.48L269.73 337.77L270.23 338.08L270.71 338.4L271.18 338.74L271.64 339.1L272.09 339.47L272.53 339.85L272.95 340.25L273.36 340.67L273.76 341.09L274.14 341.53L274.51 341.99L274.86 342.45L275.2 342.93L275.53 343.42L275.83 343.93L276.12 344.44L276.4 344.97L276.65 345.5L276.89 346.05L277.11 346.61L277.31 347.18L277.5 347.76L277.66 348.34L277.81 348.94L318.81 307.95L318.83 307.93L319.59 307.2L320.37 306.51L321.17 305.86L321.99 305.24L322.83 304.67L323.69 304.12L324.56 303.62L325.45 303.15L326.36 302.72L327.27 302.33L328.2 301.98L329.14 301.66L330.08 301.38L331.04 301.14L332 300.93L332.97 300.77L333.94 300.64L334.92 300.54L335.9 300.49L336.88 300.47L337.85 300.49L338.83 300.55ZM335.3 305.84L334.52 305.92L333.75 306.02L332.98 306.15L332.21 306.31L331.45 306.49L330.7 306.71L329.95 306.96L329.21 307.23L328.48 307.54L327.75 307.87L327.04 308.23L326.34 308.62L325.65 309.04L324.98 309.49L324.32 309.97L323.67 310.47L323.04 311.01L322.43 311.58L277.67 356.32L277.52 356.88L277.36 357.44L277.17 357.99L276.97 358.53L276.75 359.06L276.52 359.58L276.26 360.09L276 360.59L275.71 361.08L275.41 361.56L275.1 362.03L274.77 362.48L274.43 362.92L274.07 363.36L273.7 363.77L273.32 364.18L272.92 364.57L272.51 364.95L272.09 365.32L271.66 365.67L271.21 366L270.76 366.33L270.3 366.63L269.82 366.92L269.34 367.2L268.84 367.46L268.34 367.71L267.83 367.94L267.31 368.15L266.78 368.34L266.25 368.52L265.7 368.68L265.15 368.82L264.6 368.95L264.04 369.05L263.47 369.14L262.9 369.21L262.32 369.26L261.74 369.29L261.15 369.3L224.72 369.31L224.61 369.31L224.51 369.3L224.41 369.29L224.3 369.28L224.2 369.26L224.11 369.24L224.01 369.21L223.91 369.18L223.82 369.15L223.72 369.11L223.63 369.07L223.54 369.02L223.46 368.98L223.37 368.93L223.29 368.87L223.21 368.82L223.13 368.76L223.05 368.69L222.98 368.63L222.91 368.56L222.84 368.49L222.78 368.42L222.71 368.34L222.65 368.26L222.6 368.18L222.54 368.1L222.49 368.01L222.45 367.93L222.4 367.84L222.36 367.75L222.32 367.65L222.29 367.56L222.26 367.46L222.23 367.37L222.21 367.27L222.19 367.17L222.18 367.06L222.17 366.96L222.16 366.86L222.16 366.75L222.16 366.64L222.17 366.54L222.18 366.44L222.19 366.33L222.21 366.23L222.23 366.13L222.26 366.04L222.29 365.94L222.32 365.85L222.36 365.75L222.4 365.66L222.45 365.57L222.49 365.49L222.54 365.4L222.6 365.32L222.65 365.24L222.71 365.16L222.78 365.08L222.84 365.01L222.91 364.94L222.98 364.87L223.05 364.81L223.13 364.74L223.21 364.68L223.29 364.63L223.37 364.57L223.46 364.52L223.54 364.48L223.63 364.43L223.72 364.39L223.82 364.35L223.91 364.32L224.01 364.29L224.11 364.26L224.2 364.24L224.3 364.22L224.41 364.21L224.51 364.2L224.61 364.19L224.72 364.19L261.15 364.18L261.57 364.17L262 364.15L262.41 364.11L262.83 364.06L263.24 363.99L263.64 363.91L264.04 363.82L264.44 363.72L264.83 363.6L265.21 363.46L265.59 363.32L265.97 363.16L266.33 362.99L266.69 362.81L267.05 362.61L267.39 362.41L267.73 362.19L268.06 361.96L268.38 361.72L268.7 361.47L269 361.21L269.3 360.94L269.59 360.66L269.87 360.37L270.14 360.07L270.39 359.76L270.64 359.45L270.88 359.12L271.11 358.78L271.32 358.44L271.53 358.09L271.72 357.73L271.9 357.36L272.07 356.98L272.22 356.6L272.37 356.21L272.5 355.82L272.61 355.41L272.72 355.01L272.81 354.59L272.82 354.5L272.84 354.43L272.85 354.37L272.86 354.31L272.87 354.25L272.88 354.18L272.89 354.12L272.9 354.06L272.91 354L272.92 353.94L272.92 353.88L272.93 353.82L272.94 353.76L272.95 353.7L272.96 353.64L272.96 353.58L272.97 353.52L272.97 353.46L272.98 353.4L272.99 353.34L272.99 353.28L273 353.22L273 353.16L273.01 353.1L273.01 353.03L273.01 352.97L273.02 352.91L273.02 352.85L273.02 352.79L273.02 352.73L273.03 352.67L273.03 352.61L273.03 352.55L273.03 352.49L273.03 352.43L273.03 352.37L273.03 352.3L273.03 352.24L273.03 352.18L273.03 352.12L273.03 352.06L273 351.57L272.95 351.08L272.88 350.6L272.79 350.13L272.69 349.67L272.56 349.21L272.42 348.76L272.27 348.31L272.09 347.88L271.9 347.45L271.7 347.03L271.48 346.62L271.24 346.22L270.99 345.84L270.73 345.46L270.45 345.09L270.16 344.73L269.86 344.39L269.54 344.05L269.21 343.73L268.87 343.42L268.52 343.13L268.16 342.85L267.79 342.58L267.4 342.32L267.01 342.08L266.61 341.85L266.19 341.64L265.77 341.45L265.34 341.27L264.91 341.1L264.46 340.96L264.01 340.83L263.55 340.71L263.09 340.62L262.61 340.54L262.14 340.48L261.65 340.44L261.17 340.42L260.68 340.42L224.72 340.42L224.38 340.41L224.04 340.39L223.7 340.36L223.37 340.32L223.04 340.28L222.71 340.22L222.38 340.15L222.06 340.08L221.74 339.99L221.42 339.9L221.11 339.79L220.8 339.68L220.5 339.56L220.2 339.43L219.9 339.29L219.61 339.14L219.32 338.98L219.04 338.82L218.76 338.65L218.48 338.47L218.22 338.28L217.96 338.08L217.7 337.88L217.45 337.67L217.21 337.45L216.97 337.22L216.74 336.99L216.51 336.75L216.29 336.5L216.08 336.25L215.88 335.99L215.68 335.72L215.49 335.45L215.31 335.17L215.14 334.89L214.98 334.59L214.82 334.3L214.67 333.99L214.53 333.68L214.4 333.37L214.26 333.04L214.11 332.71L213.95 332.39L213.78 332.08L213.6 331.77L213.42 331.47L213.22 331.17L213.02 330.88L212.81 330.6L212.59 330.33L212.36 330.06L212.13 329.8L211.89 329.54L211.64 329.3L211.39 329.06L211.13 328.83L210.86 328.61L210.59 328.4L210.31 328.19L210.02 327.99L209.73 327.8L209.44 327.62L209.14 327.45L208.83 327.29L208.52 327.13L208.2 326.99L207.88 326.85L207.56 326.72L207.23 326.61L206.89 326.5L206.56 326.4L206.22 326.31L205.87 326.23L205.53 326.17L205.18 326.11L204.82 326.06L204.47 326.02L204.11 326L203.75 325.98L203.39 325.98L174.51 325.98L174.16 326.02L173.8 326.06L173.45 326.12L173.1 326.18L172.75 326.24L172.4 326.31L172.06 326.39L171.71 326.47L171.37 326.56L171.03 326.66L170.69 326.76L170.35 326.86L170.02 326.97L169.69 327.09L169.35 327.21L169.03 327.34L168.7 327.47L168.38 327.61L168.05 327.75L167.74 327.9L167.42 328.06L167.1 328.22L166.79 328.38L166.48 328.55L166.18 328.73L165.88 328.91L165.58 329.09L165.28 329.28L164.99 329.48L164.69 329.68L164.41 329.88L164.12 330.1L163.84 330.31L163.56 330.53L163.29 330.76L163.02 330.99L162.75 331.22L162.49 331.46L162.23 331.71L161.97 331.96L98.34 395.59L142.05 439.31L187.54 393.81L187.58 393.77L187.62 393.74L187.66 393.71L187.69 393.67L187.73 393.64L187.77 393.61L187.81 393.58L187.85 393.55L187.89 393.52L187.93 393.49L187.98 393.46L188.02 393.44L188.06 393.41L188.11 393.39L188.15 393.36L188.19 393.34L188.24 393.32L188.28 393.29L188.33 393.27L188.38 393.25L188.42 393.24L188.47 393.22L188.52 393.2L188.56 393.19L188.61 393.17L188.66 393.16L188.71 393.14L188.76 393.13L188.8 393.12L188.85 393.11L188.9 393.1L188.95 393.09L189 393.08L189.05 393.08L189.1 393.07L189.15 393.07L189.2 393.06L189.25 393.06L189.3 393.06L189.36 393.06L269.62 393.06L269.85 393.06L270.09 393.05L270.32 393.04L270.56 393.02L270.79 393L271.02 392.97L271.25 392.94L271.49 392.91L271.72 392.87L271.94 392.82L272.17 392.77L272.4 392.72L272.62 392.66L272.85 392.6L273.07 392.54L273.29 392.47L273.51 392.39L273.73 392.31L273.95 392.23L274.16 392.14L274.38 392.05L274.59 391.96L274.8 391.86L275.01 391.76L275.21 391.65L275.42 391.54L275.62 391.42L275.82 391.3L276.01 391.18L276.21 391.05L276.4 390.92L276.59 390.79L276.78 390.65L276.97 390.51L277.15 390.36L277.33 390.21L277.51 390.06L277.68 389.9L277.86 389.74L278.03 389.58L353.66 313.94L351.3 311.58L350.68 311.01L350.05 310.47L349.4 309.97L348.74 309.49L348.07 309.04L347.38 308.62L346.68 308.23L345.97 307.87L345.24 307.54L344.51 307.23L343.77 306.96L343.02 306.71L342.27 306.49L341.51 306.31L340.74 306.15L339.97 306.02L339.2 305.92L338.42 305.84L337.64 305.8L336.86 305.79L336.08 305.8L335.3 305.84Z" id="b3onFhPeC3"></path><path d="M506.95 73.27L507.05 73.28L507.15 73.29L507.25 73.31L507.34 73.33L507.44 73.35L507.53 73.38L507.63 73.41L507.72 73.45L507.81 73.49L507.9 73.53L507.99 73.58L508.08 73.63L508.16 73.68L508.25 73.74L508.33 73.8L508.41 73.87L508.49 73.94L508.57 74.01L556 121.38L556.07 121.46L556.14 121.54L556.21 121.62L556.27 121.7L556.33 121.78L556.38 121.87L556.43 121.96L556.48 122.05L556.52 122.14L556.56 122.23L556.6 122.32L556.63 122.41L556.66 122.51L556.68 122.61L556.7 122.7L556.72 122.8L556.73 122.9L556.74 122.99L556.75 123.09L556.75 123.19L556.75 123.29L556.74 123.39L556.73 123.48L556.72 123.58L556.7 123.68L556.68 123.78L556.66 123.87L556.63 123.97L556.6 124.06L556.56 124.15L556.52 124.25L556.48 124.34L556.43 124.43L556.38 124.51L556.33 124.6L556.27 124.68L556.21 124.77L556.14 124.85L556.07 124.92L556 125L468.82 212.18L468.37 212.62L467.92 213.05L467.46 213.47L466.99 213.88L466.51 214.28L466.03 214.67L465.54 215.05L465.04 215.42L464.54 215.78L464.03 216.13L463.51 216.47L462.99 216.8L462.46 217.11L461.93 217.42L461.39 217.71L460.84 218L460.29 218.27L459.74 218.54L459.18 218.79L458.61 219.03L458.04 219.26L457.47 219.48L456.89 219.68L456.31 219.88L455.72 220.07L455.13 220.24L454.54 220.4L453.94 220.55L453.34 220.69L452.73 220.81L452.13 220.93L451.52 221.03L450.91 221.12L450.29 221.2L449.67 221.27L449.05 221.32L448.43 221.36L447.81 221.39L447.19 221.41L446.56 221.42L391.48 221.42L404.93 271.56L404.96 271.66L404.98 271.77L404.99 271.87L405 271.97L405.01 272.07L405.02 272.17L405.02 272.27L405.01 272.38L405 272.48L404.99 272.57L404.98 272.67L404.96 272.77L404.93 272.87L404.91 272.96L404.88 273.06L404.84 273.15L404.8 273.24L404.76 273.33L404.72 273.42L404.67 273.5L404.62 273.59L404.57 273.67L404.51 273.75L404.45 273.83L404.39 273.9L404.32 273.98L404.25 274.05L404.18 274.12L404.11 274.18L404.03 274.24L403.95 274.3L403.87 274.36L403.78 274.42L403.69 274.47L403.6 274.51L403.51 274.56L403.42 274.6L403.32 274.64L403.22 274.67L403.12 274.7L234.47 319.92L234.45 319.92L234.43 319.92L234.42 319.93L234.4 319.93L234.38 319.93L234.37 319.94L234.35 319.94L234.33 319.94L234.32 319.95L234.3 319.95L234.29 319.95L234.27 319.96L234.25 319.96L234.24 319.96L234.22 319.97L234.2 319.97L234.19 319.97L234.17 319.97L234.15 319.98L234.14 319.98L234.12 319.98L234.1 319.98L234.09 319.98L234.07 319.99L234.05 319.99L234.04 319.99L234.02 319.99L234 319.99L233.99 319.99L233.97 319.99L233.95 320L233.94 320L233.92 320L233.9 320L233.88 320L233.87 320L233.85 320L233.83 320L233.82 320L233.8 320L233.71 320L233.63 319.99L233.54 319.99L233.46 319.98L233.37 319.96L233.29 319.95L233.21 319.93L233.13 319.91L233.05 319.89L232.97 319.86L232.89 319.83L232.81 319.8L232.74 319.77L232.66 319.73L232.59 319.69L232.52 319.65L232.45 319.61L232.38 319.57L232.31 319.52L232.24 319.47L232.18 319.42L232.12 319.37L232.05 319.31L232 319.25L231.94 319.19L231.88 319.13L231.83 319.07L231.78 319.01L231.73 318.94L231.68 318.87L231.63 318.8L231.59 318.73L231.55 318.66L231.51 318.58L231.47 318.51L231.44 318.43L231.41 318.35L231.38 318.27L231.35 318.19L231.33 318.1L208.72 233.74L208.7 233.64L208.68 233.54L208.66 233.44L208.65 233.33L208.64 233.23L208.64 233.13L208.64 233.03L208.64 232.93L208.65 232.83L208.66 232.73L208.68 232.63L208.7 232.53L208.72 232.44L208.75 232.34L208.78 232.25L208.81 232.16L208.85 232.06L208.89 231.97L208.93 231.89L208.98 231.8L209.03 231.72L209.09 231.63L209.14 231.55L209.2 231.48L209.27 231.4L209.33 231.33L209.4 231.26L209.47 231.19L209.55 231.12L209.63 231.06L209.71 231L209.79 230.94L209.87 230.89L209.96 230.84L210.05 230.79L210.14 230.75L210.24 230.71L210.34 230.67L210.43 230.63L210.54 230.61L343.4 195.01L336.39 154.64L297.78 154.64L296.73 154.62L295.69 154.56L294.65 154.45L293.64 154.3L292.63 154.12L291.64 153.89L290.66 153.63L289.71 153.33L288.76 152.99L287.84 152.62L286.93 152.22L286.04 151.78L285.17 151.3L284.32 150.8L283.5 150.26L282.69 149.7L281.91 149.1L281.15 148.47L280.42 147.82L279.72 147.14L279.04 146.43L278.38 145.7L277.76 144.94L277.16 144.16L276.6 143.35L276.06 142.53L275.56 141.68L275.09 140.81L274.65 139.92L274.24 139.01L273.87 138.09L273.54 137.14L273.24 136.18L272.98 135.21L272.75 134.22L272.57 133.21L272.42 132.19L272.32 131.16L272.25 130.12L272.23 129.07L272.23 123.16L272.23 123.05L272.24 122.95L272.25 122.84L272.26 122.74L272.28 122.64L272.31 122.54L272.33 122.44L272.36 122.35L272.4 122.25L272.43 122.16L272.47 122.07L272.52 121.98L272.56 121.89L272.62 121.81L272.67 121.73L272.73 121.65L272.79 121.57L272.85 121.49L272.91 121.42L272.98 121.35L273.05 121.28L273.13 121.21L273.2 121.15L273.28 121.09L273.36 121.04L273.44 120.98L273.53 120.93L273.61 120.88L273.7 120.84L273.79 120.8L273.89 120.76L273.98 120.73L274.08 120.7L274.18 120.67L274.28 120.65L274.38 120.63L274.48 120.62L274.58 120.61L274.69 120.6L274.79 120.6L458.36 120.6L504.95 74.01L505.02 73.94L505.1 73.87L505.18 73.8L505.26 73.74L505.35 73.68L505.43 73.63L505.52 73.58L505.61 73.53L505.7 73.49L505.79 73.45L505.89 73.41L505.98 73.38L506.08 73.35L506.17 73.33L506.27 73.31L506.36 73.29L506.46 73.28L506.56 73.27L506.66 73.26L506.76 73.26L506.85 73.26L506.95 73.27ZM235.61 314.31L399.32 270.42L386.17 221.42L367 221.42L366.89 221.41L366.78 221.41L366.68 221.4L366.58 221.38L366.48 221.36L366.38 221.34L366.28 221.31L366.18 221.28L366.09 221.25L366 221.21L365.91 221.17L365.82 221.13L365.73 221.08L365.65 221.03L365.56 220.98L365.48 220.92L365.4 220.86L365.33 220.8L365.25 220.73L365.18 220.66L365.12 220.59L365.05 220.52L364.99 220.44L364.93 220.37L364.87 220.29L364.82 220.2L364.77 220.12L364.72 220.03L364.68 219.94L364.64 219.85L364.6 219.76L364.57 219.66L364.54 219.57L364.51 219.47L364.49 219.37L364.47 219.27L364.45 219.17L364.44 219.06L364.44 218.96L364.44 218.86L364.44 218.07L364.47 217.28L364.52 216.5L364.59 215.72L364.68 214.95L364.78 214.18L364.91 213.42L365.05 212.66L365.21 211.9L365.39 211.15L365.59 210.41L365.81 209.67L366.04 208.94L366.29 208.21L366.56 207.5L366.85 206.79L367.15 206.08L367.48 205.39L367.81 204.7L368.17 204.03L368.54 203.36L368.93 202.7L369.33 202.05L369.75 201.41L370.19 200.78L370.64 200.16L371.11 199.55L371.59 198.95L372.09 198.37L372.6 197.79L373.13 197.23L373.67 196.68L374.22 196.14L374.8 195.62L375.38 195.11L375.98 194.61L376.59 194.13L377.22 193.66L377.86 193.2L378.51 192.76L378.05 191.03L214.33 234.89L235.61 314.31ZM461.19 125.01L461.15 125.04L461.12 125.07L461.08 125.11L461.04 125.14L461 125.17L460.96 125.2L460.92 125.23L460.88 125.26L460.84 125.29L460.79 125.32L460.75 125.34L460.71 125.37L460.67 125.39L460.62 125.42L460.58 125.44L460.53 125.46L460.49 125.49L460.44 125.51L460.4 125.53L460.35 125.54L460.3 125.56L460.26 125.58L460.21 125.59L460.16 125.61L460.11 125.62L460.06 125.64L460.02 125.65L459.97 125.66L459.92 125.67L459.87 125.68L459.82 125.69L459.77 125.7L459.72 125.7L459.67 125.71L459.62 125.71L459.57 125.72L459.52 125.72L459.47 125.72L459.42 125.72L388.52 125.72L341.37 153.39L348.37 193.68L371.27 187.55L371.26 187.52L371.26 187.49L371.26 187.46L371.25 187.43L371.25 187.4L371.25 187.37L371.24 187.34L371.24 187.31L371.24 187.28L371.23 187.25L371.23 187.22L371.23 187.19L371.22 187.16L371.22 187.13L371.22 187.06L371.21 186.97L371.2 186.91L371.2 186.88L371.2 186.85L371.19 186.82L371.19 186.79L371.19 186.76L371.19 186.73L371.18 186.7L371.18 186.67L371.18 186.64L371.17 186.61L371.17 186.58L371.17 186.55L371.16 186.52L371.16 186.49L371.15 186.46L371.15 186.43L371.15 186.4L371.14 186.37L371.14 186.34L367.84 167.06L367.82 166.96L367.81 166.87L367.8 166.78L367.8 166.69L367.8 166.6L367.8 166.5L367.81 166.41L367.82 166.32L367.83 166.24L367.84 166.15L367.86 166.06L367.88 165.97L367.91 165.89L367.94 165.8L367.97 165.72L368 165.64L368.03 165.56L368.07 165.48L368.11 165.4L368.16 165.32L368.2 165.25L368.25 165.17L368.3 165.1L368.36 165.03L368.41 164.96L368.47 164.9L368.53 164.83L368.6 164.77L368.66 164.71L368.73 164.65L368.8 164.59L368.87 164.54L368.95 164.49L369.02 164.44L369.1 164.39L369.18 164.35L369.26 164.31L369.35 164.27L369.43 164.24L369.52 164.21L409.78 150.23L409.79 150.23L409.8 150.23L409.81 150.22L409.82 150.22L409.84 150.21L409.85 150.21L409.87 150.2L409.88 150.2L409.9 150.19L409.91 150.19L409.93 150.19L409.95 150.18L409.96 150.18L409.98 150.17L409.99 150.17L410.01 150.17L410.03 150.16L410.04 150.16L410.06 150.15L410.07 150.15L410.09 150.15L410.11 150.14L410.12 150.14L410.14 150.14L410.16 150.13L410.17 150.13L410.28 150.12L410.38 150.1L410.48 150.1L410.59 150.09L410.69 150.1L410.79 150.1L410.89 150.11L410.99 150.12L411.09 150.14L411.19 150.16L411.29 150.18L411.38 150.21L411.48 150.24L411.57 150.28L411.66 150.32L411.75 150.36L411.84 150.41L411.92 150.45L412.01 150.51L412.09 150.56L412.17 150.62L412.25 150.68L412.32 150.75L412.39 150.81L412.46 150.88L412.53 150.95L412.59 151.03L412.66 151.11L412.72 151.19L412.77 151.27L412.82 151.36L412.87 151.44L412.92 151.53L412.96 151.63L413 151.72L413.04 151.82L413.07 151.91L413.1 152.01L413.12 152.12L413.14 152.22L419.59 189.52L419.59 189.54L419.59 189.56L419.59 189.58L419.6 189.6L419.6 189.62L419.6 189.64L419.61 189.67L419.61 189.69L419.61 189.71L419.61 189.73L419.61 189.75L419.62 189.77L419.62 189.79L419.62 189.81L419.62 189.83L419.62 189.85L419.62 189.88L419.62 189.9L419.62 189.92L419.62 189.94L419.62 189.96L419.62 190.07L419.61 190.17L419.6 190.28L419.59 190.38L419.57 190.48L419.55 190.58L419.52 190.68L419.49 190.77L419.46 190.87L419.42 190.96L419.38 191.05L419.34 191.14L419.29 191.23L419.24 191.31L419.18 191.39L419.13 191.47L419.07 191.55L419.01 191.63L418.94 191.7L418.87 191.77L418.8 191.84L418.73 191.91L418.65 191.97L418.57 192.03L418.49 192.08L418.41 192.14L418.32 192.19L418.24 192.24L418.15 192.28L418.06 192.32L417.96 192.36L417.87 192.39L417.77 192.42L417.68 192.45L417.58 192.47L417.48 192.49L417.37 192.5L417.27 192.51L417.17 192.52L417.06 192.52L408.98 192.51L408.55 192.51L408.11 192.51L407.66 192.51L407.21 192.5L406.76 192.5L406.3 192.5L405.84 192.5L405.37 192.5L404.91 192.5L404.44 192.5L403.98 192.5L403.51 192.5L403.05 192.5L402.6 192.5L402.15 192.49L401.7 192.49L401.26 192.49L400.82 192.49L400.39 192.49L399.98 192.49L399.57 192.49L399.17 192.49L398.78 192.49L398.4 192.49L398.04 192.5L397.69 192.5L397.36 192.5L397.04 192.5L396.73 192.5L396.45 192.5L396.18 192.5L395.93 192.5L395.7 192.5L395.5 192.5L395.31 192.51L395.15 192.51L395 192.51L394.89 192.51L394.8 192.51L394.73 192.52L394.41 192.53L394.1 192.54L393.78 192.56L393.46 192.58L393.15 192.61L392.83 192.64L392.52 192.67L392.2 192.71L391.89 192.75L391.58 192.8L391.27 192.85L390.96 192.91L390.64 192.97L390.34 193.03L390.03 193.09L389.72 193.17L389.41 193.24L389.11 193.32L388.8 193.4L388.5 193.49L388.2 193.58L387.9 193.67L387.6 193.77L387.3 193.87L387 193.98L386.71 194.09L386.41 194.2L386.12 194.32L385.83 194.44L385.54 194.56L385.25 194.69L384.96 194.83L384.68 194.96L384.39 195.1L384.11 195.25L383.83 195.39L383.55 195.54L383.27 195.7L383 195.86L382.73 196.02L382.29 196.28L381.86 196.54L381.43 196.82L381.01 197.1L380.6 197.39L380.19 197.68L379.79 197.99L379.39 198.3L379 198.62L378.62 198.94L378.25 199.27L377.88 199.61L377.52 199.96L377.16 200.31L376.81 200.67L376.47 201.03L376.14 201.41L375.81 201.78L375.49 202.17L375.18 202.56L374.88 202.95L374.58 203.35L374.29 203.76L374.01 204.17L373.74 204.59L373.47 205.02L373.21 205.44L372.96 205.88L372.72 206.32L372.49 206.76L372.26 207.21L372.05 207.66L371.84 208.12L371.64 208.58L371.45 209.05L371.26 209.52L371.09 209.99L370.93 210.47L370.77 210.95L370.63 211.44L370.59 211.56L370.56 211.68L370.52 211.8L370.49 211.92L370.45 212.04L370.42 212.16L370.39 212.28L370.36 212.39L370.33 212.51L370.3 212.64L370.27 212.76L370.24 212.88L370.21 213L370.18 213.12L370.16 213.24L370.13 213.36L370.11 213.48L370.08 213.6L370.06 213.72L370.03 213.84L370.01 213.97L369.98 214.09L369.96 214.21L369.94 214.33L369.92 214.45L369.9 214.58L369.88 214.7L369.86 214.82L369.84 214.94L369.82 215.06L369.81 215.19L369.79 215.31L369.77 215.43L369.76 215.56L369.74 215.68L369.73 215.8L369.71 215.93L369.7 216.05L369.69 216.17L369.68 216.3L446.56 216.3L447.08 216.29L447.61 216.28L448.13 216.25L448.65 216.22L449.17 216.17L449.68 216.12L450.2 216.05L450.71 215.97L451.22 215.89L451.73 215.79L452.24 215.69L452.74 215.57L453.24 215.44L453.74 215.31L454.23 215.16L454.72 215.01L455.21 214.85L455.69 214.67L456.18 214.49L456.65 214.3L457.13 214.09L457.6 213.88L458.06 213.66L458.52 213.43L458.98 213.2L459.43 212.95L459.88 212.69L460.32 212.43L460.76 212.15L461.19 211.87L461.61 211.58L462.04 211.28L462.45 210.97L462.86 210.65L463.27 210.32L463.66 209.99L464.06 209.64L464.44 209.29L464.82 208.93L465.2 208.57L550.57 123.19L506.76 79.44L461.23 124.97L461.19 125.01ZM373.7 170.97L374.12 173.38L374.31 174.51L374.49 175.58L374.83 177.56L375.27 180.12L375.39 180.86L375.51 181.54L375.62 182.18L375.72 182.75L375.81 183.27L375.89 183.74L375.96 184.15L376.02 184.51L376.11 185.06L376.17 185.39L376.19 185.5L376.19 185.53L376.19 185.56L376.2 185.59L376.2 185.61L376.21 185.64L376.21 185.67L376.21 185.7L376.21 185.73L376.22 185.76L376.22 185.78L376.22 185.81L376.22 185.84L376.23 185.9L376.23 185.93L376.23 185.95L376.24 185.98L376.24 186.01L376.24 186.04L376.24 186.07L376.25 186.1L376.25 186.12L376.25 186.15L376.26 186.18L376.26 186.21L379.19 185.43L379.35 185.39L379.52 185.36L379.68 185.35L379.84 185.34L380 185.35L380.16 185.36L380.32 185.39L380.47 185.42L380.63 185.47L380.77 185.52L380.92 185.58L381.06 185.65L381.19 185.73L381.32 185.82L381.45 185.91L381.57 186.01L381.68 186.12L381.79 186.24L381.89 186.36L381.98 186.49L382.07 186.63L382.14 186.77L382.21 186.92L382.27 187.08L382.32 187.24L383.09 190.08L383.52 189.88L383.95 189.69L384.39 189.5L384.83 189.32L385.27 189.15L385.72 188.99L386.17 188.84L386.62 188.69L387.07 188.55L387.53 188.42L387.99 188.3L388.44 188.18L388.91 188.07L389.37 187.97L389.83 187.88L390.3 187.8L390.77 187.72L391.24 187.65L391.71 187.59L392.18 187.54L392.65 187.5L393.12 187.46L393.6 187.43L394.07 187.41L394.55 187.4L394.54 187.4L394.55 187.39L394.56 187.39L394.59 187.39L394.64 187.39L394.73 187.38L394.84 187.38L395 187.38L395.2 187.38L395.45 187.37L395.76 187.37L396.13 187.37L396.57 187.37L397.07 187.37L397.66 187.37L398.33 187.37L399.09 187.37L399.94 187.37L400.89 187.37L401.95 187.37L403.11 187.38L404.39 187.38L405.8 187.38L407.33 187.39L408.99 187.39L414.02 187.4L408.61 156.06L373.25 168.33L373.7 170.97ZM277.35 129.06L277.37 129.91L277.42 130.74L277.5 131.57L277.62 132.38L277.77 133.18L277.95 133.98L278.16 134.76L278.39 135.52L278.66 136.28L278.96 137.02L279.28 137.75L279.63 138.46L280.01 139.15L280.41 139.83L280.84 140.49L281.29 141.14L281.77 141.76L282.27 142.37L282.79 142.95L283.34 143.52L283.9 144.06L284.49 144.59L285.09 145.09L285.72 145.56L286.36 146.02L287.02 146.45L287.7 146.85L288.39 147.23L289.1 147.58L289.83 147.91L290.57 148.2L291.32 148.47L292.09 148.71L292.87 148.92L293.66 149.1L294.47 149.25L295.28 149.37L296.1 149.45L296.94 149.51L297.78 149.52L337.85 149.52L378.4 125.72L277.35 125.72L277.35 129.06Z" id="ccJfn56X5"></path><path d="M303.96 231.12L304.08 231.14L304.19 231.16L304.31 231.19L304.42 231.22L304.53 231.26L304.64 231.3L304.75 231.34L304.85 231.39L304.95 231.45L305.05 231.51L305.15 231.57L305.24 231.64L305.33 231.72L305.42 231.79L305.5 231.87L305.58 231.96L305.66 232.05L305.73 232.14L305.8 232.24L305.86 232.34L305.92 232.44L305.97 232.55L306.03 232.66L306.07 232.77L306.11 232.89L306.15 233.01L306.39 233.93L306.89 233.85L307.38 233.79L307.88 233.75L308.37 233.73L308.86 233.74L309.34 233.76L309.82 233.8L310.3 233.86L310.78 233.95L311.24 234.05L311.71 234.17L312.16 234.3L312.61 234.46L313.05 234.64L313.49 234.83L313.91 235.04L314.33 235.26L314.74 235.51L315.13 235.76L315.52 236.04L315.9 236.33L316.26 236.64L316.61 236.96L316.95 237.29L317.28 237.65L317.59 238.01L317.89 238.39L318.17 238.78L318.44 239.19L318.69 239.61L318.92 240.04L319.14 240.48L319.34 240.94L319.53 241.41L319.56 241.53L319.58 241.65L319.6 241.77L319.61 241.89L319.61 242.01L319.61 242.13L319.61 242.25L319.6 242.36L319.58 242.48L319.56 242.59L319.53 242.71L319.5 242.82L319.47 242.93L319.42 243.04L319.38 243.15L319.33 243.25L319.27 243.35L319.21 243.45L319.15 243.55L319.08 243.64L319.01 243.73L318.93 243.82L318.85 243.9L318.76 243.98L318.67 244.06L318.58 244.13L318.48 244.2L318.38 244.26L318.28 244.32L318.17 244.37L318.06 244.42L317.95 244.47L317.84 244.51L317.72 244.55L317.6 244.58L317.47 244.6L317.35 244.62L317.23 244.63L317.11 244.63L316.99 244.63L316.88 244.63L316.76 244.62L316.64 244.6L316.53 244.58L316.41 244.55L316.3 244.52L316.19 244.49L316.08 244.44L315.98 244.4L315.87 244.35L315.77 244.29L315.67 244.23L315.58 244.17L315.48 244.1L315.39 244.02L315.31 243.95L315.22 243.87L315.14 243.78L315.07 243.69L314.99 243.6L314.93 243.5L314.86 243.4L314.8 243.3L314.75 243.19L314.7 243.08L314.65 242.97L314.61 242.85L314.58 242.74L314.47 242.51L314.35 242.28L314.23 242.06L314.1 241.85L313.96 241.64L313.81 241.44L313.66 241.25L313.5 241.06L313.33 240.88L313.16 240.71L312.98 240.55L312.8 240.39L312.61 240.24L312.41 240.09L312.21 239.96L312.01 239.83L311.8 239.71L311.58 239.59L311.36 239.49L311.14 239.39L310.91 239.31L310.68 239.23L310.45 239.16L310.22 239.09L309.98 239.04L309.74 239L309.49 238.96L309.25 238.94L309 238.92L308.75 238.91L308.5 238.92L308.25 238.93L308 238.95L307.75 238.98L310.68 249.91L311.17 249.83L311.67 249.77L312.16 249.73L312.65 249.71L313.14 249.71L313.62 249.74L314.1 249.78L314.58 249.84L315.05 249.92L315.52 250.02L315.98 250.14L316.44 250.28L316.89 250.44L317.33 250.61L317.77 250.81L318.19 251.01L318.61 251.24L319.01 251.48L319.41 251.74L319.8 252.02L320.17 252.31L320.54 252.61L320.89 252.93L321.23 253.27L321.56 253.62L321.87 253.98L322.17 254.36L322.45 254.76L322.72 255.16L322.97 255.58L323.2 256.01L323.42 256.45L323.62 256.91L323.81 257.38L323.87 257.64L323.92 257.91L323.96 258.18L324 258.46L324.03 258.73L324.05 259L324.07 259.27L324.08 259.54L324.08 259.81L324.07 260.08L324.06 260.35L324.04 260.62L324.01 260.89L323.97 261.15L323.93 261.42L323.88 261.68L323.83 261.95L323.76 262.21L323.69 262.47L323.61 262.73L323.53 262.98L323.44 263.24L323.34 263.49L323.24 263.74L323.12 263.98L323.01 264.22L322.88 264.47L322.75 264.7L322.61 264.94L322.47 265.17L322.31 265.4L322.16 265.62L321.99 265.84L321.82 266.06L321.69 266.22L321.55 266.39L321.42 266.55L321.28 266.71L321.13 266.87L320.99 267.02L320.84 267.18L320.7 267.33L320.55 267.48L320.39 267.63L320.24 267.77L320.08 267.91L319.92 268.05L319.76 268.19L319.6 268.33L319.44 268.46L319.27 268.59L319.1 268.72L318.93 268.85L318.76 268.97L318.59 269.09L318.41 269.21L318.23 269.32L318.05 269.44L317.87 269.55L317.69 269.66L317.51 269.76L317.32 269.86L317.13 269.96L316.95 270.06L316.75 270.16L316.56 270.25L316.37 270.34L316.17 270.42L316.42 271.34L316.45 271.46L316.47 271.58L316.49 271.7L316.5 271.82L316.51 271.94L316.51 272.06L316.5 272.18L316.49 272.3L316.48 272.41L316.45 272.53L316.43 272.64L316.4 272.75L316.36 272.86L316.32 272.97L316.27 273.08L316.22 273.18L316.16 273.28L316.1 273.38L316.04 273.48L315.97 273.57L315.9 273.66L315.82 273.75L315.74 273.83L315.66 273.91L315.57 273.99L315.47 274.06L315.38 274.13L315.28 274.19L315.18 274.25L315.07 274.31L314.96 274.36L314.85 274.41L314.73 274.45L314.61 274.48L314.59 274.49L314.57 274.49L314.55 274.49L314.53 274.5L314.51 274.5L314.49 274.51L314.48 274.51L314.46 274.52L314.44 274.52L314.42 274.52L314.4 274.53L314.38 274.53L314.36 274.53L314.34 274.54L314.32 274.54L314.3 274.54L314.28 274.54L314.26 274.55L314.24 274.55L314.22 274.55L314.2 274.55L314.18 274.55L314.16 274.56L314.14 274.56L314.12 274.56L314.1 274.56L314.08 274.56L314.06 274.56L314.04 274.56L314.02 274.56L314 274.56L313.99 274.57L313.97 274.57L313.95 274.57L313.84 274.56L313.74 274.56L313.64 274.55L313.54 274.53L313.45 274.52L313.35 274.49L313.25 274.47L313.16 274.44L313.07 274.41L312.98 274.37L312.89 274.34L312.8 274.29L312.71 274.25L312.63 274.2L312.55 274.15L312.47 274.09L312.39 274.04L312.31 273.98L312.24 273.91L312.17 273.85L312.1 273.78L312.03 273.71L311.97 273.63L311.91 273.56L311.85 273.48L311.8 273.4L311.74 273.31L311.69 273.23L311.65 273.14L311.61 273.05L311.57 272.96L311.53 272.86L311.5 272.77L311.47 272.67L311.19 271.63L311.14 271.63L311.1 271.64L311.05 271.64L311 271.65L310.96 271.65L310.91 271.66L310.86 271.67L310.82 271.68L310.77 271.68L310.72 271.69L310.68 271.7L310.63 271.71L310.58 271.72L310.53 271.73L310.49 271.73L310.44 271.74L310.39 271.75L310.35 271.76L310.3 271.77L310.25 271.77L310.21 271.78L310.16 271.79L310.11 271.8L310.07 271.8L310.02 271.81L309.97 271.81L309.93 271.82L309.88 271.82L309.83 271.83L309.79 271.83L309.74 271.83L309.7 271.83L309.65 271.84L309.61 271.84L309.16 271.86L308.71 271.86L308.26 271.85L307.82 271.82L307.39 271.78L306.95 271.72L306.52 271.64L306.1 271.54L305.68 271.43L305.27 271.3L304.86 271.16L304.46 271L304.07 270.83L303.68 270.65L303.3 270.45L302.93 270.23L302.57 270L302.21 269.76L301.87 269.51L301.54 269.24L301.21 268.96L300.9 268.66L300.59 268.36L300.3 268.04L300.02 267.71L299.75 267.37L299.5 267.02L299.25 266.66L299.02 266.28L298.81 265.9L298.61 265.51L298.42 265.1L298.25 264.69L298.09 264.27L298.06 264.15L298.04 264.03L298.02 263.91L298.01 263.79L298 263.67L298 263.55L298.01 263.43L298.02 263.31L298.04 263.2L298.06 263.08L298.08 262.97L298.12 262.86L298.15 262.75L298.19 262.64L298.24 262.53L298.29 262.43L298.35 262.33L298.41 262.23L298.47 262.13L298.54 262.04L298.61 261.95L298.69 261.86L298.77 261.78L298.86 261.7L298.95 261.62L299.04 261.55L299.13 261.48L299.23 261.42L299.34 261.36L299.44 261.3L299.55 261.25L299.67 261.21L299.78 261.17L299.9 261.13L300.02 261.1L300.14 261.08L300.26 261.06L300.38 261.05L300.5 261.05L300.62 261.05L300.74 261.06L300.86 261.07L300.97 261.08L301.09 261.11L301.2 261.13L301.31 261.17L301.42 261.2L301.53 261.24L301.63 261.29L301.74 261.34L301.84 261.4L301.94 261.46L302.03 261.52L302.13 261.59L302.22 261.66L302.3 261.74L302.39 261.82L302.47 261.9L302.54 261.99L302.62 262.08L302.69 262.18L302.75 262.28L302.81 262.38L302.87 262.49L302.92 262.6L302.96 262.71L303 262.82L303.04 262.94L303.15 263.17L303.26 263.4L303.39 263.61L303.52 263.83L303.66 264.03L303.81 264.23L303.96 264.42L304.12 264.61L304.28 264.79L304.46 264.96L304.64 265.13L304.82 265.29L305.01 265.44L305.21 265.58L305.41 265.72L305.61 265.84L305.82 265.96L306.04 266.08L306.25 266.18L306.48 266.28L306.7 266.36L306.93 266.44L307.17 266.51L307.4 266.58L307.64 266.63L307.88 266.67L308.12 266.71L308.37 266.73L308.61 266.75L308.86 266.76L309.11 266.75L309.36 266.74L309.61 266.72L309.87 266.69L306.94 255.78L306.73 255.8L306.52 255.82L306.31 255.83L306.09 255.85L305.88 255.86L305.67 255.87L305.46 255.87L305.25 255.87L305.03 255.87L304.82 255.86L304.61 255.85L304.4 255.84L304.19 255.83L303.98 255.81L303.77 255.79L303.56 255.77L303.35 255.74L303.14 255.71L302.93 255.68L302.72 255.64L302.51 255.6L302.3 255.56L302.1 255.51L301.89 255.46L301.69 255.41L301.48 255.36L301.28 255.3L301.07 255.24L300.87 255.18L300.67 255.11L300.47 255.04L300.27 254.97L300.07 254.89L299.87 254.82L299.77 254.78L299.67 254.74L299.57 254.71L299.47 254.67L299.38 254.63L299.28 254.59L299.18 254.55L299.09 254.5L298.99 254.46L298.89 254.41L298.8 254.37L298.71 254.32L298.61 254.27L298.52 254.22L298.43 254.17L298.33 254.12L298.24 254.07L298.15 254.02L298.06 253.96L297.97 253.91L297.88 253.85L297.79 253.79L297.71 253.74L297.62 253.68L297.53 253.62L297.45 253.56L297.36 253.49L297.28 253.43L297.19 253.37L297.11 253.3L297.03 253.24L296.94 253.17L296.86 253.1L296.78 253.03L296.44 252.72L296.12 252.4L295.81 252.07L295.53 251.72L295.26 251.37L295.01 251L294.78 250.63L294.57 250.24L294.37 249.85L294.2 249.45L294.04 249.05L293.91 248.64L293.79 248.23L293.69 247.81L293.61 247.38L293.55 246.96L293.51 246.53L293.49 246.1L293.49 245.67L293.5 245.24L293.54 244.81L293.6 244.39L293.67 243.96L293.76 243.54L293.88 243.12L294.01 242.7L294.17 242.29L294.34 241.89L294.53 241.49L294.75 241.1L294.98 240.72L295.23 240.34L295.5 239.98L295.8 239.62L295.93 239.45L296.06 239.29L296.2 239.13L296.34 238.97L296.48 238.81L296.63 238.65L296.77 238.5L296.92 238.35L297.07 238.2L297.22 238.05L297.38 237.9L297.53 237.76L297.69 237.62L297.85 237.48L298.02 237.35L298.18 237.22L298.35 237.09L298.51 236.96L298.69 236.83L298.86 236.71L299.03 236.59L299.21 236.47L299.38 236.35L299.56 236.24L299.74 236.13L299.93 236.02L300.11 235.92L300.3 235.81L300.48 235.71L300.67 235.62L300.86 235.52L301.05 235.43L301.25 235.34L301.44 235.25L301.2 234.34L301.17 234.22L301.14 234.09L301.13 233.97L301.11 233.85L301.11 233.73L301.11 233.61L301.11 233.5L301.12 233.38L301.14 233.26L301.16 233.15L301.19 233.03L301.22 232.92L301.26 232.81L301.3 232.7L301.34 232.6L301.4 232.49L301.45 232.39L301.51 232.29L301.58 232.2L301.64 232.1L301.72 232.01L301.79 231.93L301.87 231.84L301.96 231.76L302.05 231.69L302.14 231.61L302.24 231.55L302.34 231.48L302.44 231.42L302.55 231.37L302.66 231.32L302.77 231.27L302.89 231.23L303.01 231.2L303.13 231.17L303.25 231.14L303.37 231.13L303.49 231.11L303.61 231.11L303.73 231.11L303.85 231.11L303.96 231.12ZM314.8 265.3L315.47 264.93L316.1 264.5L316.69 264.03L317.25 263.51L317.76 262.94L318.29 262.2L318.67 261.38L318.9 260.51L318.96 259.61L318.86 258.71L317.97 257.26L316.77 256.12L315.33 255.33L313.73 254.92L312.03 254.95L314.8 265.3ZM301.52 241.17L300.92 241.65L300.37 242.17L299.86 242.74L299.57 243.07L299.32 243.42L299.1 243.8L298.92 244.2L298.78 244.62L298.61 246.03L298.89 247.37L299.55 248.55L300.55 249.49L301.84 250.09L302.56 250.32L303.3 250.5L304.05 250.61L304.81 250.66L305.57 250.65L302.82 240.38L302.15 240.75L301.52 241.17Z" id="h3HX1z1POb"></path><path d="M244.61 292.88L244.95 292.95L245.29 293.04L245.62 293.17L245.94 293.33L246.25 293.51L246.55 293.72L246.83 293.96L247.1 294.23L247.7 294.88L248.3 294.23L248.85 293.73L249.46 293.33L250.11 293.05L250.79 292.88L251.48 292.83L252.17 292.88L252.85 293.05L253.5 293.33L254.11 293.73L254.66 294.23L255.13 294.82L255.49 295.47L255.75 296.15L255.91 296.86L255.96 297.59L255.91 298.31L255.75 299.02L255.49 299.71L255.13 300.35L254.66 300.94L254.02 301.64L253.38 302.33L252.74 303.02L252.11 303.71L251.47 304.41L250.83 305.1L250.19 305.79L249.55 306.48L248.91 307.18L248.27 307.87L248.27 307.87L248.26 307.88L248.26 307.88L248.25 307.89L248.25 307.89L248.24 307.9L248.24 307.9L248.24 307.9L248.23 307.91L248.23 307.91L248.13 307.99L248.02 308.05L247.9 308.09L247.78 308.12L247.66 308.12L247.54 308.11L247.43 308.07L247.31 308.02L247.21 307.96L247.12 307.87L240.74 300.94L240.27 300.34L239.91 299.7L239.65 299.01L239.49 298.3L239.44 297.58L239.49 296.86L239.65 296.15L239.91 295.46L240.27 294.82L240.74 294.23L241 293.96L241.29 293.72L241.59 293.51L241.9 293.33L242.22 293.17L242.55 293.04L242.88 292.95L243.22 292.88L243.57 292.83L243.92 292.82L244.26 292.83L244.61 292.88ZM243.38 294.41L243.11 294.48L242.85 294.58L242.6 294.71L242.35 294.88L242.11 295.07L241.89 295.29L241.51 295.79L241.24 296.36L241.08 296.96L241.02 297.58L241.08 298.2L241.24 298.8L241.51 299.36L241.89 299.87L247.7 306.17L248.43 305.39L249.15 304.6L249.88 303.81L250.6 303.02L251.33 302.24L252.06 301.45L252.78 300.66L253.51 299.87L253.89 299.37L254.16 298.81L254.32 298.21L254.38 297.59L254.32 296.97L254.16 296.37L253.89 295.81L253.51 295.3L253.05 294.89L252.55 294.59L252.02 294.42L251.48 294.36L250.94 294.42L250.41 294.59L249.91 294.89L249.46 295.3L248.28 296.57L248.28 296.58L248.27 296.58L248.26 296.59L248.26 296.6L248.25 296.6L248.25 296.61L248.24 296.62L248.23 296.62L248.1 296.72L247.96 296.78L247.82 296.82L247.67 296.83L247.52 296.8L247.37 296.76L247.24 296.68L247.12 296.57L245.94 295.29L245.72 295.07L245.48 294.88L245.24 294.71L244.98 294.58L244.72 294.48L244.46 294.41L244.19 294.36L243.92 294.35L243.65 294.36L243.38 294.41Z" id="a5GbhqsEIS"></path></defs><g><g><use xlink:href="#b3onFhPeC3" opacity="1" fill="#ff5103" fill-opacity="1"></use><g><use xlink:href="#b3onFhPeC3" opacity="1" fill-opacity="0" stroke="#000000" stroke-width="1" stroke-opacity="0"></use></g></g><g><use xlink:href="#ccJfn56X5" opacity="1" fill="#ff5103" fill-opacity="1"></use><g><use xlink:href="#ccJfn56X5" opacity="1" fill-opacity="0" stroke="#000000" stroke-width="1" stroke-opacity="0"></use></g></g><g><use xlink:href="#h3HX1z1POb" opacity="1" fill="#ff5103" fill-opacity="1"></use><g><use xlink:href="#h3HX1z1POb" opacity="1" fill-opacity="0" stroke="#000000" stroke-width="1" stroke-opacity="0"></use></g></g><g><use xlink:href="#a5GbhqsEIS" opacity="1" fill="#ff5103" fill-opacity="1"></use><g><use xlink:href="#a5GbhqsEIS" opacity="1" fill-opacity="0" stroke="#000000" stroke-width="1" stroke-opacity="0"></use></g></g></g></svg>