 <svg version="1.0" xmlns="http://www.w3.org/2000/svg" width="700.000000pt" height="351.000000pt" viewBox="0 0 700.000000 351.000000" preserveAspectRatio="xMidYMid meet">
<metadata>
Created by potrace 1.12, written by Peter Selinger 2001-2015
</metadata>
<g transform="translate(0.000000,351.000000) scale(0.100000,-0.100000)" fill="#000000" stroke="none">
<path d="M0 1755 l0 -1755 1760 0 1760 0 0 1755 0 1755 -1760 0 -1760 0 0
-1755z m555 220 l0 -230 -55 0 -55 0 -3 78 c-2 48 2 84 8 93 7 7 9 18 6 23
-13 20 -16 244 -4 258 7 9 27 13 57 11 l46 -3 0 -230z m340 190 c6 -22 18 -60
25 -85 8 -25 17 -49 22 -54 4 -6 8 -21 8 -34 0 -13 5 -32 11 -43 8 -16 13 -18
25 -8 8 6 14 19 14 27 0 17 36 142 50 177 5 11 10 29 12 40 3 17 12 20 67 23
35 2 68 -1 72 -5 4 -4 9 -109 10 -233 l2 -225 -42 -3 c-62 -5 -70 6 -66 94 2
41 7 99 10 129 4 30 4 55 0 55 -16 0 -34 -36 -35 -67 0 -17 -4 -35 -10 -38 -5
-3 -10 -17 -10 -31 0 -14 -7 -27 -16 -31 -8 -3 -13 -12 -9 -21 3 -8 1 -20 -4
-26 -5 -6 -11 -22 -13 -36 -3 -22 -8 -25 -48 -25 -41 0 -45 2 -53 30 -5 17
-13 38 -18 47 -5 10 -9 26 -9 35 -1 33 -57 158 -71 158 -8 0 -12 -7 -10 -15 2
-8 7 -55 10 -105 3 -49 10 -96 14 -102 4 -7 3 -21 -2 -31 -8 -15 -21 -19 -58
-18 -45 1 -48 3 -46 26 5 52 2 403 -3 411 -13 22 12 30 83 27 l75 -3 13 -40z
m749 22 c22 -12 42 -29 46 -37 4 -8 12 -25 18 -37 26 -50 8 -138 -35 -175 -30
-24 -99 -41 -141 -34 -54 8 -67 -9 -67 -93 l0 -66 -50 0 -50 0 -1 225 c-1 124
1 228 3 233 2 4 57 7 121 7 103 0 122 -3 156 -23z m390 1 c7 -13 24 -54 36
-93 13 -38 29 -82 36 -97 8 -14 14 -33 14 -42 0 -9 15 -45 34 -80 43 -81 53
-124 32 -132 -9 -3 -24 -3 -33 2 -10 4 -29 8 -42 8 -13 1 -27 8 -31 16 -37 77
-34 75 -108 77 -62 2 -70 0 -80 -20 -6 -12 -13 -35 -14 -52 -3 -28 -6 -30 -51
-33 -67 -4 -81 9 -61 56 9 21 24 60 34 87 9 28 27 70 38 95 11 25 30 74 42
110 39 113 44 120 95 120 35 0 47 -5 59 -22z m539 1 c52 -26 109 -87 105 -114
-2 -13 -15 -22 -41 -28 -43 -10 -65 -5 -74 20 -22 64 -88 72 -149 19 -38 -33
-39 -35 -39 -104 0 -64 3 -73 28 -100 31 -33 84 -46 122 -32 13 5 34 28 45 50
20 39 23 41 63 38 41 -3 42 -3 41 -40 -1 -42 -60 -129 -101 -147 -13 -6 -58
-11 -99 -11 -74 0 -75 0 -120 42 -51 47 -74 85 -74 121 0 14 -7 30 -15 37 -17
14 -20 56 -5 65 6 3 10 18 10 33 0 37 66 122 115 149 54 29 132 30 188 2z
m538 -25 c4 -22 2 -44 -3 -51 -13 -16 -80 -17 -95 -2 -27 27 -33 -5 -33 -181
0 -106 -4 -181 -10 -185 -5 -3 -19 -1 -30 5 -16 9 -25 8 -36 -1 -9 -7 -18 -9
-24 -3 -5 5 -11 88 -12 184 l-3 175 -60 1 -60 1 -6 39 c-4 21 -3 44 3 51 7 9
58 11 186 9 l177 -3 6 -39z m-1921 -632 l45 -7 2 -410 c1 -226 3 -433 5 -460
l3 -50 -93 -3 c-51 -1 -100 1 -109 6 -13 8 -17 32 -19 143 -2 74 -6 157 -8
184 l-4 50 -174 0 -173 0 -3 -23 c-2 -13 1 -28 6 -35 16 -19 2 -79 -19 -84
-25 -7 -24 -23 1 -23 18 0 20 -7 22 -85 0 -47 1 -91 2 -97 1 -8 -17 -16 -44
-20 -25 -4 -72 -12 -105 -17 -46 -8 -63 -7 -73 3 -10 10 -13 108 -12 461 0
247 3 452 8 456 9 10 174 17 197 9 16 -6 18 -20 16 -162 -2 -120 1 -158 11
-164 19 -12 300 -23 321 -12 15 8 17 27 17 177 0 92 3 170 6 173 6 7 105 1
174 -10z m429 -18 c1 -1 5 -65 6 -141 2 -76 5 -217 7 -313 3 -120 9 -183 18
-200 7 -14 16 -31 20 -39 7 -15 15 -20 65 -41 17 -7 38 -17 48 -22 12 -6 38
-5 71 2 59 12 92 41 121 103 18 38 18 83 3 482 -2 61 8 157 17 165 5 4 53 10
105 11 l95 4 2 -55 c6 -152 5 -591 0 -632 -9 -64 -64 -148 -123 -187 -26 -17
-55 -31 -64 -31 -10 0 -23 -7 -30 -15 -8 -10 -30 -15 -65 -15 -28 0 -55 -3
-59 -7 -13 -14 -126 -12 -154 3 -15 8 -34 14 -42 14 -8 0 -26 9 -40 20 -14 11
-32 20 -40 20 -40 0 -150 149 -150 203 0 9 -4 18 -9 21 -4 3 -11 72 -15 153
-4 82 -9 168 -10 193 -2 25 -1 104 2 177 l5 132 61 3 c59 3 147 -2 155 -8z
m878 -5 c8 -8 17 -8 33 1 16 9 51 9 140 1 65 -6 151 -11 192 -11 69 0 117 -11
164 -37 63 -36 88 -216 40 -291 -13 -20 -31 -43 -40 -51 -19 -16 -21 -41 -3
-41 21 0 87 -60 87 -80 0 -9 6 -23 14 -29 13 -11 27 -64 27 -106 0 -93 -50
-176 -132 -218 -28 -15 -57 -27 -65 -27 -8 0 -28 -7 -44 -15 -23 -12 -42 -13
-82 -7 -29 4 -119 5 -200 2 -81 -3 -171 -3 -199 0 l-52 5 2 445 c2 401 3 446
18 458 21 15 85 16 100 1z"></path>
<path d="M956 1851 c-4 -5 -2 -12 3 -15 5 -4 12 -2 15 3 4 5 2 12 -3 15 -5 4
-12 2 -15 -3z"></path>
<path d="M1483 2108 c-14 -16 -13 -88 0 -105 17 -23 81 -16 111 12 14 13 26
31 26 40 0 22 -37 55 -62 55 -13 0 -32 3 -44 6 -11 3 -25 -1 -31 -8z"></path>
<path d="M1957 2018 c-3 -18 -8 -43 -12 -55 -7 -21 -4 -23 24 -23 34 0 52 23
32 43 -6 6 -11 24 -11 39 0 40 -27 36 -33 -4z"></path>
<path d="M2090 1834 c0 -8 5 -12 10 -9 6 4 8 11 5 16 -9 14 -15 11 -15 -7z"></path>
<path d="M1821 1821 c-6 -10 -7 -21 -4 -25 9 -8 33 14 33 30 0 20 -18 17 -29
-5z"></path>
<path d="M1140 1449 c0 -5 5 -7 10 -4 6 3 10 8 10 11 0 2 -4 4 -10 4 -5 0 -10
-5 -10 -11z"></path>
<path d="M523 1435 c-3 -9 -3 -19 1 -22 7 -7 36 16 36 28 0 15 -30 10 -37 -6z"></path>
<path d="M1192 1399 c2 -6 8 -10 13 -10 5 0 11 4 13 10 2 6 -4 11 -13 11 -9 0
-15 -5 -13 -11z"></path>
<path d="M1100 1373 c-8 -16 -25 -40 -38 -55 -14 -16 -22 -33 -19 -42 10 -25
24 -19 30 14 4 16 20 43 38 59 17 16 28 35 24 40 -10 18 -21 13 -35 -16z"></path>
<path d="M1191 1336 c-8 -9 -11 -19 -7 -23 9 -9 29 13 24 27 -2 8 -8 7 -17 -4z"></path>
<path d="M529 1301 c-18 -15 -21 -23 -13 -31 9 -9 17 -4 33 19 25 35 15 41
-20 12z"></path>
<path d="M1128 1271 c-27 -26 -38 -61 -20 -61 8 0 55 80 50 86 -2 1 -15 -10
-30 -25z"></path>
<path d="M610 1274 c0 -8 5 -12 10 -9 6 4 8 11 5 16 -9 14 -15 11 -15 -7z"></path>
<path d="M1046 1191 c-4 -5 -2 -12 3 -15 5 -4 12 -2 15 3 4 5 2 12 -3 15 -5 4
-12 2 -15 -3z"></path>
<path d="M670 1160 c0 -5 7 -10 15 -10 8 0 15 5 15 10 0 6 -7 10 -15 10 -8 0
-15 -4 -15 -10z"></path>
<path d="M730 1145 c-14 -15 -35 -31 -47 -36 -13 -5 -23 -15 -23 -24 0 -22 8
-19 38 13 15 16 35 33 46 39 10 6 17 16 15 22 -3 8 -14 2 -29 -14z"></path>
<path d="M1084 1147 c-34 -19 -76 -74 -63 -82 6 -4 30 12 55 38 55 58 58 73 8
44z"></path>
<path d="M883 1114 c-21 -16 -30 -30 -26 -41 5 -12 1 -14 -18 -8 -21 7 -22 6
-10 -8 12 -15 16 -15 43 4 26 19 54 66 45 75 -1 2 -17 -8 -34 -22z"></path>
<path d="M1145 1109 c-11 -17 1 -21 15 -4 8 9 8 15 2 15 -6 0 -14 -5 -17 -11z"></path>
<path d="M966 1094 c-7 -18 0 -34 15 -34 5 0 9 11 9 25 0 28 -15 34 -24 9z"></path>
<path d="M1196 1053 c-9 -10 -7 -93 3 -93 5 0 11 21 13 46 3 44 -2 61 -16 47z"></path>
<path d="M1098 1004 c-29 -26 -55 -48 -57 -50 -2 -2 6 -4 18 -4 21 0 71 45 92
83 15 27 4 21 -53 -29z"></path>
<path d="M1065 1031 c-6 -11 9 -23 19 -14 9 9 7 23 -3 23 -6 0 -12 -4 -16 -9z"></path>
<path d="M555 972 c-17 -20 -43 -56 -60 -80 -25 -38 -27 -46 -16 -64 9 -15 10
-23 2 -31 -13 -13 -15 -37 -3 -37 15 0 32 53 21 66 -15 19 -1 38 17 23 10 -8
14 -8 14 0 0 6 -4 11 -10 11 -18 0 -10 14 40 73 28 32 50 63 50 68 0 20 -27 6
-55 -29z"></path>
<path d="M1119 907 c-22 -18 -46 -57 -35 -57 1 0 22 18 46 40 45 41 35 56 -11
17z"></path>
<path d="M1130 845 c-7 -9 -11 -18 -8 -20 3 -3 11 1 18 10 7 9 11 18 8 20 -3
3 -11 -1 -18 -10z"></path>
<path d="M600 800 c0 -5 5 -10 11 -10 5 0 7 5 4 10 -3 6 -8 10 -11 10 -2 0 -4
-4 -4 -10z"></path>
<path d="M535 744 c-9 -14 -14 -28 -11 -32 9 -8 56 39 50 49 -9 15 -21 10 -39
-17z"></path>
<path d="M615 750 c-3 -5 -2 -10 4 -10 5 0 13 5 16 10 3 6 2 10 -4 10 -5 0
-13 -4 -16 -10z"></path>
<path d="M535 675 c-14 -15 -24 -30 -20 -33 3 -3 18 6 32 21 15 14 24 29 21
32 -3 4 -18 -6 -33 -20z"></path>
<path d="M470 680 c0 -5 5 -10 10 -10 6 0 10 5 10 10 0 6 -4 10 -10 10 -5 0
-10 -4 -10 -10z"></path>
<path d="M1515 1430 c-14 -16 -15 -20 -4 -20 16 0 39 19 39 32 0 14 -16 9 -35
-12z"></path>
<path d="M1535 1389 c-11 -17 1 -21 15 -4 8 9 8 15 2 15 -6 0 -14 -5 -17 -11z"></path>
<path d="M1466 1381 c-4 -7 -5 -15 -2 -18 9 -9 19 4 14 18 -4 11 -6 11 -12 0z"></path>
<path d="M1491 1280 c-11 -22 -16 -40 -11 -40 6 0 13 8 17 18 3 9 12 24 20 34
9 9 10 18 5 22 -6 3 -19 -12 -31 -34z"></path>
<path d="M2057 1245 c-34 -43 -20 -54 18 -15 19 20 25 34 19 40 -6 6 -19 -3
-37 -25z"></path>
<path d="M2125 1210 c0 -30 8 -39 20 -20 7 12 -3 50 -13 50 -4 0 -7 -13 -7
-30z"></path>
<path d="M1561 1175 c-19 -20 -32 -37 -30 -39 7 -7 71 54 67 64 -2 5 -18 -6
-37 -25z"></path>
<path d="M1590 1129 c0 -5 5 -7 10 -4 6 3 10 8 10 11 0 2 -4 4 -10 4 -5 0 -10
-5 -10 -11z"></path>
<path d="M2102 1100 c-16 -21 -19 -30 -9 -30 14 0 57 40 57 53 0 18 -28 4 -48
-23z"></path>
<path d="M1483 1093 c-7 -3 -13 -12 -13 -21 0 -15 2 -15 17 1 18 18 16 27 -4
20z"></path>
<path d="M2016 1081 c-4 -5 -2 -12 3 -15 5 -4 12 -2 15 3 4 5 2 12 -3 15 -5 4
-12 2 -15 -3z"></path>
<path d="M1590 1054 c0 -8 5 -12 10 -9 6 4 8 11 5 16 -9 14 -15 11 -15 -7z"></path>
<path d="M2120 969 c0 -5 5 -7 10 -4 6 3 10 8 10 11 0 2 -4 4 -10 4 -5 0 -10
-5 -10 -11z"></path>
<path d="M1435 879 c-10 -15 3 -25 16 -12 7 7 7 13 1 17 -6 3 -14 1 -17 -5z"></path>
<path d="M1555 820 c-22 -21 -37 -41 -34 -44 5 -5 89 69 89 79 0 13 -18 1 -55
-35z"></path>
<path d="M2088 835 c-23 -31 -25 -63 -3 -45 8 7 15 20 15 29 0 9 5 22 12 29 7
7 8 12 3 12 -6 0 -18 -11 -27 -25z"></path>
<path d="M2125 800 c-3 -5 -1 -10 4 -10 6 0 11 5 11 10 0 6 -2 10 -4 10 -3 0
-8 -4 -11 -10z"></path>
<path d="M1967 793 c-4 -3 -7 -13 -7 -21 0 -12 3 -12 15 -2 8 7 15 16 15 21 0
11 -14 12 -23 2z"></path>
<path d="M1677 743 c-4 -3 -7 -11 -7 -17 0 -6 5 -5 12 2 6 6 9 14 7 17 -3 3
-9 2 -12 -2z"></path>
<path d="M1687 684 c-38 -45 -21 -44 23 1 20 21 28 35 19 34 -7 0 -27 -16 -42
-35z"></path>
<path d="M2047 700 c-9 -13 -14 -26 -12 -29 9 -8 38 26 33 40 -3 8 -10 5 -21
-11z"></path>
<path d="M1640 700 c0 -5 5 -10 10 -10 6 0 10 5 10 10 0 6 -4 10 -10 10 -5 0
-10 -4 -10 -10z"></path>
<path d="M1785 684 c-11 -17 -13 -25 -4 -22 16 5 44 48 31 48 -5 0 -17 -12
-27 -26z"></path>
<path d="M1917 670 c-15 -16 -24 -31 -19 -34 4 -2 20 11 35 30 33 41 23 43
-16 4z"></path>
<path d="M1835 630 c-3 -5 1 -10 10 -10 9 0 13 5 10 10 -3 6 -8 10 -10 10 -2
0 -7 -4 -10 -10z"></path>
<path d="M2526 1445 c-3 -8 -2 -15 3 -15 5 0 14 7 21 15 10 12 10 15 -3 15 -8
0 -17 -7 -21 -15z"></path>
<path d="M2757 1424 c-13 -13 -7 -20 18 -19 14 0 26 5 28 10 2 12 -36 19 -46
9z"></path>
<path d="M2951 1379 c-18 -15 -21 -23 -13 -31 13 -13 52 16 52 39 0 18 -11 16
-39 -8z"></path>
<path d="M2535 1360 c-3 -5 1 -10 10 -10 9 0 13 5 10 10 -3 6 -8 10 -10 10 -2
0 -7 -4 -10 -10z"></path>
<path d="M2606 1330 c-1 -3 -2 -43 -1 -90 l0 -85 89 -3 c54 -2 102 2 120 9 44
17 76 49 76 74 0 27 -28 85 -44 90 -18 6 -238 11 -240 5z"></path>
<path d="M2560 1230 c0 -5 5 -10 10 -10 6 0 10 5 10 10 0 6 -4 10 -10 10 -5 0
-10 -4 -10 -10z"></path>
<path d="M2526 1165 c-3 -8 -2 -15 3 -15 5 0 14 7 21 15 10 12 10 15 -3 15 -8
0 -17 -7 -21 -15z"></path>
<path d="M2486 1127 c-10 -8 -17 -19 -15 -26 3 -9 9 -8 23 2 10 8 17 19 15 26
-3 9 -9 8 -23 -2z"></path>
<path d="M2620 1085 c-13 -14 -21 -27 -18 -30 2 -3 17 9 33 25 16 17 24 30 19
30 -6 0 -21 -11 -34 -25z"></path>
<path d="M2692 1084 c-12 -8 -20 -19 -17 -24 6 -10 65 18 65 31 0 14 -23 11
-48 -7z"></path>
<path d="M2920 1075 c-32 -34 -19 -43 14 -10 14 14 26 28 26 30 0 12 -19 3
-40 -20z"></path>
<path d="M2526 1065 c-23 -34 -12 -45 16 -17 16 15 19 25 12 32 -8 8 -16 3
-28 -15z"></path>
<path d="M2706 1031 c-4 -5 -2 -12 3 -15 5 -4 12 -2 15 3 4 5 2 12 -3 15 -5 4
-12 2 -15 -3z"></path>
<path d="M2960 1022 c0 -5 6 -17 14 -27 13 -18 14 -18 25 3 16 29 14 32 -14
32 -14 0 -25 -4 -25 -8z"></path>
<path d="M2596 990 c-6 -10 15 -205 23 -213 4 -4 29 -3 56 2 32 6 56 6 68 -1
10 -5 26 -6 35 -2 9 4 31 8 48 9 18 1 46 12 63 24 26 19 31 29 31 64 -1 46
-26 84 -70 104 -25 12 -249 23 -254 13z"></path>
<path d="M3020 965 c-16 -17 -20 -29 -14 -35 7 -7 18 -2 34 15 16 17 20 29 14
35 -7 7 -18 2 -34 -15z"></path>
<path d="M2465 877 c-53 -55 -66 -77 -45 -77 6 0 10 5 10 10 0 6 23 33 52 60
28 27 49 53 45 57 -4 3 -32 -19 -62 -50z"></path>
<path d="M3055 880 c-8 -13 14 -42 25 -35 10 6 1 45 -11 45 -4 0 -11 -5 -14
-10z"></path>
<path d="M2977 842 c-10 -10 -17 -23 -17 -28 0 -5 -29 -39 -65 -74 -66 -65
-75 -80 -52 -80 26 0 167 165 167 196 0 10 -18 3 -33 -14z"></path>
<path d="M2555 820 c-4 -6 -3 -16 3 -22 6 -6 12 -6 17 2 4 6 3 16 -3 22 -6 6
-12 6 -17 -2z"></path>
<path d="M3081 797 c-6 -8 -8 -17 -4 -20 7 -8 33 11 33 24 0 13 -16 11 -29 -4z"></path>
<path d="M3021 754 c-13 -13 -21 -28 -17 -31 8 -8 49 35 44 47 -2 5 -14 -2
-27 -16z"></path>
<path d="M2540 708 c-34 -57 -25 -65 19 -16 28 31 31 48 10 48 -5 0 -18 -15
-29 -32z"></path>
<path d="M2612 677 c-25 -27 -28 -37 -9 -37 16 0 47 32 47 48 0 19 -14 14 -38
-11z"></path>
<path d="M2560 629 c0 -5 5 -7 10 -4 6 3 10 8 10 11 0 2 -4 4 -10 4 -5 0 -10
-5 -10 -11z"></path>
<path d="M6130 1511 c0 -14 33 -19 103 -14 52 3 72 0 101 -17 20 -11 42 -20
48 -20 6 0 31 -16 55 -36 29 -24 48 -33 54 -27 7 7 -2 18 -26 32 -20 11 -39
21 -42 21 -3 0 -18 11 -35 25 -16 14 -40 25 -53 25 -13 0 -27 5 -30 10 -8 12
-175 13 -175 1z"></path>
<path d="M6055 1490 c-3 -5 -15 -10 -26 -10 -11 0 -19 -7 -19 -16 0 -11 6 -14
23 -8 27 8 47 23 47 35 0 12 -17 11 -25 -1z"></path>
<path d="M4005 1471 l-30 -6 0 -145 c-1 -164 4 -220 16 -220 5 0 9 74 9 165 0
149 2 166 18 171 9 3 27 10 39 16 13 7 35 7 60 1 34 -8 46 -20 110 -113 39
-58 72 -113 72 -122 1 -9 5 -19 10 -23 15 -9 24 14 12 29 -6 7 -23 35 -37 62
-14 27 -34 58 -45 70 -10 11 -19 25 -19 30 0 5 -17 28 -39 52 -37 40 -41 42
-92 41 -30 -1 -67 -4 -84 -8z"></path>
<path d="M5442 1431 c-26 -33 -48 -74 -40 -77 2 -1 -6 -11 -16 -23 -11 -12
-17 -21 -15 -22 18 -3 69 -3 69 0 0 3 -7 12 -16 22 -15 17 -14 20 5 48 34 48
78 69 134 63 27 -2 51 -10 53 -17 3 -7 -11 -43 -30 -79 -39 -72 -40 -76 -27
-76 9 0 27 29 90 143 12 21 21 41 21 45 0 4 -45 8 -99 8 l-100 1 -29 -36z"></path>
<path d="M4505 1450 c-9 -15 5 -160 16 -160 4 0 9 30 11 68 l3 67 37 3 c57 5
77 -11 75 -58 -1 -37 7 -59 18 -48 3 2 6 34 7 69 l3 64 -82 3 c-49 1 -84 -2
-88 -8z"></path>
<path d="M4866 1451 c-3 -5 19 -46 49 -92 31 -46 61 -96 68 -111 12 -28 27
-37 27 -17 0 13 -48 95 -85 148 -28 38 -25 51 10 51 30 0 55 10 55 21 0 12
-117 12 -124 0z"></path>
<path d="M5007 1454 c-12 -13 4 -24 34 -24 19 0 32 -6 36 -17 3 -10 24 -39 45
-64 21 -26 38 -53 38 -60 0 -20 59 -119 70 -119 11 0 3 26 -20 60 -9 14 -28
51 -43 82 -15 31 -35 61 -44 67 -10 5 -22 24 -28 43 -10 28 -17 33 -46 36 -19
2 -38 0 -42 -4z"></path>
<path d="M5947 1444 c-8 -8 1 -24 14 -24 5 0 9 7 9 15 0 15 -12 20 -23 9z"></path>
<path d="M5892 1378 c-7 -7 -12 -17 -12 -24 0 -6 -7 -17 -16 -25 -15 -12 -54
-81 -54 -94 0 -18 22 7 64 69 26 38 43 73 38 78 -4 4 -13 3 -20 -4z"></path>
<path d="M6200 1381 c-8 -5 -35 -11 -59 -15 -46 -7 -111 -49 -111 -72 0 -21 8
-18 51 20 31 26 52 35 95 40 61 7 129 -7 157 -32 9 -8 20 -12 24 -8 11 11 -37
45 -75 52 -18 3 -35 10 -38 15 -6 11 -24 11 -44 0z"></path>
<path d="M6545 1308 c4 -18 9 -41 11 -50 5 -16 -3 -18 -64 -18 -66 0 -72 2
-97 31 -32 39 -43 31 -21 -14 13 -29 22 -35 58 -39 24 -3 65 -3 93 1 57 7 65
21 44 83 -15 46 -33 51 -24 6z"></path>
<path d="M4642 1269 c-7 -11 -11 -24 -7 -27 9 -9 40 13 40 28 0 22 -19 21 -33
-1z"></path>
<path d="M5324 1238 c-15 -24 -31 -48 -36 -55 -5 -7 -5 -14 1 -17 10 -6 81 84
81 103 0 23 -21 9 -46 -31z"></path>
<path d="M5516 1214 c-11 -28 -6 -39 9 -20 8 11 15 23 15 28 0 14 -18 9 -24
-8z"></path>
<path d="M5978 1203 c-16 -32 -24 -183 -10 -183 5 0 13 37 17 82 4 46 11 90
16 100 5 10 5 19 0 22 -5 4 -16 -6 -23 -21z"></path>
<path d="M4510 1205 c0 -8 5 -15 10 -15 6 0 10 7 10 15 0 8 -4 15 -10 15 -5 0
-10 -7 -10 -15z"></path>
<path d="M4623 1195 c-3 -9 -3 -18 0 -22 10 -10 37 6 37 22 0 20 -29 20 -37 0z"></path>
<path d="M5038 1168 c11 -18 30 -51 42 -73 25 -45 49 -75 61 -75 8 0 -28 65
-79 143 -30 45 -51 50 -24 5z"></path>
<path d="M4330 1162 c0 -14 68 -145 88 -171 12 -14 24 -21 31 -16 9 5 7 13 -7
29 -18 19 -61 91 -86 143 -11 23 -26 31 -26 15z"></path>
<path d="M4500 1135 c0 -34 12 -46 25 -24 9 14 -3 59 -15 59 -6 0 -10 -16 -10
-35z"></path>
<path d="M4170 1122 c0 -4 16 -23 35 -42 19 -18 46 -56 60 -84 14 -28 30 -58
35 -66 36 -58 87 -148 93 -163 7 -19 34 -33 44 -24 3 3 -11 28 -31 55 -20 27
-36 52 -36 56 0 3 -18 35 -40 71 -22 36 -40 68 -40 71 0 13 -96 134 -107 134
-7 0 -13 -4 -13 -8z"></path>
<path d="M4129 1103 c-7 -133 -7 -163 0 -163 14 0 21 39 21 113 0 38 -4 67
-10 67 -5 0 -10 -8 -11 -17z"></path>
<path d="M5419 1078 c-38 -51 -69 -136 -69 -190 0 -26 5 -48 10 -48 6 0 10 23
10 52 0 55 26 122 67 171 13 16 23 33 23 38 0 18 -17 8 -41 -23z"></path>
<path d="M5777 1104 c-4 -4 -4 -18 -2 -30 3 -13 7 -35 10 -49 3 -14 10 -25 16
-25 8 0 9 16 4 48 -7 48 -16 67 -28 56z"></path>
<path d="M4660 1044 c0 -34 4 -53 10 -49 6 3 10 28 10 56 0 27 -4 49 -10 49
-5 0 -10 -25 -10 -56z"></path>
<path d="M3980 1044 c0 -8 5 -12 10 -9 6 3 10 10 10 16 0 5 -4 9 -10 9 -5 0
-10 -7 -10 -16z"></path>
<path d="M4500 1050 c0 -5 5 -10 10 -10 6 0 10 5 10 10 0 6 -4 10 -10 10 -5 0
-10 -4 -10 -10z"></path>
<path d="M4610 1010 c0 -5 5 -10 10 -10 6 0 10 5 10 10 0 6 -4 10 -10 10 -5 0
-10 -4 -10 -10z"></path>
<path d="M3977 983 c-8 -34 -2 -86 11 -90 9 -4 12 11 12 51 0 53 -14 76 -23
39z"></path>
<path d="M6394 968 c-8 -15 -14 -36 -14 -48 0 -12 -21 -42 -52 -71 -41 -39
-47 -49 -31 -49 11 0 26 7 33 15 7 8 18 15 24 15 6 0 19 20 29 43 41 96 37 92
102 92 l60 0 -1 -30 c-1 -16 -5 -40 -9 -52 -12 -38 14 -27 31 12 17 42 18 84
2 90 -7 2 -46 5 -86 7 -72 4 -74 3 -88 -24z"></path>
<path d="M5154 959 c3 -17 6 -44 6 -60 0 -34 15 -39 23 -7 7 25 -13 98 -27 98
-5 0 -6 -14 -2 -31z"></path>
<path d="M5984 974 c3 -9 6 -27 6 -40 0 -14 7 -27 15 -31 24 -9 27 1 10 33 -8
16 -15 35 -15 42 0 6 -5 12 -11 12 -6 0 -8 -7 -5 -16z"></path>
<path d="M5810 926 c0 -19 5 -38 10 -41 6 -3 10 -12 10 -20 0 -22 55 -98 89
-123 30 -22 30 -21 -12 38 -67 97 -75 113 -76 148 -1 43 -21 41 -21 -2z"></path>
<path d="M4124 803 c0 -136 -2 -143 -54 -143 -54 0 -80 14 -73 40 3 11 1 20
-5 20 -17 0 -25 -21 -13 -33 7 -7 7 -14 -1 -24 -19 -23 3 -29 87 -24 l80 6 0
129 c0 80 -4 131 -10 133 -7 2 -11 -35 -11 -104z"></path>
<path d="M4640 900 c0 -5 5 -10 10 -10 6 0 10 5 10 10 0 6 -4 10 -10 10 -5 0
-10 -4 -10 -10z"></path>
<path d="M6040 871 c0 -5 5 -13 10 -16 6 -3 10 -2 10 4 0 5 -4 13 -10 16 -5 3
-10 2 -10 -4z"></path>
<path d="M3976 834 c-9 -24 -7 -54 4 -54 6 0 10 9 10 19 0 11 3 26 6 35 3 9 2
16 -4 16 -5 0 -13 -7 -16 -16z"></path>
<path d="M6520 839 c0 -9 -11 -26 -25 -39 -25 -23 -34 -60 -15 -60 6 0 10 5
10 11 0 6 12 26 27 45 20 26 23 38 15 46 -9 9 -12 8 -12 -3z"></path>
<path d="M4636 831 c-3 -5 1 -14 8 -20 16 -13 32 2 21 19 -8 12 -22 13 -29 1z"></path>
<path d="M6090 832 c0 -5 13 -18 30 -30 25 -19 33 -20 55 -10 30 13 34 32 5
23 -12 -4 -31 0 -45 9 -26 17 -45 21 -45 8z"></path>
<path d="M5168 813 c-2 -10 -2 -58 0 -106 4 -75 6 -88 21 -84 9 2 14 10 12 18
-3 8 -5 52 -6 98 -1 49 -6 86 -12 88 -6 2 -12 -4 -15 -14z"></path>
<path d="M6230 810 c0 -5 5 -10 10 -10 6 0 10 5 10 10 0 6 -4 10 -10 10 -5 0
-10 -4 -10 -10z"></path>
<path d="M4653 723 c11 -53 -10 -67 -84 -60 -39 4 -68 13 -75 22 -17 23 -26
18 -22 -12 l3 -28 100 0 100 0 0 49 c0 33 -5 51 -14 54 -11 4 -13 -2 -8 -25z"></path>
<path d="M5343 683 c-8 -37 -10 -38 -56 -41 -68 -4 -58 -22 12 -22 65 0 71 6
71 66 0 45 -16 43 -27 -3z"></path>
<path d="M6410 694 c0 -8 5 -12 10 -9 6 3 10 10 10 16 0 5 -4 9 -10 9 -5 0
-10 -7 -10 -16z"></path>
<path d="M5970 690 c0 -5 5 -10 10 -10 6 0 10 5 10 10 0 6 -4 10 -10 10 -5 0
-10 -4 -10 -10z"></path>
<path d="M6303 663 c-7 -2 -13 -9 -13 -14 0 -12 57 -12 65 1 3 6 2 10 -4 10
-5 0 -15 2 -23 4 -7 3 -19 2 -25 -1z"></path>
<path d="M6050 653 c0 -11 94 -33 143 -33 61 0 42 17 -25 23 -35 3 -75 9 -90
13 -16 3 -28 2 -28 -3z"></path>
</g>
</svg>