<svg xmlns:xl="http://www.w3.org/1999/xlink" xmlns:dc="http://purl.org/dc/elements/1.1/" xmlns="http://www.w3.org/2000/svg" xmlns:xlink="http://www.w3.org/1999/xlink" version="1.1" x="0px" y="0px" viewBox="0 0 100 125" enable-background="new 0 0 100 100" xml:space="preserve"><title>Canvas 1</title><title>Layer 1</title><path d="M59.389,75.826h-26c-1.104,0-2,0.896-2,2v16c0,1.104,0.896,2,2,2h26c1.105,0,2-0.896,2-2v-16  C61.389,76.723,60.494,75.826,59.389,75.826z M58.913,79.678l-12,8c-0.161,0.1-0.343,0.148-0.524,0.148  c-0.181,0-0.363-0.049-0.523-0.148l-12-8c-0.471-0.289-0.617-0.904-0.328-1.375c0.29-0.471,0.905-0.619,1.376-0.328l11.476,7.678  l11.477-7.678c0.469-0.291,1.086-0.143,1.375,0.328C59.529,78.771,59.384,79.389,58.913,79.678z M46.188,35.5  c3.59,0,6.5,2.91,6.5,6.5s-2.91,6.5-6.5,6.5s-6.5-2.91-6.5-6.5S42.598,35.5,46.188,35.5z M60.688,40.5c2.762,0,5,2.239,5,5  s-2.238,5-5,5c-2.761,0-5-2.239-5-5S57.927,40.5,60.688,40.5z M67.688,60.5c0-4.971-3.135-9-7-9c-2.67,0-4.989,1.923-6.17,4.75  c-1.615-4.021-4.74-6.75-8.331-6.75c-5.248,0-9.5,5.82-9.5,13h19c0-0.682-0.049-1.348-0.123-2H67.688z M70.02,28.118h-1.578  c-1.744,0-3.157-1.317-3.157-2.941V11.941c0-1.625,1.414-2.941,3.157-2.941h23.685c1.744,0,3.158,1.317,3.158,2.941v13.235  c0,1.625-1.414,2.941-3.158,2.941h-15.79L70.02,34V28.118z M13.575,28.947l2.447-4.896c0.169-0.339,0.516-0.553,0.895-0.553h1.382  c0.552,0,1,0.447,1,1v4c0,0.553,0.448,1,1,1l0,0h4c0.552,0,1,0.447,1,1l0,0v10c0,0.553-0.448,1-1,1h-8.586  c-0.265,0-0.52-0.105-0.707-0.293l-2.414-2.414c-0.188-0.188-0.442-0.293-0.707-0.293h-0.586c-0.552,0-1-0.447-1-1v-7  c0-0.553,0.448-1,1-1l0,0h1.382C13.059,29.5,13.405,29.286,13.575,28.947z M9.298,29.5v10c0,0.553-0.448,1-1,1H5.146  c-0.489,0-0.906-0.354-0.986-0.836l-1.667-10c-0.09-0.545,0.277-1.06,0.822-1.15C3.369,28.504,3.424,28.5,3.48,28.5h4.819  C8.851,28.5,9.298,28.947,9.298,29.5z M67.688,89.203c-0.795,0-1.545-0.477-1.857-1.26c-0.409-1.025,0.09-2.189,1.115-2.6  c14.363-5.732,23.644-19.425,23.644-34.882c0-5.258-1.073-10.357-3.192-15.155c-0.446-1.01,0.011-2.191,1.021-2.638  c1.007-0.445,2.19,0.01,2.638,1.021C93.4,39,94.589,44.643,94.589,50.461c0,17.104-10.269,32.253-26.159,38.598  C68.186,89.156,67.936,89.203,67.688,89.203L67.688,89.203z M25.828,85.486c-0.408,0-0.818-0.123-1.173-0.381  C13.901,77.3,7.48,64.723,7.48,51.463c0-1.375,0.07-2.775,0.208-4.161c0.11-1.099,1.088-1.904,2.188-1.792  c1.099,0.11,1.901,1.089,1.792,2.188c-0.125,1.254-0.188,2.521-0.188,3.764c0,11.983,5.803,23.351,15.524,30.406  c0.894,0.647,1.093,1.899,0.444,2.793C27.057,85.201,26.447,85.486,25.828,85.486L25.828,85.486z M22.735,20.84  c-0.504,0-1.008-0.189-1.397-0.569c-0.791-0.771-0.806-2.038-0.034-2.828C29.195,9.36,39.753,4.909,51.035,4.909  c3.042,0,6.109,0.342,9.119,1.016c1.078,0.242,1.756,1.311,1.514,2.389c-0.241,1.078-1.307,1.754-2.389,1.514  c-2.723-0.61-5.495-0.919-8.244-0.919c-10.195,0-19.737,4.023-26.869,11.329C23.774,20.639,23.255,20.84,22.735,20.84L22.735,20.84z  "/><text x="0" y="115" fill="#000000" font-size="5px" font-weight="bold" font-family="'Helvetica Neue', Helvetica, Arial-Unicode, Arial, Sans-serif">Created by PJ Souders</text><text x="0" y="120" fill="#000000" font-size="5px" font-weight="bold" font-family="'Helvetica Neue', Helvetica, Arial-Unicode, Arial, Sans-serif">from the Noun Project</text></svg>