<?xml version="1.0" encoding="UTF-8" standalone="no"?>
<!DOCTYPE svg PUBLIC "-//W3C//DTD SVG 1.1//EN" "http://www.w3.org/Graphics/SVG/1.1/DTD/svg11.dtd">
<svg version="1.1" xmlns="http://www.w3.org/2000/svg" xmlns:xlink="http://www.w3.org/1999/xlink" preserveAspectRatio="xMidYMid meet" viewBox="0 0 150 150" width="150" height="150"><defs><path d="M3.24 95.06L25.69 74.39L3.24 52.85L3.24 95.06Z" id="b1Ee2GdrqH"></path><path d="M28.39 76.97L6.28 97.3L66.55 97.3L44.43 76.97L36.33 84.55L28.39 76.97Z" id="b1pjwgM3J"></path><path d="M37.34 50.44C35.26 50.44 24.85 50.44 6.11 50.44L36.5 79.38L49.5 66.98C42.86 60.2 38.81 54.69 37.34 50.44Z" id="b1W3x3Mn21"></path><path d="M63.68 38.21C63.58 38.35 63.07 39.04 62.16 40.28C61.25 39.04 60.74 38.35 60.64 38.21C58.44 35.28 55.07 33.56 51.35 33.56C45.11 33.56 40.04 38.38 40.04 44.41C40.04 57.16 57.94 69.39 62.16 72.15C66.38 69.39 84.27 57.85 84.27 44.24C84.27 38.38 79.21 33.56 72.96 33.56C69.25 33.56 65.7 35.28 63.68 38.21Z" id="b6JwMYwdzL"></path><path d="M61.31 75.77C60.98 75.59 57.09 73.18 52.54 69.56C52.18 69.89 50.38 71.49 47.13 74.39L69.59 95.06C69.59 81 69.59 73.19 69.59 71.63C66.04 74.22 63.34 75.59 63.17 75.77C63.1 75.8 62.77 75.97 62.16 76.28C61.65 75.97 61.37 75.8 61.31 75.77Z" id="a5O0YzlIg"></path><path d="M128.5 80.85L128.54 80.86L128.58 80.86L128.61 80.87L128.65 80.87L128.69 80.88L128.73 80.89L128.76 80.9L128.8 80.91L128.83 80.93L128.87 80.94L128.9 80.95L128.94 80.97L128.97 80.99L129 81.01L129.03 81.03L129.06 81.05L129.09 81.07L129.11 81.09L129.14 81.11L129.17 81.14L129.19 81.16L129.21 81.19L129.24 81.21L129.26 81.24L129.28 81.27L129.3 81.3L129.31 81.33L129.33 81.36L129.34 81.39L129.36 81.42L129.37 81.45L129.38 81.48L129.39 81.52L129.4 81.55L129.4 81.58L129.41 81.62L129.41 81.65L129.41 81.69L130.26 130.71L130.26 130.74L130.26 130.77L130.26 130.81L130.25 130.84L130.25 130.88L130.24 130.91L130.23 130.94L130.22 130.97L130.21 131.01L130.19 131.04L130.18 131.07L130.16 131.1L130.14 131.13L130.13 131.15L130.11 131.18L130.08 131.21L130.06 131.24L130.04 131.26L130.01 131.29L129.99 131.31L129.96 131.33L129.93 131.36L129.9 131.38L129.88 131.4L129.84 131.42L129.81 131.43L129.78 131.45L129.75 131.47L129.71 131.48L129.68 131.5L129.64 131.51L129.61 131.52L129.57 131.53L129.53 131.54L129.5 131.55L129.46 131.56L129.42 131.56L129.38 131.57L129.34 131.57L129.3 131.57L74.85 132.36L74.81 132.36L74.77 132.36L74.73 132.36L74.69 132.35L74.65 132.35L74.61 132.34L74.57 132.33L74.54 132.32L74.5 132.31L74.47 132.3L74.43 132.29L74.4 132.27L74.36 132.26L74.33 132.24L74.3 132.22L74.27 132.2L74.24 132.19L74.21 132.16L74.18 132.14L74.15 132.12L74.12 132.1L74.1 132.07L74.07 132.05L74.05 132.02L74.03 132L74.01 131.97L73.99 131.94L73.97 131.91L73.95 131.88L73.94 131.85L73.92 131.82L73.91 131.79L73.9 131.76L73.89 131.73L73.88 131.7L73.87 131.66L73.86 131.63L73.86 131.59L73.85 131.56L73.85 131.52L73 82.51L73 82.47L73 82.44L73.01 82.4L73.01 82.37L73.02 82.33L73.03 82.3L73.03 82.27L73.05 82.24L73.06 82.21L73.07 82.17L73.09 82.14L73.1 82.11L73.12 82.08L73.14 82.06L73.16 82.03L73.18 82L73.2 81.98L73.23 81.95L73.25 81.92L73.28 81.9L73.3 81.88L73.33 81.86L73.36 81.83L73.39 81.81L73.42 81.8L73.45 81.78L73.48 81.76L73.52 81.74L73.55 81.73L73.59 81.71L73.62 81.7L73.66 81.69L73.69 81.68L73.73 81.67L73.77 81.66L73.81 81.66L73.85 81.65L73.89 81.65L73.92 81.64L73.97 81.64L128.42 80.85L128.46 80.85L128.5 80.85ZM75.8 130.65L128.29 129.88L127.47 82.56L74.97 83.33L75.8 130.65Z" id="l2dhmm8YCS"></path><path d="M143.41 124.47L143.25 124.47C134.68 123.3 129.93 122.64 128.98 122.51C128.43 122.44 128.06 122 128.14 121.53C128.23 121.06 128.74 120.74 129.28 120.81C129.28 120.81 129.28 120.81 129.28 120.81C130.17 120.93 134.6 121.56 142.58 122.67L151.12 75.92L99.27 68.84C97.79 76.92 96.97 81.42 96.81 82.31C96.73 82.78 96.22 83.11 95.68 83.04C95.13 82.96 94.76 82.52 94.85 82.05C95.11 80.62 97.2 69.18 97.46 67.74C97.54 67.28 98.05 66.97 98.58 67.04C98.58 67.04 98.58 67.04 98.58 67.04C103.96 67.77 146.99 73.63 152.37 74.37C152.91 74.42 153.3 74.84 153.23 75.31C153.23 75.31 153.23 75.32 153.23 75.32C152.34 80.17 145.25 118.91 144.36 123.75C144.29 124.17 143.88 124.47 143.39 124.47C143.4 124.47 143.4 124.47 143.41 124.47Z" id="bRAGbXJ0z"></path><path d="M139.66 110.82L139.49 110.82C133.04 109.95 129.46 109.47 128.75 109.37C128.2 109.3 127.83 108.86 127.92 108.39C128 107.92 128.51 107.59 129.05 107.66C129.05 107.66 129.05 107.66 129.05 107.66C129.7 107.75 132.98 108.2 138.87 108.99L144.04 80.77L104.36 75.4C103.62 79.49 103.2 81.76 103.12 82.21C103.04 82.68 102.53 83.01 101.98 82.93C101.44 82.86 101.07 82.42 101.15 81.95C101.29 81.19 102.42 75.05 102.56 74.28C102.65 73.82 103.15 73.5 103.68 73.58C103.68 73.58 103.68 73.58 103.68 73.58C107.84 74.15 141.11 78.68 145.26 79.25C145.8 79.32 146.16 79.76 146.07 80.22C146.07 80.22 146.07 80.22 146.07 80.22C145.53 83.21 141.16 107.13 140.62 110.12C140.54 110.54 140.13 110.84 139.65 110.84C139.65 110.84 139.65 110.83 139.66 110.82Z" id="bauVydFP8"></path><path d="M122.45 86.27L122.51 86.28L122.56 86.28L122.61 86.29L122.66 86.31L122.71 86.32L122.75 86.34L122.8 86.36L122.84 86.38L122.89 86.4L122.93 86.42L122.97 86.45L123.01 86.48L123.04 86.51L123.08 86.54L123.11 86.57L123.14 86.6L123.17 86.64L123.2 86.68L123.23 86.71L123.25 86.75L123.27 86.79L123.29 86.84L123.3 86.88L123.32 86.92L123.33 86.97L123.33 87.01L123.34 87.06L123.34 87.1L123.88 118.23L123.88 118.27L123.88 118.32L123.87 118.37L123.86 118.41L123.85 118.45L123.84 118.5L123.82 118.54L123.8 118.58L123.78 118.62L123.76 118.66L123.73 118.7L123.7 118.73L123.67 118.77L123.64 118.8L123.61 118.83L123.57 118.86L123.53 118.89L123.49 118.92L123.45 118.94L123.41 118.97L123.37 118.99L123.32 119.01L123.28 119.03L123.23 119.04L123.18 119.06L123.13 119.07L123.08 119.08L123.03 119.09L122.97 119.09L122.92 119.09L80.79 119.7L80.74 119.7L80.68 119.7L80.63 119.69L80.58 119.69L80.53 119.68L80.48 119.66L80.43 119.65L80.39 119.63L80.34 119.62L80.29 119.59L80.25 119.57L80.21 119.55L80.17 119.52L80.13 119.49L80.09 119.46L80.06 119.43L80.03 119.4L79.99 119.37L79.97 119.33L79.94 119.3L79.91 119.26L79.89 119.22L79.87 119.18L79.85 119.14L79.84 119.09L79.82 119.05L79.81 119.01L79.8 118.96L79.8 118.91L79.8 118.87L79.26 87.74L79.26 87.7L79.26 87.65L79.27 87.61L79.27 87.56L79.29 87.52L79.3 87.47L79.32 87.43L79.34 87.39L79.36 87.35L79.38 87.31L79.41 87.28L79.44 87.24L79.47 87.2L79.5 87.17L79.53 87.14L79.57 87.11L79.61 87.08L79.64 87.05L79.69 87.03L79.73 87L79.77 86.98L79.82 86.96L79.86 86.94L79.91 86.93L79.96 86.91L80.01 86.9L80.06 86.89L80.11 86.89L80.17 86.88L80.22 86.88L122.35 86.27L122.4 86.27L122.45 86.27ZM81.74 117.99L121.91 117.41L121.4 87.98L81.23 88.57L81.74 117.99Z" id="b4r2K55s3t"></path><path d="M96.31 118.64C96.3 118.47 96.36 118.3 96.47 118.16C98.3 115.76 112.96 96.58 114.79 94.18C114.97 93.95 115.27 93.81 115.59 93.8C115.59 93.8 115.59 93.8 115.59 93.8C115.91 93.8 116.21 93.93 116.4 94.16C117.1 95.01 122.71 101.84 123.41 102.7C123.72 103.08 123.62 103.61 123.18 103.89C122.74 104.16 122.12 104.07 121.81 103.69C121.39 103.19 119.32 100.67 115.6 96.13C105.12 109.89 99.3 117.54 98.14 119.07C97.96 119.32 97.64 119.48 97.3 119.48C96.76 119.49 96.31 119.11 96.31 118.64Z" id="eq4dPt5k"></path><path d="M79.17 102.98C79.17 102.8 79.23 102.62 79.35 102.49C80.29 101.41 87.8 92.75 88.74 91.66C88.88 91.51 89.07 91.42 89.27 91.41C89.47 91.41 89.67 91.48 89.82 91.62C90.58 92.36 96.65 98.24 97.41 98.98C97.7 99.26 97.71 99.73 97.42 100.02C97.14 100.31 96.67 100.31 96.38 100.03C95.91 99.58 93.58 97.3 89.37 93.21C84.01 99.36 81.03 102.77 80.43 103.45C80.3 103.6 80.11 103.69 79.91 103.7C79.51 103.71 79.18 103.38 79.17 102.98Z" id="a5Pe27cvNq"></path><path d="M108.6 99.24C106.24 98.94 104.61 97.03 104.97 94.99C105.26 93.27 106.88 91.95 108.87 91.8C109.12 91.81 109.37 91.83 109.61 91.88C110.72 89.48 113.87 88.31 116.63 89.28C117.99 89.75 119.06 90.67 119.61 91.84C119.86 92.26 119.68 92.77 119.2 92.99C118.72 93.21 118.12 93.05 117.88 92.63C117.86 92.6 117.84 92.58 117.83 92.55C117.28 91.41 116 90.66 114.57 90.64C112.91 90.72 111.52 91.74 111.17 93.15C111.04 93.6 110.5 93.88 109.98 93.76C109.91 93.75 109.85 93.73 109.79 93.7C109.52 93.59 109.22 93.53 108.92 93.53C107.7 93.61 106.79 94.53 106.87 95.59C106.85 96.55 107.64 97.38 108.73 97.54C109.25 97.53 113.45 97.47 113.98 97.47C114.52 97.46 114.96 97.83 114.97 98.3C114.98 98.77 114.55 99.16 114.01 99.17C112.93 99.18 109.14 99.24 108.6 99.24Z" id="ieS0cfHh3"></path><path d="M93.7 106.38C89.2 106.46 86.7 106.5 86.2 106.51C85.8 106.52 85.46 106.19 85.46 105.79C85.45 105.38 85.77 105.05 86.18 105.04C86.93 105.03 92.89 104.93 93.64 104.92C94.22 104.79 94.63 104.25 94.6 103.65C94.62 103 94.12 102.44 93.46 102.41C93.26 102.42 93.07 102.48 92.91 102.59C92.57 102.81 92.12 102.71 91.9 102.37C91.85 102.31 91.82 102.24 91.8 102.16C91.6 101.23 90.79 100.55 89.83 100.53C88.9 100.59 88.12 101.25 87.92 102.16C87.82 102.55 87.42 102.79 87.03 102.69C86.98 102.68 86.93 102.66 86.89 102.64C86.65 102.56 86.4 102.52 86.15 102.52C85.74 102.53 85.41 102.2 85.4 101.8C85.4 101.39 85.72 101.06 86.13 101.05C86.33 101.06 86.54 101.08 86.74 101.11C87.49 99.4 89.49 98.61 91.21 99.35C91.97 99.67 92.58 100.26 92.93 101.01C93.1 100.97 93.27 100.95 93.45 100.95C94.96 101.03 96.12 102.32 96.04 103.83C95.97 105.09 95.04 106.15 93.78 106.37C93.77 106.38 93.75 106.38 93.7 106.38Z" id="eexFJiAvn"></path></defs><g><g><g><use xlink:href="#b1Ee2GdrqH" opacity="1" fill="#ff5103" fill-opacity="1"></use><g><use xlink:href="#b1Ee2GdrqH" opacity="1" fill-opacity="0" stroke="#000000" stroke-width="1" stroke-opacity="0"></use></g></g><g><use xlink:href="#b1pjwgM3J" opacity="1" fill="#ff5103" fill-opacity="1"></use><g><use xlink:href="#b1pjwgM3J" opacity="1" fill-opacity="0" stroke="#000000" stroke-width="1" stroke-opacity="0"></use></g></g><g><use xlink:href="#b1W3x3Mn21" opacity="1" fill="#ff5103" fill-opacity="1"></use><g><use xlink:href="#b1W3x3Mn21" opacity="1" fill-opacity="0" stroke="#000000" stroke-width="1" stroke-opacity="0"></use></g></g><g><use xlink:href="#b6JwMYwdzL" opacity="1" fill="#ff5103" fill-opacity="1"></use><g><use xlink:href="#b6JwMYwdzL" opacity="1" fill-opacity="0" stroke="#000000" stroke-width="1" stroke-opacity="0"></use></g></g><g><use xlink:href="#a5O0YzlIg" opacity="1" fill="#ff5103" fill-opacity="1"></use><g><use xlink:href="#a5O0YzlIg" opacity="1" fill-opacity="0" stroke="#000000" stroke-width="1" stroke-opacity="0"></use></g></g><g><use xlink:href="#l2dhmm8YCS" opacity="1" fill="#ff5103" fill-opacity="1"></use><g><use xlink:href="#l2dhmm8YCS" opacity="1" fill-opacity="0" stroke="#000000" stroke-width="1" stroke-opacity="0"></use></g></g><g><use xlink:href="#bRAGbXJ0z" opacity="1" fill="#ff5103" fill-opacity="1"></use><g><use xlink:href="#bRAGbXJ0z" opacity="1" fill-opacity="0" stroke="#000000" stroke-width="1" stroke-opacity="0"></use></g></g><g><use xlink:href="#bauVydFP8" opacity="1" fill="#ff5103" fill-opacity="1"></use><g><use xlink:href="#bauVydFP8" opacity="1" fill-opacity="0" stroke="#000000" stroke-width="1" stroke-opacity="0"></use></g></g><g><use xlink:href="#b4r2K55s3t" opacity="1" fill="#ff5103" fill-opacity="1"></use><g><use xlink:href="#b4r2K55s3t" opacity="1" fill-opacity="0" stroke="#000000" stroke-width="1" stroke-opacity="0"></use></g></g><g><use xlink:href="#eq4dPt5k" opacity="1" fill="#ff5103" fill-opacity="1"></use><g><use xlink:href="#eq4dPt5k" opacity="1" fill-opacity="0" stroke="#000000" stroke-width="1" stroke-opacity="0"></use></g></g><g><use xlink:href="#a5Pe27cvNq" opacity="1" fill="#ff5103" fill-opacity="1"></use><g><use xlink:href="#a5Pe27cvNq" opacity="1" fill-opacity="0" stroke="#000000" stroke-width="1" stroke-opacity="0"></use></g></g><g><use xlink:href="#ieS0cfHh3" opacity="1" fill="#ff5103" fill-opacity="1"></use><g><use xlink:href="#ieS0cfHh3" opacity="1" fill-opacity="0" stroke="#000000" stroke-width="1" stroke-opacity="0"></use></g></g><g><use xlink:href="#eexFJiAvn" opacity="1" fill="#ff5103" fill-opacity="1"></use><g><use xlink:href="#eexFJiAvn" opacity="1" fill-opacity="0" stroke="#000000" stroke-width="1" stroke-opacity="0"></use></g></g><path></path></g></g></svg>